<?xml version="1.0" encoding="utf-8"?>
<!-- Generator: Adobe Illustrator 19.2.1, SVG Export Plug-In . SVG Version: 6.00 Build 0)  -->
<svg version="1.1" id="Layer_1" xmlns="http://www.w3.org/2000/svg" xmlns:xlink="http://www.w3.org/1999/xlink" x="0px" y="0px"
	 viewBox="0 0 665 675" style="enable-background:new 0 0 665 675;" xml:space="preserve">
<style type="text/css">
	.st0{fill:none;stroke:#4056F4;stroke-width:1.9231;stroke-linecap:round;stroke-miterlimit:10;}
	.st1{fill:#4056F4;}
	.st2{fill:none;}
	.st3{fill:#8000FF;}
	.st4{font-family:'ShortStack';}
	.st5{font-size:29px;}
	.st6{fill:#16C4BF;}
	.st7{font-size:72px;}
	.st8{font-size:17px;}
</style>
<g>
	<g>
		<line class="st0" x1="347.5" y1="58.3" x2="347.5" y2="657.7"/>
		<g>
			<polygon class="st1" points="337.9,61.1 347.5,44.5 357.1,61.1 			"/>
		</g>
		<g>
			<polygon class="st1" points="337.9,654.9 347.5,671.5 357.1,654.9 			"/>
		</g>
	</g>
</g>
<g>
	<g>
		<line class="st0" x1="47.8" y1="358" x2="647.2" y2="358"/>
		<g>
			<polygon class="st1" points="50.6,367.6 34,358 50.6,348.4 			"/>
		</g>
		<g>
			<polygon class="st1" points="644.4,367.6 661,358 644.4,348.4 			"/>
		</g>
	</g>
</g>
<rect x="4" y="345.3" class="st2" width="93.8" height="57.5"/>
<text transform="matrix(1 0 0 1 3.993 366.1763)" class="st3 st4 st5">x</text>
<rect x="340.7" y="6.5" class="st2" width="93.8" height="57.5"/>
<text transform="matrix(1 0 0 1 340.743 27.4263)" class="st3 st4 st5">y</text>
<rect x="387.7" y="184" class="st2" width="241.2" height="66.2"/>
<text transform="matrix(1 0 0 1 387.6949 235.9325)" class="st6 st4 st7">+x, -y</text>
<rect x="80.2" y="183.3" class="st2" width="241.2" height="66.2"/>
<text transform="matrix(1 0 0 1 80.1981 235.1825)" class="st6 st4 st7">-x, -y</text>
<rect x="77.7" y="467" class="st2" width="241.2" height="66.2"/>
<text transform="matrix(1 0 0 1 77.6981 518.8806)" class="st6 st4 st7">-x, +y</text>
<rect x="386.2" y="467" class="st2" width="241.2" height="66.2"/>
<text transform="matrix(1 0 0 1 386.1949 518.9165)" class="st6 st4 st7">+x, +y</text>
<circle class="st3" cx="347.5" cy="357.5" r="11.9"/>
<rect x="360.2" y="330.3" class="st2" width="105" height="38.8"/>
<text transform="matrix(1 0 0 1 360.243 342.5278)" class="st3 st4 st8">(0, 0)</text>
</svg>
