<?xml version="1.0" encoding="utf-8"?>
<!-- Generator: Adobe Illustrator 19.2.1, SVG Export Plug-In . SVG Version: 6.00 Build 0)  -->
<svg version="1.1" id="Layer_1" xmlns="http://www.w3.org/2000/svg" xmlns:xlink="http://www.w3.org/1999/xlink" x="0px" y="0px"
	 viewBox="0 0 430 255" style="enable-background:new 0 0 430 255;" xml:space="preserve">
<style type="text/css">
	.st0{fill:#4056F4;}
	.st1{fill:#16C4BF;}
	.st2{fill:#FFFFFF;}
</style>
<path class="st0" d="M360.5,149.9c-36.8,0-67.2-29.9-67.2-67.2c0-36.8,29.9-67.2,67.2-67.2c36.8,0,67.2,29.9,67.2,67.2
	S397.3,149.9,360.5,149.9L360.5,149.9z"/>
<path class="st1" d="M232.5,177c-8.7-8.7-8.7-23,0-31.8c8.7-8.7,23-8.7,31.8,0c8.7,8.7,8.7,23,0,31.8c-4.1,4.1-10.1,6.4-15.7,6.4
	C242.7,183.5,236.7,181.2,232.5,177L232.5,177z"/>
<path class="st1" d="M165.3,244.2c-8.7-8.7-8.7-23,0-31.8c8.7-8.7,23-8.7,31.8,0c8.7,8.7,8.7,23,0,31.8c-4.1,4.1-10.1,6.4-15.7,6.4
	C175.5,250.7,169.9,248.4,165.3,244.2L165.3,244.2z"/>
<path class="st1" d="M76,109.8c-8.7-8.7-8.7-23,0-31.8s23-8.7,31.8,0s8.7,23,0,31.8c-4.1,4.1-10.1,6.4-15.7,6.4
	C85.7,116.3,80.2,114,76,109.8L76,109.8z"/>
<path class="st1" d="M120.7,177c-8.7-8.7-8.7-23,0-31.8c8.7-8.7,23-8.7,31.8,0c8.7,8.7,8.7,23,0,31.8c-4.1,4.1-10.1,6.4-15.7,6.4
	C130.8,183.5,124.8,181.2,120.7,177L120.7,177z"/>
<path class="st1" d="M8.8,42.6c-8.7-8.7-8.7-23,0-31.8s23-8.7,31.8,0s8.7,23,0,31.8c-4.1,4.1-10.1,6.4-15.7,6.4
	C19,49.1,13,47.2,8.8,42.6L8.8,42.6z"/>
<g>
	<path class="st2" d="M315.2,99.4c0-0.4,0-0.8,0.1-1.1c0.1-0.3,0.1-0.7,0.2-1c0-0.1,0-0.4-0.1-0.7s-0.1-0.7-0.1-1.1l0.2-8.8v-5.1
		c0-0.8,0-1.8,0-2.7c0-1,0-2,0-3.1c0-1.1,0-2.2,0-3.3s0-2.3,0.1-3.4c0-0.4,0.1-0.7,0.3-1.1c0.2-0.4,0.4-0.7,0.6-1s0.5-0.5,0.8-0.8
		c0.3-0.2,0.6-0.4,0.9-0.4c1.9-0.5,3.8-0.8,5.7-1.1s3.7-0.4,5.4-0.4c0.8,0,1.6,0.1,2.5,0.4c0.9,0.2,1.8,0.6,2.6,1.1
		c0.8,0.5,1.5,1,2,1.7c0.5,0.7,0.8,1.5,0.8,2.4c0,0.6-0.1,1.2-0.3,1.8c-0.2,0.5-0.5,1-0.8,1.5c-0.3,0.5-0.7,0.9-1.1,1.2
		s-0.8,0.7-1.2,1c1.5,0.4,2.9,0.9,4.2,1.6c1.3,0.7,2.4,1.5,3.3,2.5s1.6,2.2,2.1,3.5s0.7,2.9,0.7,4.6c0,2.5-0.4,4.5-1.3,6.1
		c-0.8,1.6-2,3-3.4,4s-3,1.8-4.9,2.3c-1.8,0.5-3.8,0.9-5.8,1.1c-0.8,0.1-1.4,0.2-1.9,0.2s-1,0.1-1.4,0.2s-0.8,0.1-1.2,0.1
		c-0.4,0-0.7,0-1.1,0c-0.2,0-0.4,0-0.6-0.1c-0.2,0-0.5-0.1-0.7-0.1c-0.2,0-0.4,0-0.5,0.1c-0.1,0.1-0.3,0.1-0.4,0.2
		c-0.1,0.1-0.3,0.2-0.5,0.2c-0.2,0.1-0.5,0.1-0.9,0.1s-0.8-0.1-1.3-0.2c-0.5-0.1-0.9-0.3-1.4-0.5c-0.4-0.2-0.8-0.5-1.1-0.9
		C315.4,100.3,315.2,99.9,315.2,99.4z M320.1,76.1c0.5-0.1,1.1-0.3,1.5-0.6c0.5-0.3,1-0.5,1.6-0.7c0.2,0,0.5-0.1,0.8-0.1
		s0.7-0.1,1.1-0.1s0.8-0.1,1.2-0.1s0.8-0.1,1.2-0.1c0.3-0.2,0.8-0.4,1.3-0.6c0.5-0.2,1-0.5,1.6-0.8c0.5-0.3,0.9-0.6,1.3-1
		s0.5-0.8,0.5-1.3c0-0.5-0.4-0.9-1.3-1.2s-2.1-0.5-3.6-0.5c-0.3,0-0.6,0-1,0c-0.4,0-0.9,0.1-1.4,0.2c-0.5,0.1-1.1,0.2-1.6,0.3
		c-0.5,0.1-1,0.3-1.5,0.5s-0.8,0.4-1.1,0.6s-0.4,0.5-0.4,0.8L320.1,76.1z M320.6,96.2c0,0,0.2,0,0.5,0.1s0.7,0.1,1.1,0.1
		c0.4,0,0.8,0,1.2,0.1s0.7,0,0.9,0c1.1,0,2.3,0,3.5-0.1c1.2-0.1,2.3-0.3,3.4-0.5s2.1-0.6,3.1-1c1-0.4,1.8-1,2.5-1.7
		c0.7-0.7,1.3-1.5,1.7-2.5c0.4-1,0.6-2.2,0.6-3.5c0-1.3-0.3-2.5-1-3.5c-0.6-1-1.5-1.9-2.5-2.6c-1-0.7-2.1-1.2-3.4-1.6
		s-2.4-0.5-3.7-0.5c-0.7,0-1.3,0.1-1.8,0.4c-0.5,0.2-1.1,0.5-1.6,0.8c-0.5,0.3-1,0.5-1.4,0.8c-0.5,0.2-0.9,0.4-1.4,0.4
		c-0.2,0-0.5,0-0.7-0.1c-0.3,0-0.5-0.1-0.6-0.1c-0.1,0-0.3,0.1-0.4,0.2c-0.2,0.1-0.3,0.3-0.5,0.4c0,0.4,0,0.9,0,1.3
		c0,0.5,0,0.9,0,1.3c0,1.6,0.1,3.3,0.2,4.9s0.2,3.3,0.2,5c0,0.3,0,0.7,0,1C320.6,95.5,320.6,95.8,320.6,96.2z"/>
	<path class="st2" d="M359.8,98.5c-0.5-0.8-1-1.8-1.6-3c-0.6-1.1-1.2-2.3-1.8-3.6c-0.6-1.3-1.3-2.6-1.9-3.9
		c-0.6-1.3-1.2-2.5-1.8-3.7c-0.6-1.2-1.1-2.2-1.5-3.2c-0.5-1-0.8-1.7-1.1-2.3c-0.3-0.6-0.5-1.2-0.6-1.6c-0.1-0.4-0.2-0.8-0.2-1
		c0-0.4,0.1-0.8,0.2-1.2s0.4-0.7,0.7-0.9c0.3-0.3,0.6-0.5,1-0.6c0.4-0.1,0.7-0.2,1.1-0.2c0.4,0,0.7,0.1,0.9,0.2
		c0.2,0.1,0.4,0.3,0.6,0.5c0.2,0.2,0.3,0.5,0.4,0.7c0.1,0.3,0.2,0.6,0.4,0.9c0.4,1,0.9,2,1.4,3.1c0.5,1.1,1,2.2,1.5,3.4
		c0.5,1.1,1.1,2.3,1.6,3.4c0.5,1.1,1,2.2,1.5,3.2c0.5,1,0.9,1.9,1.3,2.7s0.7,1.5,1,2l10.8-18.6c0.6-0.9,1.3-1.6,2.1-2.2
		s1.8-0.8,2.7-0.8c0.2,0,0.4,0.1,0.6,0.2s0.4,0.3,0.5,0.5c0.1,0.2,0.3,0.4,0.3,0.6c0.1,0.2,0.1,0.4,0.1,0.6c0,0.3,0,0.5-0.1,0.8
		c-0.1,0.2-0.2,0.5-0.5,0.8c-0.2,0.3-0.6,0.8-1,1.3c-0.4,0.5-0.9,1.3-1.6,2.3c-0.7,1-1.5,2.2-2.4,3.6c-0.9,1.5-2.1,3.3-3.3,5.4
		l-6.7,12.3c-0.6,1-1.2,2.2-1.8,3.4c-0.6,1.2-1.2,2.4-1.7,3.6s-0.9,2.3-1.2,3.3c-0.3,1-0.5,1.8-0.5,2.3c0,0.3-0.1,0.7-0.2,1.1
		c-0.1,0.4-0.3,0.7-0.5,1c-0.2,0.3-0.5,0.6-0.8,0.8c-0.3,0.2-0.6,0.3-1,0.3c-0.3,0-0.7-0.1-1.1-0.3c-0.4-0.2-0.8-0.4-1.2-0.7
		c-0.4-0.3-0.7-0.6-1-0.9s-0.4-0.7-0.4-1c0-0.4,0.1-1,0.3-1.7c0.2-0.7,0.4-1.5,0.8-2.3s0.7-1.7,1.1-2.6c0.4-0.9,0.9-1.7,1.4-2.5
		L359.8,98.5z"/>
	<path class="st2" d="M382.5,89c0-2.6,0.4-4.9,1.1-6.9c0.7-2.1,1.8-3.8,3.3-5.3s3.2-2.6,5.3-3.4s4.5-1.2,7.2-1.2
		c0.9,0,1.9,0.1,2.9,0.3c1,0.2,1.9,0.5,2.8,0.9s1.8,0.8,2.6,1.4c0.8,0.6,1.5,1.2,2.1,1.9c0.6,0.7,1.1,1.5,1.4,2.4
		c0.4,0.9,0.5,1.9,0.5,2.9c0,0.8-0.2,1.4-0.5,1.8s-0.8,0.6-1.4,0.8c-0.5,0.1-1.1,0.3-1.8,0.4c-0.7,0.1-1.5,0.3-2.3,0.6l-18,5.6
		c0.2,1.1,0.6,2,1.1,2.8c0.5,0.8,1.2,1.4,1.9,1.9c0.7,0.5,1.5,0.9,2.3,1.2c0.8,0.3,1.7,0.5,2.5,0.7c0.8,0.2,1.7,0.3,2.5,0.3
		c0.8,0,1.5,0.1,2.2,0.1c1,0,2-0.1,3-0.4s1.9-0.5,2.8-0.8c0.8-0.3,1.6-0.5,2.2-0.8c0.6-0.2,1.1-0.4,1.4-0.4c1,0,1.6,0.2,2.1,0.6
		c0.4,0.4,0.7,1.1,0.7,2c0,0.6-0.3,1.1-0.9,1.5s-1.4,0.8-2.3,1.1c-1,0.3-2,0.5-3.2,0.7c-1.2,0.2-2.3,0.3-3.4,0.4
		c-1.1,0.1-2.1,0.1-3,0.2c-0.9,0-1.6,0-2.1,0c-1.2,0-2.5-0.2-3.7-0.5c-1.2-0.3-2.4-0.8-3.5-1.3c-1.1-0.6-2.1-1.3-3.1-2.1
		s-1.8-1.7-2.5-2.7c-0.7-1-1.2-2.1-1.6-3.2C382.7,91.4,382.5,90.2,382.5,89z M387.5,86.9c0.8-0.3,1.8-0.5,2.9-0.9s2.3-0.7,3.5-1
		c1.2-0.4,2.4-0.8,3.7-1.1c1.2-0.4,2.5-0.8,3.6-1.2c1.2-0.4,2.2-0.8,3.2-1.1c1-0.4,1.8-0.7,2.5-1c-0.2-0.7-0.5-1.3-1-1.8
		s-1.1-0.9-1.8-1.2c-0.7-0.3-1.5-0.5-2.5-0.7c-0.9-0.2-2-0.2-3.1-0.2c-0.5,0-1.1,0.1-1.8,0.2c-0.7,0.1-1.4,0.4-2.2,0.7
		s-1.5,0.7-2.3,1.3s-1.5,1.2-2.1,1.9s-1.2,1.6-1.7,2.7C388,84.4,387.7,85.5,387.5,86.9z"/>
</g>
</svg>
