<?xml version="1.0" encoding="utf-8"?>
<!-- Generator: Adobe Illustrator 19.2.1, SVG Export Plug-In . SVG Version: 6.00 Build 0)  -->
<svg version="1.1" id="Layer_1" xmlns="http://www.w3.org/2000/svg" xmlns:xlink="http://www.w3.org/1999/xlink" x="0px" y="0px"
	 viewBox="0 0 385 415" style="enable-background:new 0 0 385 415;" xml:space="preserve">
<style type="text/css">
	.st0{fill:#FFFFFF;}
	.st1{fill:#4056F4;}
	.st2{fill:none;}
	.st3{font-family:'ShortStack';}
	.st4{font-size:24px;}
	.st5{font-family:'Lato-Bold';}
	.st6{font-size:15px;}
	.st7{fill:#16C4BF;}
</style>
<rect x="-12.3" y="-4.3" class="st0" width="408.5" height="433.8"/>
<path class="st0" d="M61,181.1c-31.5,0-57.2-25.7-57.2-57.2c0-31.5,25.7-57.2,57.2-57.2c31.6,0,57.2,25.7,57.2,57.2
	C118.2,155.4,92.6,181.1,61,181.1L61,181.1z"/>
<path class="st1" d="M79.8,153.7c-10.7,0-19.4-8.7-19.4-19.4c0-10.7,8.7-19.4,19.4-19.4c10.7,0,19.4,8.7,19.4,19.4
	C99.2,145,90.5,153.7,79.8,153.7L79.8,153.7z"/>
<path class="st0" d="M220.9,184.7c-31.5,0-57.2-25.7-57.2-57.2c0-31.5,25.7-57.2,57.2-57.2c31.6,0,57.2,25.7,57.2,57.2
	C278.1,159,252.4,184.7,220.9,184.7L220.9,184.7z"/>
<path class="st1" d="M239.7,157.3c-10.7,0-19.4-8.7-19.4-19.4c0-10.7,8.7-19.4,19.4-19.4c10.7,0,19.4,8.7,19.4,19.4
	C259.1,148.6,250.4,157.3,239.7,157.3L239.7,157.3z"/>
<rect x="5.7" y="6.1" class="st2" width="376.5" height="126.6"/>
<text transform="matrix(1 0 0 1 5.7495 23.3555)"><tspan x="0" y="0" class="st0 st3 st4">Step 1: Move left</tspan><tspan x="0" y="27" class="st0 st5 st6">Decrease in x axis value  </tspan></text>
<path class="st0" d="M60,408.1c-31.5,0-57.2-25.7-57.2-57.2c0-31.5,25.7-57.2,57.2-57.2c31.6,0,57.2,25.7,57.2,57.2
	C117.2,382.4,91.6,408.1,60,408.1L60,408.1z"/>
<path class="st1" d="M38.8,380.7c-10.7,0-19.4-8.7-19.4-19.4c0-10.7,8.7-19.4,19.4-19.4c10.7,0,19.4,8.7,19.4,19.4
	C58.2,372,49.5,380.7,38.8,380.7L38.8,380.7z"/>
<path class="st0" d="M219.9,411.7c-31.5,0-57.2-25.7-57.2-57.2c0-31.5,25.7-57.2,57.2-57.2c31.6,0,57.2,25.7,57.2,57.2
	C277.1,386,251.4,411.7,219.9,411.7L219.9,411.7z"/>
<path class="st1" d="M198.7,384.3c-10.7,0-19.4-8.7-19.4-19.4c0-10.7,8.7-19.4,19.4-19.4c10.7,0,19.4,8.7,19.4,19.4
	C218.1,375.5,209.4,384.3,198.7,384.3L198.7,384.3z"/>
<path class="st7" d="M46.6,139c0.8,0,1.4-0.6,1.4-1.4c0-0.8-0.6-1.4-1.4-1.4s-1.4,0.6-1.4,1.4C45.2,138.4,45.8,139,46.6,139z
	 M42.8,139c0.8,0,1.4-0.6,1.4-1.4c0-0.8-0.6-1.4-1.4-1.4c-0.8,0-1.4,0.6-1.4,1.4C41.4,138.4,42,139,42.8,139z M31.5,139
	c0.8,0,1.4-0.6,1.4-1.4c0-0.8-0.6-1.4-1.4-1.4c-0.8,0-1.4,0.6-1.4,1.4C30.1,138.4,30.7,139,31.5,139z M27.7,139
	c0.8,0,1.4-0.6,1.4-1.4c0-0.8-0.6-1.4-1.4-1.4c-0.8,0-1.4,0.6-1.4,1.4C26.3,138.4,26.9,139,27.7,139z M50.4,139
	c0.8,0,1.4-0.6,1.4-1.4c0-0.8-0.6-1.4-1.4-1.4c-0.8,0-1.4,0.6-1.4,1.4C49,138.4,49.6,139,50.4,139z M39.1,139c0.8,0,1.4-0.6,1.4-1.4
	c0-0.8-0.6-1.4-1.4-1.4s-1.4,0.6-1.4,1.4C37.6,138.4,38.3,139,39.1,139z M33.9,137.6c0,0.8,0.6,1.4,1.4,1.4c0.8,0,1.4-0.6,1.4-1.4
	c0-0.8-0.6-1.4-1.4-1.4C34.5,136.2,33.9,136.8,33.9,137.6z M26,135.9c0.6-0.6,0.6-1.4,0-2c-0.6-0.6-1.4-0.6-2,0
	c-0.6,0.6-0.6,1.4,0,2C24.5,136.5,25.4,136.5,26,135.9z M28.6,133.3c0.6-0.6,0.6-1.4,0-2c-0.6-0.6-1.4-0.6-2,0c-0.6,0.6-0.6,1.4,0,2
	C27.2,133.8,28.1,133.8,28.6,133.3z M31.3,130.6c0.6-0.6,0.6-1.4,0-2c-0.6-0.6-1.4-0.6-2,0c-0.6,0.6-0.6,1.4,0,2
	C29.8,131.1,30.7,131.1,31.3,130.6z M34,127.9c0.6-0.6,0.6-1.4,0-2c-0.6-0.6-1.4-0.6-2,0c-0.6,0.6-0.6,1.4,0,2
	C32.5,128.5,33.4,128.5,34,127.9z M20.9,137.7c0,0.1,0,0.1,0,0.2c0,0,0,0,0,0.1c0,0.2,0.1,0.3,0.2,0.5c0.1,0.1,0.1,0.2,0.2,0.2
	c0.1,0.1,0.1,0.1,0.2,0.2c0.5,0.4,1.3,0.3,1.8-0.2c0.3-0.3,0.4-0.6,0.4-1c0-0.4-0.1-0.7-0.4-1c-0.3-0.3-0.6-0.4-1-0.4c0,0,0,0-0.1,0
	c0,0,0,0-0.1,0c-0.3,0-0.7,0.1-0.9,0.4c-0.1,0.1-0.1,0.1-0.2,0.2c-0.1,0.1-0.2,0.3-0.2,0.5c0,0,0,0,0,0.1c0,0.1,0,0.1,0,0.2
	c0,0,0,0.1,0,0.1C20.9,137.6,20.9,137.7,20.9,137.7z M26,139.3c-0.6-0.6-1.4-0.6-2,0c-0.6,0.6-0.6,1.4,0,2c0.6,0.6,1.4,0.6,2,0
	C26.5,140.7,26.5,139.8,26,139.3z M28.6,141.9c-0.6-0.6-1.4-0.6-2,0s-0.6,1.4,0,2c0.6,0.6,1.4,0.6,2,0
	C29.2,143.4,29.2,142.5,28.6,141.9z M31.3,144.6c-0.6-0.6-1.4-0.6-2,0c-0.6,0.6-0.6,1.4,0,2c0.6,0.6,1.4,0.6,2,0
	C31.8,146,31.8,145.1,31.3,144.6z M32,147.3c-0.6,0.6-0.6,1.4,0,2c0.6,0.6,1.4,0.6,2,0c0.6-0.6,0.6-1.4,0-2
	C33.4,146.7,32.5,146.7,32,147.3z"/>
<path class="st7" d="M204.6,140c0.8,0,1.4-0.6,1.4-1.4c0-0.8-0.6-1.4-1.4-1.4c-0.8,0-1.4,0.6-1.4,1.4
	C203.2,139.4,203.8,140,204.6,140z M200.8,140c0.8,0,1.4-0.6,1.4-1.4c0-0.8-0.6-1.4-1.4-1.4c-0.8,0-1.4,0.6-1.4,1.4
	C199.4,139.4,200,140,200.8,140z M189.5,140c0.8,0,1.4-0.6,1.4-1.4c0-0.8-0.6-1.4-1.4-1.4c-0.8,0-1.4,0.6-1.4,1.4
	C188.1,139.4,188.7,140,189.5,140z M185.7,140c0.8,0,1.4-0.6,1.4-1.4c0-0.8-0.6-1.4-1.4-1.4c-0.8,0-1.4,0.6-1.4,1.4
	C184.3,139.4,184.9,140,185.7,140z M208.4,140c0.8,0,1.4-0.6,1.4-1.4c0-0.8-0.6-1.4-1.4-1.4c-0.8,0-1.4,0.6-1.4,1.4
	C207,139.4,207.6,140,208.4,140z M197.1,140c0.8,0,1.4-0.6,1.4-1.4c0-0.8-0.6-1.4-1.4-1.4c-0.8,0-1.4,0.6-1.4,1.4
	C195.6,139.4,196.3,140,197.1,140z M191.9,138.6c0,0.8,0.6,1.4,1.4,1.4s1.4-0.6,1.4-1.4c0-0.8-0.6-1.4-1.4-1.4
	C192.5,137.2,191.9,137.8,191.9,138.6z M184,136.9c0.6-0.6,0.6-1.4,0-2c-0.6-0.6-1.4-0.6-2,0c-0.6,0.6-0.6,1.4,0,2
	C182.5,137.5,183.4,137.5,184,136.9z M186.6,134.3c0.6-0.6,0.6-1.4,0-2c-0.6-0.6-1.4-0.6-2,0c-0.6,0.6-0.6,1.4,0,2
	C185.2,134.8,186.1,134.8,186.6,134.3z M189.3,131.6c0.6-0.6,0.6-1.4,0-2c-0.6-0.6-1.4-0.6-2,0c-0.6,0.6-0.6,1.4,0,2
	C187.8,132.1,188.7,132.1,189.3,131.6z M192,128.9c0.6-0.6,0.6-1.4,0-2c-0.6-0.6-1.4-0.6-2,0c-0.6,0.6-0.6,1.4,0,2
	C190.5,129.5,191.4,129.5,192,128.9z M178.9,138.7c0,0.1,0,0.1,0,0.2c0,0,0,0,0,0.1c0,0.2,0.1,0.3,0.2,0.5c0.1,0.1,0.1,0.2,0.2,0.2
	c0.1,0.1,0.1,0.1,0.2,0.2c0.5,0.4,1.3,0.3,1.8-0.2c0.3-0.3,0.4-0.6,0.4-1c0-0.4-0.1-0.7-0.4-1c-0.3-0.3-0.6-0.4-1-0.4c0,0,0,0-0.1,0
	c0,0,0,0-0.1,0c-0.3,0-0.7,0.1-0.9,0.4c-0.1,0.1-0.1,0.1-0.2,0.2c-0.1,0.1-0.2,0.3-0.2,0.5c0,0,0,0,0,0.1c0,0.1,0,0.1,0,0.2
	c0,0,0,0.1,0,0.1C178.9,138.6,178.9,138.7,178.9,138.7z M184,140.3c-0.6-0.6-1.4-0.6-2,0c-0.6,0.6-0.6,1.4,0,2c0.6,0.6,1.4,0.6,2,0
	C184.5,141.7,184.5,140.8,184,140.3z M186.6,142.9c-0.6-0.6-1.4-0.6-2,0c-0.6,0.6-0.6,1.4,0,2c0.6,0.6,1.4,0.6,2,0
	C187.2,144.4,187.2,143.5,186.6,142.9z M189.3,145.6c-0.6-0.6-1.4-0.6-2,0c-0.6,0.6-0.6,1.4,0,2c0.6,0.6,1.4,0.6,2,0
	C189.8,147,189.8,146.1,189.3,145.6z M190,148.3c-0.6,0.6-0.6,1.4,0,2c0.6,0.6,1.4,0.6,2,0c0.6-0.6,0.6-1.4,0-2
	C191.4,147.7,190.5,147.7,190,148.3z"/>
<rect x="4.7" y="231" class="st2" width="376.5" height="126.6"/>
<text transform="matrix(1 0 0 1 4.7495 248.3315)"><tspan x="0" y="0" class="st0 st3 st4">Step 2: Move right/up</tspan><tspan x="0" y="27" class="st0 st5 st6">Decrease in y axis value, advance x axis value  </tspan></text>
<path class="st7" d="M62.1,339.8c-0.6,0.6-0.6,1.4,0,2c0.6,0.6,1.4,0.6,2,0c0.6-0.6,0.6-1.4,0-2C63.5,339.3,62.6,339.3,62.1,339.8z
	 M64.7,337.2c-0.6,0.6-0.6,1.4,0,2c0.6,0.6,1.4,0.6,2,0c0.6-0.6,0.6-1.4,0-2C66.2,336.6,65.3,336.6,64.7,337.2z M72.7,329.2
	c-0.6,0.6-0.6,1.4,0,2c0.6,0.6,1.4,0.6,2,0c0.6-0.6,0.6-1.4,0-2C74.2,328.6,73.3,328.6,72.7,329.2z M75.4,326.5
	c-0.6,0.6-0.6,1.4,0,2c0.6,0.6,1.4,0.6,2,0c0.6-0.6,0.6-1.4,0-2C76.9,325.9,76,325.9,75.4,326.5z M59.4,342.5c-0.6,0.6-0.6,1.4,0,2
	c0.6,0.6,1.4,0.6,2,0c0.6-0.6,0.6-1.4,0-2C60.8,341.9,60,341.9,59.4,342.5z M67.4,334.5c-0.6,0.6-0.6,1.4,0,2c0.6,0.6,1.4,0.6,2,0
	c0.6-0.6,0.6-1.4,0-2C68.9,333.9,68,333.9,67.4,334.5z M72.1,331.8c-0.6-0.6-1.4-0.6-2,0c-0.6,0.6-0.6,1.4,0,2c0.6,0.6,1.4,0.6,2,0
	C72.6,333.3,72.6,332.4,72.1,331.8z M78.8,327.4c0,0.8,0.6,1.4,1.4,1.4c0.8,0,1.4-0.6,1.4-1.4c0-0.8-0.6-1.4-1.4-1.4
	C79.5,326,78.8,326.6,78.8,327.4z M78.8,331.2c0,0.8,0.6,1.4,1.4,1.4c0.8,0,1.4-0.6,1.4-1.4c0-0.8-0.6-1.4-1.4-1.4
	C79.5,329.8,78.8,330.4,78.8,331.2z M78.8,335c0,0.8,0.6,1.4,1.4,1.4c0.8,0,1.4-0.6,1.4-1.4c0-0.8-0.6-1.4-1.4-1.4
	C79.5,333.5,78.8,334.2,78.8,335z M78.8,338.7c0,0.8,0.6,1.4,1.4,1.4c0.8,0,1.4-0.6,1.4-1.4c0-0.8-0.6-1.4-1.4-1.4
	C79.5,337.3,78.8,338,78.8,338.7z M81.2,322.6c0,0-0.1-0.1-0.1-0.1c0,0,0,0,0,0c-0.1-0.1-0.3-0.2-0.5-0.2c-0.1,0-0.2,0-0.3,0
	c-0.1,0-0.2,0-0.3,0c-0.6,0.1-1.1,0.7-1.1,1.4c0,0.4,0.2,0.7,0.4,1c0.3,0.3,0.6,0.4,1,0.4c0.4,0,0.7-0.1,1-0.4c0,0,0,0,0,0
	c0,0,0,0,0,0c0.2-0.3,0.4-0.6,0.4-1c0-0.1,0-0.2,0-0.3c0-0.2-0.1-0.3-0.2-0.5c0,0,0,0,0,0c0,0-0.1-0.1-0.1-0.1
	C81.3,322.7,81.3,322.7,81.2,322.6C81.2,322.6,81.2,322.6,81.2,322.6z M76.5,325.1c0.8,0,1.4-0.6,1.4-1.4c0-0.8-0.6-1.4-1.4-1.4
	c-0.8,0-1.4,0.6-1.4,1.4C75.1,324.4,75.7,325.1,76.5,325.1z M72.7,325.1c0.8,0,1.4-0.6,1.4-1.4c0-0.8-0.6-1.4-1.4-1.4
	c-0.8,0-1.4,0.6-1.4,1.4S71.9,325.1,72.7,325.1z M68.9,325.1c0.8,0,1.4-0.6,1.4-1.4c0-0.8-0.6-1.4-1.4-1.4c-0.8,0-1.4,0.6-1.4,1.4
	C67.5,324.4,68.2,325.1,68.9,325.1z M66.6,323.6c0-0.8-0.6-1.4-1.4-1.4c-0.8,0-1.4,0.6-1.4,1.4c0,0.8,0.6,1.4,1.4,1.4
	C65.9,325.1,66.6,324.4,66.6,323.6z"/>
<path class="st7" d="M220.1,339.8c-0.6,0.6-0.6,1.4,0,2c0.6,0.6,1.4,0.6,2,0c0.6-0.6,0.6-1.4,0-2
	C221.5,339.3,220.6,339.3,220.1,339.8z M222.7,337.2c-0.6,0.6-0.6,1.4,0,2c0.6,0.6,1.4,0.6,2,0s0.6-1.4,0-2
	C224.2,336.6,223.3,336.6,222.7,337.2z M230.7,329.2c-0.6,0.6-0.6,1.4,0,2c0.6,0.6,1.4,0.6,2,0c0.6-0.6,0.6-1.4,0-2
	C232.2,328.6,231.3,328.6,230.7,329.2z M233.4,326.5c-0.6,0.6-0.6,1.4,0,2c0.6,0.6,1.4,0.6,2,0s0.6-1.4,0-2
	C234.9,325.9,234,325.9,233.4,326.5z M217.4,342.5c-0.6,0.6-0.6,1.4,0,2c0.6,0.6,1.4,0.6,2,0c0.6-0.6,0.6-1.4,0-2
	C218.8,341.9,218,341.9,217.4,342.5z M225.4,334.5c-0.6,0.6-0.6,1.4,0,2c0.6,0.6,1.4,0.6,2,0s0.6-1.4,0-2
	C226.9,333.9,226,333.9,225.4,334.5z M230.1,331.8c-0.6-0.6-1.4-0.6-2,0s-0.6,1.4,0,2c0.6,0.6,1.4,0.6,2,0S230.6,332.4,230.1,331.8z
	 M236.8,327.4c0,0.8,0.6,1.4,1.4,1.4c0.8,0,1.4-0.6,1.4-1.4c0-0.8-0.6-1.4-1.4-1.4C237.5,326,236.8,326.6,236.8,327.4z M236.8,331.2
	c0,0.8,0.6,1.4,1.4,1.4c0.8,0,1.4-0.6,1.4-1.4c0-0.8-0.6-1.4-1.4-1.4C237.5,329.8,236.8,330.4,236.8,331.2z M236.8,335
	c0,0.8,0.6,1.4,1.4,1.4c0.8,0,1.4-0.6,1.4-1.4c0-0.8-0.6-1.4-1.4-1.4C237.5,333.5,236.8,334.2,236.8,335z M236.8,338.7
	c0,0.8,0.6,1.4,1.4,1.4c0.8,0,1.4-0.6,1.4-1.4c0-0.8-0.6-1.4-1.4-1.4C237.5,337.3,236.8,338,236.8,338.7z M239.2,322.6
	c0,0-0.1-0.1-0.1-0.1c0,0,0,0,0,0c-0.1-0.1-0.3-0.2-0.5-0.2c-0.1,0-0.2,0-0.3,0c-0.1,0-0.2,0-0.3,0c-0.6,0.1-1.1,0.7-1.1,1.4
	c0,0.4,0.2,0.7,0.4,1c0.3,0.3,0.6,0.4,1,0.4c0.4,0,0.7-0.1,1-0.4c0,0,0,0,0,0c0,0,0,0,0,0c0.2-0.3,0.4-0.6,0.4-1c0-0.1,0-0.2,0-0.3
	c0-0.2-0.1-0.3-0.2-0.5c0,0,0,0,0,0c0,0-0.1-0.1-0.1-0.1C239.3,322.7,239.3,322.7,239.2,322.6C239.2,322.6,239.2,322.6,239.2,322.6z
	 M234.5,325.1c0.8,0,1.4-0.6,1.4-1.4c0-0.8-0.6-1.4-1.4-1.4c-0.8,0-1.4,0.6-1.4,1.4C233.1,324.4,233.7,325.1,234.5,325.1z
	 M230.7,325.1c0.8,0,1.4-0.6,1.4-1.4s-0.6-1.4-1.4-1.4c-0.8,0-1.4,0.6-1.4,1.4S229.9,325.1,230.7,325.1z M226.9,325.1
	c0.8,0,1.4-0.6,1.4-1.4c0-0.8-0.6-1.4-1.4-1.4c-0.8,0-1.4,0.6-1.4,1.4C225.5,324.4,226.2,325.1,226.9,325.1z M224.6,323.6
	c0-0.8-0.6-1.4-1.4-1.4c-0.8,0-1.4,0.6-1.4,1.4c0,0.8,0.6,1.4,1.4,1.4C223.9,325.1,224.6,324.4,224.6,323.6z"/>
</svg>
