<?xml version="1.0" encoding="utf-8"?>
<!-- Generator: Adobe Illustrator 19.2.1, SVG Export Plug-In . SVG Version: 6.00 Build 0)  -->
<svg version="1.1" id="Layer_1" xmlns="http://www.w3.org/2000/svg" xmlns:xlink="http://www.w3.org/1999/xlink" x="0px" y="0px"
	 viewBox="0 0 300 420" style="enable-background:new 0 0 300 420;" xml:space="preserve">
<style type="text/css">
	.st0{fill:#FFFFFF;}
	.st1{fill:#4056F4;}
	.st2{fill:none;}
	.st3{font-family:'ShortStack';}
	.st4{font-size:24px;}
	.st5{font-family:'Lato-Bold';}
	.st6{font-size:15px;}
	.st7{fill:#16C4BF;}
</style>
<path class="st0" d="M62.1,183.6c-31.5,0-57.2-25.7-57.2-57.2c0-31.5,25.7-57.2,57.2-57.2c31.6,0,57.2,25.7,57.2,57.2
	C119.3,157.9,93.6,183.6,62.1,183.6L62.1,183.6z"/>
<path class="st1" d="M80.9,156.2c-10.7,0-19.4-8.7-19.4-19.4c0-10.7,8.7-19.4,19.4-19.4c10.7,0,19.4,8.7,19.4,19.4
	C100.3,147.5,91.6,156.2,80.9,156.2L80.9,156.2z"/>
<path class="st0" d="M221.9,187.2c-31.5,0-57.2-25.7-57.2-57.2c0-31.5,25.7-57.2,57.2-57.2c31.6,0,57.2,25.7,57.2,57.2
	C279.2,161.5,253.5,187.2,221.9,187.2L221.9,187.2z"/>
<path class="st1" d="M240.7,159.8c-10.7,0-19.4-8.7-19.4-19.4c0-10.7,8.7-19.4,19.4-19.4c10.7,0,19.4,8.7,19.4,19.4
	C260.2,151.1,251.4,159.8,240.7,159.8L240.7,159.8z"/>
<rect x="6.8" y="8.6" class="st2" width="274.1" height="126.6"/>
<text transform="matrix(1 0 0 1 6.8264 25.8555)"><tspan x="0" y="0" class="st0 st3 st4">Step 1: Move left</tspan><tspan x="0" y="27" class="st0 st5 st6">Decrease x axis value  </tspan></text>
<path class="st0" d="M61.1,410.6c-31.5,0-57.2-25.7-57.2-57.2c0-31.5,25.7-57.2,57.2-57.2c31.6,0,57.2,25.7,57.2,57.2
	C118.3,384.9,92.6,410.6,61.1,410.6L61.1,410.6z"/>
<path class="st1" d="M39.9,383.2c-10.7,0-19.4-8.7-19.4-19.4c0-10.7,8.7-19.4,19.4-19.4c10.7,0,19.4,8.7,19.4,19.4
	C59.3,374.5,50.6,383.2,39.9,383.2L39.9,383.2z"/>
<path class="st0" d="M220.9,414.2c-31.5,0-57.2-25.7-57.2-57.2c0-31.5,25.7-57.2,57.2-57.2c31.6,0,57.2,25.7,57.2,57.2
	C278.2,388.5,252.5,414.2,220.9,414.2L220.9,414.2z"/>
<path class="st1" d="M199.7,386.8c-10.7,0-19.4-8.7-19.4-19.4c0-10.7,8.7-19.4,19.4-19.4c10.7,0,19.4,8.7,19.4,19.4
	C219.2,378,210.4,386.8,199.7,386.8L199.7,386.8z"/>
<path class="st7" d="M47.7,141.5c0.8,0,1.4-0.6,1.4-1.4c0-0.8-0.6-1.4-1.4-1.4s-1.4,0.6-1.4,1.4C46.3,140.9,46.9,141.5,47.7,141.5z
	 M43.9,141.5c0.8,0,1.4-0.6,1.4-1.4c0-0.8-0.6-1.4-1.4-1.4s-1.4,0.6-1.4,1.4C42.5,140.9,43.1,141.5,43.9,141.5z M32.6,141.5
	c0.8,0,1.4-0.6,1.4-1.4c0-0.8-0.6-1.4-1.4-1.4c-0.8,0-1.4,0.6-1.4,1.4C31.2,140.9,31.8,141.5,32.6,141.5z M28.8,141.5
	c0.8,0,1.4-0.6,1.4-1.4c0-0.8-0.6-1.4-1.4-1.4c-0.8,0-1.4,0.6-1.4,1.4C27.4,140.9,28,141.5,28.8,141.5z M51.4,141.5
	c0.8,0,1.4-0.6,1.4-1.4c0-0.8-0.6-1.4-1.4-1.4c-0.8,0-1.4,0.6-1.4,1.4C50,140.9,50.7,141.5,51.4,141.5z M40.1,141.5
	c0.8,0,1.4-0.6,1.4-1.4c0-0.8-0.6-1.4-1.4-1.4s-1.4,0.6-1.4,1.4C38.7,140.9,39.3,141.5,40.1,141.5z M34.9,140.1
	c0,0.8,0.6,1.4,1.4,1.4c0.8,0,1.4-0.6,1.4-1.4c0-0.8-0.6-1.4-1.4-1.4S34.9,139.3,34.9,140.1z M27,138.4c0.6-0.6,0.6-1.4,0-2
	c-0.6-0.6-1.4-0.6-2,0c-0.6,0.6-0.6,1.4,0,2C25.6,139,26.5,139,27,138.4z M29.7,135.8c0.6-0.6,0.6-1.4,0-2c-0.6-0.6-1.4-0.6-2,0
	c-0.6,0.6-0.6,1.4,0,2C28.3,136.3,29.2,136.3,29.7,135.8z M32.4,133.1c0.6-0.6,0.6-1.4,0-2c-0.6-0.6-1.4-0.6-2,0
	c-0.6,0.6-0.6,1.4,0,2C30.9,133.6,31.8,133.6,32.4,133.1z M35,130.4c0.6-0.6,0.6-1.4,0-2c-0.6-0.6-1.4-0.6-2,0c-0.6,0.6-0.6,1.4,0,2
	C33.6,131,34.5,131,35,130.4z M22,140.2c0,0.1,0,0.1,0,0.2c0,0,0,0,0,0.1c0,0.2,0.1,0.3,0.2,0.5c0.1,0.1,0.1,0.2,0.2,0.2
	c0.1,0.1,0.1,0.1,0.2,0.2c0.5,0.4,1.3,0.3,1.8-0.2c0.3-0.3,0.4-0.6,0.4-1c0-0.4-0.1-0.7-0.4-1c-0.3-0.3-0.6-0.4-1-0.4c0,0,0,0-0.1,0
	c0,0,0,0-0.1,0c-0.3,0-0.7,0.1-0.9,0.4c-0.1,0.1-0.1,0.1-0.2,0.2c-0.1,0.1-0.2,0.3-0.2,0.5c0,0,0,0,0,0.1c0,0.1,0,0.1,0,0.2
	c0,0,0,0.1,0,0.1C22,140.1,22,140.2,22,140.2z M27,141.8c-0.6-0.6-1.4-0.6-2,0c-0.6,0.6-0.6,1.4,0,2c0.6,0.6,1.4,0.6,2,0
	C27.6,143.2,27.6,142.3,27,141.8z M29.7,144.4c-0.6-0.6-1.4-0.6-2,0s-0.6,1.4,0,2c0.6,0.6,1.4,0.6,2,0
	C30.3,145.9,30.3,145,29.7,144.4z M32.4,147.1c-0.6-0.6-1.4-0.6-2,0c-0.6,0.6-0.6,1.4,0,2c0.6,0.6,1.4,0.6,2,0
	C32.9,148.5,32.9,147.6,32.4,147.1z M33,149.8c-0.6,0.6-0.6,1.4,0,2c0.6,0.6,1.4,0.6,2,0c0.6-0.6,0.6-1.4,0-2
	C34.5,149.2,33.6,149.2,33,149.8z"/>
<path class="st7" d="M205.7,142.5c0.8,0,1.4-0.6,1.4-1.4c0-0.8-0.6-1.4-1.4-1.4c-0.8,0-1.4,0.6-1.4,1.4
	C204.3,141.9,204.9,142.5,205.7,142.5z M201.9,142.5c0.8,0,1.4-0.6,1.4-1.4c0-0.8-0.6-1.4-1.4-1.4c-0.8,0-1.4,0.6-1.4,1.4
	C200.5,141.9,201.1,142.5,201.9,142.5z M190.6,142.5c0.8,0,1.4-0.6,1.4-1.4c0-0.8-0.6-1.4-1.4-1.4c-0.8,0-1.4,0.6-1.4,1.4
	C189.2,141.9,189.8,142.5,190.6,142.5z M186.8,142.5c0.8,0,1.4-0.6,1.4-1.4c0-0.8-0.6-1.4-1.4-1.4c-0.8,0-1.4,0.6-1.4,1.4
	C185.4,141.9,186,142.5,186.8,142.5z M209.4,142.5c0.8,0,1.4-0.6,1.4-1.4c0-0.8-0.6-1.4-1.4-1.4c-0.8,0-1.4,0.6-1.4,1.4
	C208,141.9,208.7,142.5,209.4,142.5z M198.1,142.5c0.8,0,1.4-0.6,1.4-1.4c0-0.8-0.6-1.4-1.4-1.4c-0.8,0-1.4,0.6-1.4,1.4
	C196.7,141.9,197.3,142.5,198.1,142.5z M192.9,141.1c0,0.8,0.6,1.4,1.4,1.4c0.8,0,1.4-0.6,1.4-1.4c0-0.8-0.6-1.4-1.4-1.4
	C193.6,139.7,192.9,140.3,192.9,141.1z M185,139.4c0.6-0.6,0.6-1.4,0-2c-0.6-0.6-1.4-0.6-2,0c-0.6,0.6-0.6,1.4,0,2
	C183.6,140,184.5,140,185,139.4z M187.7,136.8c0.6-0.6,0.6-1.4,0-2c-0.6-0.6-1.4-0.6-2,0c-0.6,0.6-0.6,1.4,0,2
	C186.3,137.3,187.2,137.3,187.7,136.8z M190.4,134.1c0.6-0.6,0.6-1.4,0-2c-0.6-0.6-1.4-0.6-2,0c-0.6,0.6-0.6,1.4,0,2
	C188.9,134.6,189.8,134.6,190.4,134.1z M193,131.4c0.6-0.6,0.6-1.4,0-2c-0.6-0.6-1.4-0.6-2,0c-0.6,0.6-0.6,1.4,0,2
	C191.6,132,192.5,132,193,131.4z M180,141.2c0,0.1,0,0.1,0,0.2c0,0,0,0,0,0.1c0,0.2,0.1,0.3,0.2,0.5c0.1,0.1,0.1,0.2,0.2,0.2
	c0.1,0.1,0.1,0.1,0.2,0.2c0.5,0.4,1.3,0.3,1.8-0.2c0.3-0.3,0.4-0.6,0.4-1c0-0.4-0.1-0.7-0.4-1c-0.3-0.3-0.6-0.4-1-0.4c0,0,0,0-0.1,0
	c0,0,0,0-0.1,0c-0.3,0-0.7,0.1-0.9,0.4c-0.1,0.1-0.1,0.1-0.2,0.2c-0.1,0.1-0.2,0.3-0.2,0.5c0,0,0,0,0,0.1c0,0.1,0,0.1,0,0.2
	c0,0,0,0.1,0,0.1C180,141.1,180,141.2,180,141.2z M185,142.8c-0.6-0.6-1.4-0.6-2,0c-0.6,0.6-0.6,1.4,0,2c0.6,0.6,1.4,0.6,2,0
	C185.6,144.2,185.6,143.3,185,142.8z M187.7,145.4c-0.6-0.6-1.4-0.6-2,0s-0.6,1.4,0,2c0.6,0.6,1.4,0.6,2,0S188.3,146,187.7,145.4z
	 M190.4,148.1c-0.6-0.6-1.4-0.6-2,0c-0.6,0.6-0.6,1.4,0,2c0.6,0.6,1.4,0.6,2,0C190.9,149.5,190.9,148.6,190.4,148.1z M191,150.8
	c-0.6,0.6-0.6,1.4,0,2c0.6,0.6,1.4,0.6,2,0c0.6-0.6,0.6-1.4,0-2C192.5,150.2,191.6,150.2,191,150.8z"/>
<rect x="5.8" y="233.5" class="st2" width="290.3" height="126.6"/>
<text transform="matrix(1 0 0 1 5.8264 250.8315)"><tspan x="0" y="0" class="st0 st3 st4">Step 2: Move right/up</tspan><tspan x="0" y="27" class="st0 st5 st6">Increase x axis value, decrease y axis value  </tspan></text>
<path class="st7" d="M63.1,342.3c-0.6,0.6-0.6,1.4,0,2c0.6,0.6,1.4,0.6,2,0c0.6-0.6,0.6-1.4,0-2C64.6,341.8,63.7,341.8,63.1,342.3z
	 M65.8,339.7c-0.6,0.6-0.6,1.4,0,2c0.6,0.6,1.4,0.6,2,0s0.6-1.4,0-2C67.3,339.1,66.4,339.1,65.8,339.7z M73.8,331.7
	c-0.6,0.6-0.6,1.4,0,2c0.6,0.6,1.4,0.6,2,0c0.6-0.6,0.6-1.4,0-2C75.3,331.1,74.4,331.1,73.8,331.7z M76.5,329c-0.6,0.6-0.6,1.4,0,2
	c0.6,0.6,1.4,0.6,2,0s0.6-1.4,0-2C77.9,328.4,77,328.4,76.5,329z M60.5,345c-0.6,0.6-0.6,1.4,0,2c0.6,0.6,1.4,0.6,2,0
	c0.6-0.6,0.6-1.4,0-2C61.9,344.4,61,344.4,60.5,345z M68.5,337c-0.6,0.6-0.6,1.4,0,2c0.6,0.6,1.4,0.6,2,0s0.6-1.4,0-2
	C69.9,336.4,69,336.4,68.5,337z M73.2,334.3c-0.6-0.6-1.4-0.6-2,0s-0.6,1.4,0,2c0.6,0.6,1.4,0.6,2,0S73.7,334.9,73.2,334.3z
	 M79.9,329.9c0,0.8,0.6,1.4,1.4,1.4c0.8,0,1.4-0.6,1.4-1.4c0-0.8-0.6-1.4-1.4-1.4C80.6,328.5,79.9,329.1,79.9,329.9z M79.9,333.7
	c0,0.8,0.6,1.4,1.4,1.4c0.8,0,1.4-0.6,1.4-1.4c0-0.8-0.6-1.4-1.4-1.4C80.6,332.3,79.9,332.9,79.9,333.7z M79.9,337.5
	c0,0.8,0.6,1.4,1.4,1.4c0.8,0,1.4-0.6,1.4-1.4c0-0.8-0.6-1.4-1.4-1.4C80.6,336,79.9,336.7,79.9,337.5z M79.9,341.2
	c0,0.8,0.6,1.4,1.4,1.4c0.8,0,1.4-0.6,1.4-1.4c0-0.8-0.6-1.4-1.4-1.4C80.6,339.8,79.9,340.5,79.9,341.2z M82.3,325.1
	c0,0-0.1-0.1-0.1-0.1c0,0,0,0,0,0c-0.1-0.1-0.3-0.2-0.5-0.2c-0.1,0-0.2,0-0.3,0c-0.1,0-0.2,0-0.3,0c-0.6,0.1-1.1,0.7-1.1,1.4
	c0,0.4,0.2,0.7,0.4,1s0.6,0.4,1,0.4c0.4,0,0.7-0.1,1-0.4c0,0,0,0,0,0c0,0,0,0,0,0c0.2-0.3,0.4-0.6,0.4-1c0-0.1,0-0.2,0-0.3
	c0-0.2-0.1-0.3-0.2-0.5c0,0,0,0,0,0c0,0-0.1-0.1-0.1-0.1C82.4,325.2,82.4,325.2,82.3,325.1C82.3,325.1,82.3,325.1,82.3,325.1z
	 M77.6,327.6c0.8,0,1.4-0.6,1.4-1.4c0-0.8-0.6-1.4-1.4-1.4c-0.8,0-1.4,0.6-1.4,1.4C76.1,326.9,76.8,327.6,77.6,327.6z M73.8,327.6
	c0.8,0,1.4-0.6,1.4-1.4s-0.6-1.4-1.4-1.4c-0.8,0-1.4,0.6-1.4,1.4S73,327.6,73.8,327.6z M70,327.6c0.8,0,1.4-0.6,1.4-1.4
	c0-0.8-0.6-1.4-1.4-1.4c-0.8,0-1.4,0.6-1.4,1.4C68.6,326.9,69.2,327.6,70,327.6z M67.7,326.1c0-0.8-0.6-1.4-1.4-1.4
	c-0.8,0-1.4,0.6-1.4,1.4c0,0.8,0.6,1.4,1.4,1.4C67,327.6,67.7,326.9,67.7,326.1z"/>
<path class="st7" d="M221.1,342.3c-0.6,0.6-0.6,1.4,0,2c0.6,0.6,1.4,0.6,2,0c0.6-0.6,0.6-1.4,0-2
	C222.6,341.8,221.7,341.8,221.1,342.3z M223.8,339.7c-0.6,0.6-0.6,1.4,0,2c0.6,0.6,1.4,0.6,2,0c0.6-0.6,0.6-1.4,0-2
	C225.3,339.1,224.4,339.1,223.8,339.7z M231.8,331.7c-0.6,0.6-0.6,1.4,0,2c0.6,0.6,1.4,0.6,2,0c0.6-0.6,0.6-1.4,0-2
	C233.3,331.1,232.4,331.1,231.8,331.7z M234.5,329c-0.6,0.6-0.6,1.4,0,2c0.6,0.6,1.4,0.6,2,0c0.6-0.6,0.6-1.4,0-2
	C235.9,328.4,235,328.4,234.5,329z M218.5,345c-0.6,0.6-0.6,1.4,0,2c0.6,0.6,1.4,0.6,2,0c0.6-0.6,0.6-1.4,0-2
	C219.9,344.4,219,344.4,218.5,345z M226.5,337c-0.6,0.6-0.6,1.4,0,2c0.6,0.6,1.4,0.6,2,0c0.6-0.6,0.6-1.4,0-2
	C227.9,336.4,227,336.4,226.5,337z M231.2,334.3c-0.6-0.6-1.4-0.6-2,0s-0.6,1.4,0,2c0.6,0.6,1.4,0.6,2,0
	C231.7,335.8,231.7,334.9,231.2,334.3z M237.9,329.9c0,0.8,0.6,1.4,1.4,1.4c0.8,0,1.4-0.6,1.4-1.4c0-0.8-0.6-1.4-1.4-1.4
	C238.6,328.5,237.9,329.1,237.9,329.9z M237.9,333.7c0,0.8,0.6,1.4,1.4,1.4c0.8,0,1.4-0.6,1.4-1.4c0-0.8-0.6-1.4-1.4-1.4
	C238.6,332.3,237.9,332.9,237.9,333.7z M237.9,337.5c0,0.8,0.6,1.4,1.4,1.4c0.8,0,1.4-0.6,1.4-1.4c0-0.8-0.6-1.4-1.4-1.4
	C238.6,336,237.9,336.7,237.9,337.5z M237.9,341.2c0,0.8,0.6,1.4,1.4,1.4c0.8,0,1.4-0.6,1.4-1.4c0-0.8-0.6-1.4-1.4-1.4
	C238.6,339.8,237.9,340.5,237.9,341.2z M240.3,325.1c0,0-0.1-0.1-0.1-0.1c0,0,0,0,0,0c-0.1-0.1-0.3-0.2-0.5-0.2c-0.1,0-0.2,0-0.3,0
	c-0.1,0-0.2,0-0.3,0c-0.6,0.1-1.1,0.7-1.1,1.4c0,0.4,0.2,0.7,0.4,1s0.6,0.4,1,0.4c0.4,0,0.7-0.1,1-0.4c0,0,0,0,0,0c0,0,0,0,0,0
	c0.2-0.3,0.4-0.6,0.4-1c0-0.1,0-0.2,0-0.3c0-0.2-0.1-0.3-0.2-0.5c0,0,0,0,0,0c0,0-0.1-0.1-0.1-0.1
	C240.4,325.2,240.4,325.2,240.3,325.1C240.3,325.1,240.3,325.1,240.3,325.1z M235.6,327.6c0.8,0,1.4-0.6,1.4-1.4
	c0-0.8-0.6-1.4-1.4-1.4c-0.8,0-1.4,0.6-1.4,1.4C234.1,326.9,234.8,327.6,235.6,327.6z M231.8,327.6c0.8,0,1.4-0.6,1.4-1.4
	c0-0.8-0.6-1.4-1.4-1.4c-0.8,0-1.4,0.6-1.4,1.4C230.4,326.9,231,327.6,231.8,327.6z M228,327.6c0.8,0,1.4-0.6,1.4-1.4
	c0-0.8-0.6-1.4-1.4-1.4c-0.8,0-1.4,0.6-1.4,1.4C226.6,326.9,227.2,327.6,228,327.6z M225.7,326.1c0-0.8-0.6-1.4-1.4-1.4
	c-0.8,0-1.4,0.6-1.4,1.4c0,0.8,0.6,1.4,1.4,1.4C225,327.6,225.7,326.9,225.7,326.1z"/>
</svg>
