<?xml version="1.0" encoding="utf-8"?>
<!-- Generator: Adobe Illustrator 19.2.1, SVG Export Plug-In . SVG Version: 6.00 Build 0)  -->
<svg version="1.1" id="Layer_1" xmlns="http://www.w3.org/2000/svg" xmlns:xlink="http://www.w3.org/1999/xlink" x="0px" y="0px"
	 viewBox="0 0 600 350" style="enable-background:new 0 0 600 350;" xml:space="preserve">
<style type="text/css">
	.st0{fill:#16C4BF;}
	.st1{fill:#8000FF;}
	.st2{fill:#C9C9C9;}
	.st3{fill:#9D9E9D;}
	.st4{fill:#4056F4;}
	.st5{fill:#FFFFFF;}
	.st6{fill:#898989;}
	.st7{fill:#333333;}
	.st8{fill:#82CACD;}
	.st9{fill:#6666FF;}
	.st10{font-family:'DroidSansMono';}
	.st11{font-size:17px;}
</style>
<g>
	<path d="M262.1,261.6c0.2,0.4,0.5,0.8,0.6,1.1C262.5,262.3,262.3,261.9,262.1,261.6z"/>
	<path d="M262.9,262.9L262.9,262.9c0-0.1-0.1-0.1-0.1-0.2C262.8,262.8,262.9,262.9,262.9,262.9z"/>
	<path d="M273.7,271.3c-0.5-0.2-1-0.3-1.5-0.5C272.3,270.8,272.9,271,273.7,271.3z"/>
	<path d="M274.1,271.4L274.1,271.4c-0.1,0-0.2,0-0.2-0.1C273.9,271.3,274,271.3,274.1,271.4z"/>
	<path class="st0" d="M215.2,250.9h-9.7c-0.8,0-1.7,0.1-2.5,0.2c-0.2,0-0.3,0.1-0.5,0.1c3,1.7,5.4,4.2,7,7.3h0.8h5.3
		c4.7,0,8.5,3.8,8.5,8.5s-3.8,8.5-8.5,8.5h-6.1h-1.3H207h-2c-2.1,0-4.1-0.8-5.5-2.1c-0.3-0.3-0.6-0.5-0.8-0.7
		c-0.4-0.5-0.6-0.8-0.6-0.8c-1-1.4-1.5-3.1-1.5-4.9s0.5-3.4,1.4-4.7l0.1-0.1c-1.1-0.9-2.5-1.5-4.1-1.5h-3.2c-0.8,2-1.3,4.1-1.3,6.4
		s0.5,4.4,1.3,6.4c0.2,0.4,0.3,0.7,0.5,1.1c0.2,0.3,0.3,0.6,0.5,0.9c0,0,0,0,0,0.1s0.1,0.1,0.1,0.1c1.8,2.9,4.4,5.1,7.6,6.4
		c0.4,0.2,0.8,0.3,1.2,0.4c0,0,0,0,0.1,0s0.1,0,0.2,0.1c0.2,0.1,0.3,0.1,0.5,0.1c1.3,0.3,2.6,0.5,4,0.5h9.7c8.9,0,16-7.2,16-16
		C231.3,258.1,224.1,250.9,215.2,250.9z"/>
	<path class="st0" d="M183.9,283h9.7c0.8,0,1.7-0.1,2.5-0.2c0.2,0,0.3-0.1,0.5-0.1c-3-1.7-5.4-4.2-7-7.3h-0.8h-5.3
		c-4.7,0-8.5-3.8-8.5-8.5s3.8-8.5,8.5-8.5h6.1h1.3h1.2h2c2.1,0,4,0.8,5.5,2.1c0.3,0.3,0.6,0.5,0.8,0.7c0.4,0.5,0.6,0.8,0.6,0.8
		c1,1.4,1.5,3.1,1.5,4.9s-0.5,3.4-1.4,4.7l-0.1,0.1c1.1,0.9,2.5,1.5,4.1,1.5h3.2c0.8-2,1.3-4.1,1.3-6.4s-0.5-4.4-1.3-6.4
		c-0.2-0.4-0.3-0.7-0.5-1.1c-0.2-0.3-0.3-0.6-0.5-0.9c0,0,0,0,0-0.1l-0.1-0.1c-1.8-2.9-4.5-5.1-7.6-6.4c-0.4-0.2-0.8-0.3-1.2-0.4
		c0,0,0,0-0.1,0s-0.1,0-0.2-0.1c-0.2-0.1-0.3-0.1-0.5-0.1c-1.3-0.3-2.6-0.5-4-0.5h-9.7c-8.9,0-16,7.2-16,16
		C167.9,275.8,175,283,183.9,283z"/>
	<path d="M273.7,271.3C273.8,271.3,273.8,271.3,273.7,271.3C273.8,271.3,273.8,271.3,273.7,271.3z"/>
	<path d="M270.6,258.4c0,0,0.2,0.4,0.8,1C271.1,259.1,270.8,258.7,270.6,258.4z"/>
	<path d="M262.8,262.7C262.7,262.6,262.7,262.6,262.8,262.7C262.7,262.6,262.7,262.6,262.8,262.7z"/>
	<path d="M271.4,259.4L271.4,259.4c0.2,0.3,0.5,0.6,0.9,0.9C272,260,271.7,259.7,271.4,259.4z"/>
	<path class="st1" d="M195.7,88.5c4.1,0.7,6.9,4.7,6.1,8.8c-0.2,1.2-0.7,2.2-1.3,3.1c0,0,0.4,1.1,2.4,1.4c0.8,0.1,2.4,0.5,2.4,0.5
		c0.8-1.3,1.3-2.7,1.6-4.2c1.2-6.7-3.2-13-9.9-14.2l-16.6-3c-6.7-1.2-13,3.2-14.2,9.9c-1.2,6.7,3.2,13,9.9,14.2l15.3,2.8
		c0,0-1.2-1.1-2.1-2.4c-1-1.5-1.4-2.8-1.4-2.8l-10.3-1.9c-4.1-0.7-6.9-4.7-6.1-8.8c0.7-4.1,4.7-6.9,8.8-6.1L195.7,88.5z"/>
	<path class="st1" d="M201.7,104.7c-4.1-0.7-6.9-4.7-6.1-8.8c0.2-1.2,0.7-2.2,1.3-3.1c0,0-0.4-1.1-2.4-1.4c-0.8-0.1-2.4-0.5-2.4-0.5
		c-0.8,1.3-1.3,2.7-1.6,4.2c-1.2,6.7,3.2,13,9.9,14.2L201.7,104.7z"/>
	<path class="st1" d="M225.4,91.7c0.2,3.3-0.5,6.9-9,9.8l1.7,4.9c10.7-3.7,12.8-9,12.7-13.2c0-0.5-0.1-2-0.1-2
		c-0.8-6.7-6.8-11.6-13.5-10.8l-15.5,1.7c0,0,1.5,0.7,2.7,1.7c1.4,1.1,2.2,2.3,2.2,2.3L217,85C221.1,84.6,224.9,87.6,225.4,91.7z"/>
	<path class="st2" d="M563.1,203.5c0,0.7-0.4,1.3-0.9,1.3H458c-0.5,0-0.9-0.6-0.9-1.3v-8.4c0-0.7,0.4-1.3,0.9-1.3h104.1
		c0.5,0,0.9,0.6,0.9,1.3L563.1,203.5L563.1,203.5z"/>
	<circle class="st3" cx="460.5" cy="196.9" r="1.4"/>
	<circle class="st3" cx="464.5" cy="196.9" r="1.4"/>
	<circle class="st3" cx="468.5" cy="196.9" r="1.4"/>
	<path class="st4" d="M563.1,199.7V322c0,0.4-0.1,0.8-0.3,0.8H457.4c-0.2,0-0.3-0.3-0.3-0.8V200.1"/>
	<path class="st0" d="M560.1,325.6h-100c-1.6,0-3-1.6-3-3.7v-2.6c0-2,1.4-3.7,3-3.7h100c1.7,0,3,1.7,3,3.7v2.6
		C563.1,323.9,561.7,325.6,560.1,325.6z"/>
	<path class="st0" d="M560.1,325.6L560.1,325.6l-100,0c-1.6,0-3-1.6-3-3.7v-2.6c0-1,0.3-1.9,0.9-2.6c0.5-0.7,1.3-1.1,2.1-1.1h100
		c1.7,0,3,1.7,3,3.7v2.6c0,1-0.3,1.9-0.9,2.6C561.6,325.2,560.9,325.6,560.1,325.6L560.1,325.6L560.1,325.6c1.6,0,3-1.7,3-3.7v-2.6
		c0-2-1.3-3.8-3-3.8h-100c-1.6,0-3,1.8-3,3.8v2.6c0,2.1,1.4,3.8,3,3.8L560.1,325.6L560.1,325.6z"/>
	<rect x="457.1" y="313.7" class="st4" width="106" height="4.1"/>
	<circle class="st5" cx="492.6" cy="254" r="7.3"/>
	<path class="st5" d="M492.6,246.7v1c1.7,0,3.3,0.7,4.5,1.8c1.1,1.1,1.8,2.7,1.8,4.5c0,1.7-0.7,3.3-1.8,4.5
		c-1.1,1.1-2.7,1.8-4.5,1.8c-1.7,0-3.3-0.7-4.5-1.8c-1.1-1.1-1.8-2.7-1.8-4.5c0-1.7,0.7-3.3,1.8-4.5c1.1-1.1,2.7-1.8,4.5-1.8V246.7
		v-1c-4.6,0-8.3,3.7-8.3,8.3c0,4.6,3.7,8.3,8.3,8.3c4.6,0,8.3-3.7,8.3-8.3c0-4.6-3.7-8.3-8.3-8.3V246.7z"/>
	<circle class="st5" cx="534.8" cy="269.6" r="7.4"/>
	<path class="st5" d="M534.8,262.2v1c1.8,0,3.4,0.7,4.5,1.9c1.2,1.2,1.9,2.8,1.9,4.5c0,1.8-0.7,3.4-1.9,4.5
		c-1.2,1.2-2.8,1.9-4.5,1.9c-1.8,0-3.4-0.7-4.5-1.9c-1.2-1.2-1.9-2.8-1.9-4.5c0-1.8,0.7-3.4,1.9-4.5c1.2-1.2,2.8-1.9,4.5-1.9V262.2
		v-1c-4.6,0-8.4,3.8-8.4,8.4c0,4.6,3.8,8.4,8.4,8.4c4.6,0,8.4-3.8,8.4-8.4c0-4.6-3.8-8.4-8.4-8.4V262.2z"/>
	<circle class="st5" cx="479.3" cy="289.1" r="7.4"/>
	<path class="st5" d="M479.3,281.7v1c1.8,0,3.4,0.7,4.5,1.9c1.2,1.2,1.9,2.8,1.9,4.5c0,1.8-0.7,3.4-1.9,4.5
		c-1.2,1.2-2.8,1.9-4.5,1.9c-1.8,0-3.4-0.7-4.5-1.9c-1.2-1.2-1.9-2.8-1.9-4.5c0-1.8,0.7-3.4,1.9-4.5c1.2-1.2,2.8-1.9,4.5-1.9V281.7
		v-1c-4.6,0-8.4,3.8-8.4,8.4c0,4.6,3.8,8.4,8.4,8.4c4.6,0,8.4-3.8,8.4-8.4c0-4.6-3.8-8.4-8.4-8.4V281.7z"/>
	<rect x="472.4" y="206.3" class="st5" width="75.4" height="2.4"/>
	<rect x="472.4" y="216.5" class="st5" width="75.4" height="2.4"/>
	<rect x="472.8" y="226.5" class="st5" width="75.4" height="2.4"/>
	<path class="st2" d="M563.5,35c0,0.7-0.4,1.3-0.9,1.3H458.4c-0.5,0-0.9-0.6-0.9-1.3v-8.4c0-0.7,0.4-1.3,0.9-1.3h104.1
		c0.5,0,0.9,0.6,0.9,1.3L563.5,35L563.5,35z"/>
	<circle class="st3" cx="460.9" cy="28.4" r="1.4"/>
	<circle class="st3" cx="465" cy="28.4" r="1.4"/>
	<circle class="st3" cx="469" cy="28.4" r="1.4"/>
	<path class="st5" d="M563.5,31.2v122.3c0,0.4-0.1,0.8-0.3,0.8H457.8c-0.2,0-0.3-0.3-0.3-0.8V31.6"/>
	<path class="st6" d="M563.4,31.2v122.3c0,0.2,0,0.4-0.1,0.5c0,0.1-0.1,0.2-0.2,0.2H457.8c-0.1,0-0.1,0-0.2-0.2
		c0-0.1-0.1-0.3-0.1-0.6V31.6h-0.1l0,121.9c0,0.3,0,0.5,0.1,0.6c0.1,0.1,0.1,0.2,0.3,0.2h105.4c0.1,0,0.2-0.1,0.3-0.3
		c0.1-0.2,0.1-0.4,0.1-0.6V31.2H563.4L563.4,31.2z"/>
	<rect x="463.9" y="37.9" width="75.4" height="2.4"/>
	<rect x="464.6" y="67.3" width="24.7" height="2.4"/>
	<rect x="464.6" y="74.5" width="24.7" height="2.4"/>
	<rect x="464.9" y="81.5" width="24.7" height="2.4"/>
	<rect x="463.8" y="48" width="75.4" height="2.4"/>
	<rect x="464.2" y="58" width="75.4" height="2.4"/>
	<path class="st2" d="M142.5,35.1c0,0.7-0.4,1.3-0.9,1.3H37.4c-0.5,0-0.9-0.6-0.9-1.3v-8.4c0-0.7,0.4-1.3,0.9-1.3h104.1
		c0.5,0,0.9,0.6,0.9,1.3v8.4H142.5z"/>
	<circle class="st3" cx="39.9" cy="28.5" r="1.4"/>
	<circle class="st3" cx="44" cy="28.5" r="1.4"/>
	<circle class="st3" cx="48" cy="28.5" r="1.4"/>
	<path class="st7" d="M142.5,31.3v122.3c0,0.4-0.1,0.8-0.3,0.8H36.8c-0.2,0-0.3-0.3-0.3-0.8V31.7"/>
	<path class="st7" d="M142.4,31.3v122.3c0,0.2,0,0.4-0.1,0.5c0,0.1-0.1,0.2-0.2,0.2H36.8c-0.1,0-0.1,0-0.2-0.2
		c0-0.1-0.1-0.3-0.1-0.6V31.7h-0.1l0,121.9c0,0.3,0,0.5,0.1,0.6c0.1,0.1,0.1,0.2,0.3,0.2h105.4c0.1,0,0.2-0.1,0.3-0.3
		c0.1-0.2,0.1-0.4,0.1-0.6V31.3H142.4L142.4,31.3z"/>
	<rect x="42.9" y="37.9" class="st8" width="75.4" height="2.4"/>
	<rect x="47.8" y="48.1" class="st0" width="75.4" height="2.4"/>
	<rect x="43.2" y="58.1" class="st8" width="75.4" height="2.4"/>
	<rect x="45.3" y="78.6" class="st8" width="75.4" height="2.4"/>
	<rect x="50.3" y="88.8" class="st0" width="75.4" height="2.4"/>
	<rect x="45.7" y="98.8" class="st8" width="75.4" height="2.4"/>
	<path class="st2" d="M364.8,35c0,0.7-0.4,1.3-0.9,1.3H259.8c-0.5,0-0.9-0.6-0.9-1.3v-8.4c0-0.7,0.4-1.3,0.9-1.3h104.1
		c0.5,0,0.9,0.6,0.9,1.3V35z"/>
	<circle class="st3" cx="262.2" cy="28.5" r="1.4"/>
	<circle class="st3" cx="266.3" cy="28.5" r="1.4"/>
	<circle class="st3" cx="270.3" cy="28.5" r="1.4"/>
	<path class="st7" d="M364.8,31.2v122.3c0,0.4-0.1,0.8-0.3,0.8H259.1c-0.2,0-0.3-0.3-0.3-0.8V31.6"/>
	<path class="st7" d="M364.7,31.2v122.3c0,0.2,0,0.4-0.1,0.5c0,0.1-0.1,0.2-0.2,0.2H259.1c-0.1,0-0.1,0-0.2-0.2
		c0-0.1-0.1-0.3-0.1-0.6V31.6h-0.1l0,121.9c0,0.3,0,0.5,0.1,0.6c0.1,0.1,0.1,0.2,0.3,0.2h105.4c0.1,0,0.2-0.1,0.3-0.3
		c0.1-0.2,0.1-0.4,0.1-0.6V31.2H364.7L364.7,31.2z"/>
	<rect x="265.2" y="37.9" class="st5" width="41.5" height="2.4"/>
	<rect x="267.9" y="48" class="st9" width="41.5" height="2.4"/>
	<rect x="265.4" y="58" class="st5" width="41.5" height="2.4"/>
	<rect x="266.5" y="78.6" class="st5" width="41.5" height="2.4"/>
	<rect x="269.3" y="88.7" class="st9" width="41.5" height="2.4"/>
	<rect x="266.8" y="98.7" class="st5" width="41.5" height="2.4"/>
	<text transform="matrix(1 0 0 1 60.8062 141.6143)" class="st5 st10 st11">.html</text>
	<text transform="matrix(1 0 0 1 288.9873 139.8037)" class="st5 st10 st11">.css</text>
	<path class="st9" d="M400.8,87.9v-3.4h21v3.4H400.8z M400.8,97.3v-3.4h21v3.4H400.8z"/>
	<path class="st2" d="M143,204c0,0.7-0.4,1.3-0.9,1.3H38c-0.5,0-0.9-0.6-0.9-1.3v-8.4c0-0.7,0.4-1.3,0.9-1.3h104.1
		c0.5,0,0.9,0.6,0.9,1.3V204z"/>
	<circle class="st3" cx="40.4" cy="197.5" r="1.4"/>
	<circle class="st3" cx="44.5" cy="197.5" r="1.4"/>
	<circle class="st3" cx="48.5" cy="197.5" r="1.4"/>
	<path class="st7" d="M143,200.3v122.3c0,0.4-0.1,0.8-0.3,0.8H37.3c-0.2,0-0.3-0.3-0.3-0.8V200.7"/>
	<path class="st7" d="M142.9,200.3v122.3c0,0.2,0,0.4-0.1,0.5c0,0.1-0.1,0.2-0.2,0.2H37.3c-0.1,0-0.1,0-0.2-0.2
		c0-0.1-0.1-0.3-0.1-0.6V200.7h-0.1l0,121.9c0,0.3,0,0.5,0.1,0.6c0.1,0.1,0.1,0.2,0.3,0.2h105.4c0.1,0,0.2-0.1,0.3-0.3
		c0.1-0.2,0.1-0.4,0.1-0.6V200.3H142.9L142.9,200.3z"/>
	<rect x="43.4" y="206.9" class="st8" width="75.4" height="2.4"/>
	<rect x="48.3" y="217.1" class="st0" width="75.4" height="2.4"/>
	<rect x="43.8" y="227.1" class="st8" width="75.4" height="2.4"/>
	<rect x="45.9" y="247.6" class="st8" width="75.4" height="2.4"/>
	<rect x="50.8" y="257.7" class="st0" width="75.4" height="2.4"/>
	<rect x="46.2" y="267.7" class="st8" width="75.4" height="2.4"/>
	<path class="st2" d="M365.3,204c0,0.7-0.4,1.3-0.9,1.3H260.3c-0.5,0-0.9-0.6-0.9-1.3v-8.4c0-0.7,0.4-1.3,0.9-1.3h104.1
		c0.5,0,0.9,0.6,0.9,1.3V204z"/>
	<circle class="st3" cx="262.8" cy="197.4" r="1.4"/>
	<circle class="st3" cx="266.8" cy="197.4" r="1.4"/>
	<circle class="st3" cx="270.8" cy="197.4" r="1.4"/>
	<path class="st7" d="M365.3,200.2v122.3c0,0.4-0.1,0.8-0.3,0.8H259.6c-0.2,0-0.3-0.3-0.3-0.8V200.6"/>
	<path class="st7" d="M365.2,200.2v122.3c0,0.2,0,0.4-0.1,0.5c0,0.1-0.1,0.2-0.2,0.2H259.6c-0.1,0-0.1,0-0.2-0.2
		c0-0.1-0.1-0.3-0.1-0.6V200.6h-0.1l0,121.9c0,0.3,0,0.5,0.1,0.6c0.1,0.1,0.1,0.2,0.3,0.2H365c0.1,0,0.2-0.1,0.3-0.3
		c0.1-0.2,0.1-0.4,0.1-0.6V200.2H365.2L365.2,200.2z"/>
	<rect x="265.7" y="206.9" class="st5" width="41.5" height="2.4"/>
	<rect x="268.4" y="217" class="st9" width="41.5" height="2.4"/>
	<rect x="265.9" y="227" class="st5" width="41.5" height="2.4"/>
	<rect x="267.1" y="247.6" class="st5" width="41.5" height="2.4"/>
	<rect x="269.8" y="257.7" class="st9" width="41.5" height="2.4"/>
	<rect x="267.3" y="267.7" class="st5" width="41.5" height="2.4"/>
	<text transform="matrix(1 0 0 1 61.3228 310.5938)" class="st5 st10 st11">.html</text>
	<text transform="matrix(1 0 0 1 289.5039 308.7832)" class="st5 st10 st11">.css</text>
	<path class="st9" d="M400.8,263.7v-3.4h21v3.4H400.8z M400.8,273.1v-3.4h21v3.4H400.8z"/>
</g>
</svg>
