<?xml version="1.0" encoding="utf-8"?>
<!-- Generator: Adobe Illustrator 19.2.1, SVG Export Plug-In . SVG Version: 6.00 Build 0)  -->
<svg version="1.1" id="Layer_1" xmlns="http://www.w3.org/2000/svg" xmlns:xlink="http://www.w3.org/1999/xlink" x="0px" y="0px"
	 viewBox="0 0 1165 170" style="enable-background:new 0 0 1165 170;" xml:space="preserve">
<style type="text/css">
	.st0{opacity:0.3;fill:#8000FF;}
	.st1{fill:#4056F4;}
	.st2{fill:#16C4BF;}
	.st3{fill:#8000FF;}
	.st4{fill:#6666FF;}
	.st5{opacity:0.5;fill:#16C4BF;}
	.st6{fill:none;stroke:#16C4BF;stroke-width:8;stroke-linecap:round;stroke-miterlimit:10;stroke-dasharray:0.2,15;}
</style>
<path class="st0" d="M503.1,166.6c-45.3,0-82.1-36.8-82.1-82.1c0-45.3,36.8-82.1,82.1-82.1c45.3,0,82.1,36.8,82.1,82.1
	C585.2,129.8,548.3,166.6,503.1,166.6L503.1,166.6z"/>
<path class="st0" d="M503.1,155.1c-38.9,0-70.6-31.7-70.6-70.6c0-38.9,31.7-70.6,70.6-70.6c38.9,0,70.6,31.7,70.6,70.6
	C573.7,123.4,542,155.1,503.1,155.1L503.1,155.1z"/>
<path class="st1" d="M242.4,100.5c-24.7,0-44.7-20.1-44.7-44.7c0-24.7,20.1-44.7,44.7-44.7c24.7,0,44.7,20.1,44.7,44.7
	C287.1,80.4,267,100.5,242.4,100.5L242.4,100.5z"/>
<path class="st2" d="M157.3,118.5c-5.8-5.9-5.8-15.3,0.1-21.1c5.9-5.8,15.3-5.8,21.1,0.1c5.8,5.9,5.7,15.3-0.1,21.1
	c-2.9,2.9-6.7,4.3-10.5,4.3C164,122.9,160.1,121.4,157.3,118.5L157.3,118.5z"/>
<path class="st2" d="M112.5,163.2c-5.8-5.9-5.8-15.3,0.1-21.1c5.9-5.8,15.3-5.8,21.1,0.1c5.8,5.9,5.7,15.3-0.1,21.1
	c-2.9,2.9-6.7,4.3-10.5,4.3C119.2,167.6,115.4,166.2,112.5,163.2L112.5,163.2z"/>
<path class="st2" d="M52.9,73.8c-5.8-5.9-5.8-15.3,0.1-21.1c5.9-5.8,15.3-5.8,21.1,0.1c5.8,5.9,5.7,15.3-0.1,21.1
	c-2.9,2.9-6.7,4.3-10.5,4.3C59.6,78.1,55.8,76.7,52.9,73.8L52.9,73.8z"/>
<path class="st2" d="M82.7,118.5c-5.8-5.9-5.8-15.3,0.1-21.1c5.9-5.8,15.3-5.8,21.1,0.1c5.8,5.9,5.7,15.3-0.1,21.1
	c-2.9,2.9-6.7,4.3-10.5,4.3C89.4,122.9,85.6,121.4,82.7,118.5L82.7,118.5z"/>
<path class="st2" d="M8.2,29C2.3,23.2,2.4,13.7,8.2,7.9C14.1,2.1,23.5,2.1,29.3,8c5.8,5.9,5.7,15.3-0.1,21.1
	c-2.9,2.9-6.7,4.3-10.5,4.3C14.9,33.4,11,32,8.2,29L8.2,29z"/>
<path class="st3" d="M503.1,140.6c-30.9,0-56.1-25.2-56.1-56.1c0-30.9,25.2-56.1,56.1-56.1c31,0,56.1,25.2,56.1,56.1
	C559.2,115.5,534,140.6,503.1,140.6L503.1,140.6z"/>
<circle class="st4" cx="799.6" cy="37.6" r="36"/>
<circle class="st4" cx="821.6" cy="131.4" r="36"/>
<circle class="st4" cx="923.4" cy="131.4" r="36"/>
<circle class="st4" cx="1025.3" cy="131.4" r="36"/>
<path class="st2" d="M1148.2,136c2,0,3.5-1.6,3.5-3.5c0-2-1.6-3.5-3.5-3.5s-3.5,1.6-3.5,3.5C1144.6,134.4,1146.2,136,1148.2,136z
	 M1138.7,136c2,0,3.5-1.6,3.5-3.5c0-2-1.6-3.5-3.5-3.5s-3.5,1.6-3.5,3.5C1135.2,134.4,1136.8,136,1138.7,136z M1110.3,136
	c2,0,3.5-1.6,3.5-3.5c0-2-1.6-3.5-3.5-3.5s-3.5,1.6-3.5,3.5C1106.8,134.4,1108.4,136,1110.3,136z M1100.9,136c2,0,3.5-1.6,3.5-3.5
	c0-2-1.6-3.5-3.5-3.5s-3.5,1.6-3.5,3.5C1097.3,134.4,1098.9,136,1100.9,136z M1157.6,136c2,0,3.5-1.6,3.5-3.5c0-2-1.6-3.5-3.5-3.5
	s-3.5,1.6-3.5,3.5C1154.1,134.4,1155.7,136,1157.6,136z M1129.3,136c2,0,3.5-1.6,3.5-3.5c0-2-1.6-3.5-3.5-3.5s-3.5,1.6-3.5,3.5
	C1125.7,134.4,1127.3,136,1129.3,136z M1116.2,132.5c0,2,1.6,3.5,3.5,3.5c2,0,3.5-1.6,3.5-3.5c0-2-1.6-3.5-3.5-3.5
	C1117.8,128.9,1116.2,130.5,1116.2,132.5z M1096.4,128.3c1.4-1.4,1.4-3.6,0-5c-1.4-1.4-3.6-1.4-5,0c-1.4,1.4-1.4,3.6,0,5
	C1092.8,129.7,1095,129.7,1096.4,128.3z M1103.1,121.6c1.4-1.4,1.4-3.6,0-5c-1.4-1.4-3.6-1.4-5,0c-1.4,1.4-1.4,3.6,0,5
	C1099.5,123,1101.7,123,1103.1,121.6z M1109.8,114.9c1.4-1.4,1.4-3.6,0-5c-1.4-1.4-3.6-1.4-5,0c-1.4,1.4-1.4,3.6,0,5
	C1106.2,116.3,1108.4,116.3,1109.8,114.9z M1116.5,108.2c1.4-1.4,1.4-3.6,0-5c-1.4-1.4-3.6-1.4-5,0c-1.4,1.4-1.4,3.6,0,5
	C1112.9,109.6,1115.1,109.6,1116.5,108.2z M1083.7,132.7c0,0.1,0,0.3,0,0.4c0,0,0,0.1,0,0.1c0.1,0.4,0.2,0.8,0.5,1.1
	c0.1,0.2,0.3,0.4,0.5,0.6c0.2,0.2,0.4,0.3,0.6,0.5c1.4,0.9,3.2,0.8,4.5-0.5c0.7-0.7,1-1.6,1-2.5c0-0.9-0.3-1.8-1-2.5
	c-0.7-0.7-1.5-1-2.4-1c0,0-0.1,0-0.1,0c0,0-0.1,0-0.1,0c-0.9,0-1.7,0.4-2.4,1c-0.2,0.2-0.3,0.4-0.5,0.6c-0.2,0.4-0.4,0.7-0.5,1.1
	c0,0,0,0.1,0,0.1c0,0.1,0,0.3,0,0.4c0,0.1,0,0.2,0,0.3C1083.7,132.5,1083.7,132.6,1083.7,132.7z M1096.4,136.6c-1.4-1.4-3.6-1.4-5,0
	c-1.4,1.4-1.4,3.6,0,5c1.4,1.4,3.6,1.4,5,0C1097.8,140.3,1097.8,138,1096.4,136.6z M1103.1,143.3c-1.4-1.4-3.6-1.4-5,0
	c-1.4,1.4-1.4,3.6,0,5c1.4,1.4,3.6,1.4,5,0C1104.5,147,1104.5,144.7,1103.1,143.3z M1109.8,150c-1.4-1.4-3.6-1.4-5,0
	c-1.4,1.4-1.4,3.6,0,5c1.4,1.4,3.6,1.4,5,0C1111.2,153.6,1111.2,151.4,1109.8,150z M1111.5,156.7c-1.4,1.4-1.4,3.6,0,5
	c1.4,1.4,3.6,1.4,5,0c1.4-1.4,1.4-3.6,0-5C1115.1,155.3,1112.9,155.3,1111.5,156.7z"/>
<path class="st5" d="M436.2,86.7c1.4,0,2.5-1.1,2.5-2.5c0-1.4-1.1-2.5-2.5-2.5c-1.4,0-2.5,1.1-2.5,2.5
	C433.7,85.6,434.8,86.7,436.2,86.7z M429.5,86.7c1.4,0,2.5-1.1,2.5-2.5c0-1.4-1.1-2.5-2.5-2.5s-2.5,1.1-2.5,2.5
	C427,85.6,428.1,86.7,429.5,86.7z M409.5,86.7c1.4,0,2.5-1.1,2.5-2.5c0-1.4-1.1-2.5-2.5-2.5c-1.4,0-2.5,1.1-2.5,2.5
	C407,85.6,408.1,86.7,409.5,86.7z M402.8,86.7c1.4,0,2.5-1.1,2.5-2.5c0-1.4-1.1-2.5-2.5-2.5s-2.5,1.1-2.5,2.5
	C400.3,85.6,401.4,86.7,402.8,86.7z M442.9,86.7c1.4,0,2.5-1.1,2.5-2.5c0-1.4-1.1-2.5-2.5-2.5s-2.5,1.1-2.5,2.5
	C440.3,85.6,441.5,86.7,442.9,86.7z M422.8,86.7c1.4,0,2.5-1.1,2.5-2.5c0-1.4-1.1-2.5-2.5-2.5c-1.4,0-2.5,1.1-2.5,2.5
	C420.3,85.6,421.4,86.7,422.8,86.7z M413.7,84.2c0,1.4,1.1,2.5,2.5,2.5s2.5-1.1,2.5-2.5c0-1.4-1.1-2.5-2.5-2.5
	S413.7,82.8,413.7,84.2z M399.7,81.3c1-1,1-2.6,0-3.5c-1-1-2.6-1-3.5,0c-1,1-1,2.6,0,3.5C397.1,82.2,398.7,82.2,399.7,81.3z
	 M404.4,76.5c1-1,1-2.6,0-3.5c-1-1-2.6-1-3.5,0c-1,1-1,2.6,0,3.5C401.8,77.5,403.4,77.5,404.4,76.5z M409.1,71.8c1-1,1-2.6,0-3.5
	c-1-1-2.6-1-3.5,0c-1,1-1,2.6,0,3.5C406.5,72.8,408.1,72.8,409.1,71.8z M413.8,67.1c1-1,1-2.6,0-3.5c-1-1-2.6-1-3.5,0
	c-1,1-1,2.6,0,3.5C411.3,68.1,412.8,68.1,413.8,67.1z M390.7,84.4c0,0.1,0,0.2,0,0.3c0,0,0,0.1,0,0.1c0.1,0.3,0.2,0.6,0.3,0.8
	c0.1,0.1,0.2,0.3,0.3,0.4c0.1,0.1,0.3,0.2,0.4,0.3c1,0.6,2.3,0.5,3.1-0.3c0.5-0.5,0.7-1.1,0.7-1.8c0-0.6-0.2-1.3-0.7-1.8
	c-0.5-0.5-1.1-0.7-1.7-0.7c0,0-0.1,0-0.1,0c0,0-0.1,0-0.1,0c-0.6,0-1.2,0.3-1.7,0.7c-0.1,0.1-0.2,0.3-0.3,0.4
	c-0.2,0.3-0.3,0.5-0.3,0.8c0,0,0,0.1,0,0.1c0,0.1,0,0.2,0,0.3c0,0.1,0,0.1,0,0.2C390.7,84.3,390.7,84.3,390.7,84.4z M399.7,87.2
	c-1-1-2.6-1-3.5,0c-1,1-1,2.6,0,3.5c1,1,2.6,1,3.5,0C400.6,89.7,400.6,88.1,399.7,87.2z M404.4,91.9c-1-1-2.6-1-3.5,0
	c-1,1-1,2.6,0,3.5c1,1,2.6,1,3.5,0S405.4,92.9,404.4,91.9z M409.1,96.6c-1-1-2.6-1-3.5,0c-1,1-1,2.6,0,3.5c1,1,2.6,1,3.5,0
	C410.1,99.2,410.1,97.6,409.1,96.6z M410.3,101.3c-1,1-1,2.6,0,3.5c1,1,2.6,1,3.5,0c1-1,1-2.6,0-3.5
	C412.8,100.3,411.3,100.3,410.3,101.3z"/>
<path class="st5" d="M572.4,84.2c0-1.4-1.1-2.5-2.5-2.5s-2.5,1.1-2.5,2.5c0,1.4,1.1,2.5,2.5,2.5S572.4,85.6,572.4,84.2z M579,84.2
	c0-1.4-1.1-2.5-2.5-2.5c-1.4,0-2.5,1.1-2.5,2.5c0,1.4,1.1,2.5,2.5,2.5C577.9,86.7,579,85.6,579,84.2z M599.1,84.2
	c0-1.4-1.1-2.5-2.5-2.5s-2.5,1.1-2.5,2.5c0,1.4,1.1,2.5,2.5,2.5S599.1,85.6,599.1,84.2z M605.7,84.2c0-1.4-1.1-2.5-2.5-2.5
	s-2.5,1.1-2.5,2.5c0,1.4,1.1,2.5,2.5,2.5S605.7,85.6,605.7,84.2z M565.7,84.2c0-1.4-1.1-2.5-2.5-2.5s-2.5,1.1-2.5,2.5
	c0,1.4,1.1,2.5,2.5,2.5S565.7,85.6,565.7,84.2z M585.7,84.2c0-1.4-1.1-2.5-2.5-2.5s-2.5,1.1-2.5,2.5c0,1.4,1.1,2.5,2.5,2.5
	S585.7,85.6,585.7,84.2z M589.9,81.7c-1.4,0-2.5,1.1-2.5,2.5c0,1.4,1.1,2.5,2.5,2.5s2.5-1.1,2.5-2.5
	C592.4,82.8,591.3,81.7,589.9,81.7z M609.9,81.3c1-1,1-2.6,0-3.5c-1-1-2.6-1-3.5,0c-1,1-1,2.6,0,3.5
	C607.3,82.2,608.9,82.2,609.9,81.3z M605.2,76.5c1-1,1-2.6,0-3.5c-1-1-2.6-1-3.5,0c-1,1-1,2.6,0,3.5
	C602.6,77.5,604.2,77.5,605.2,76.5z M600.5,71.8c1-1,1-2.6,0-3.5c-1-1-2.6-1-3.5,0c-1,1-1,2.6,0,3.5
	C597.9,72.8,599.5,72.8,600.5,71.8z M595.7,67.1c1-1,1-2.6,0-3.5c-1-1-2.6-1-3.5,0c-1,1-1,2.6,0,3.5
	C593.2,68.1,594.8,68.1,595.7,67.1z M615.4,84.2c0-0.1,0-0.1,0-0.2c0-0.1,0-0.2,0-0.3c0,0,0-0.1,0-0.1c-0.1-0.3-0.2-0.6-0.3-0.8
	c-0.1-0.1-0.2-0.3-0.3-0.4c-0.5-0.5-1.1-0.7-1.7-0.7c0,0-0.1,0-0.1,0c0,0-0.1,0-0.1,0c-0.6,0-1.2,0.3-1.7,0.7
	c-0.5,0.5-0.7,1.1-0.7,1.8c0,0.6,0.2,1.3,0.7,1.8c0.9,0.9,2.2,1,3.1,0.3c0.1-0.1,0.3-0.2,0.4-0.3c0.1-0.1,0.2-0.3,0.3-0.4
	c0.2-0.3,0.3-0.5,0.3-0.8c0,0,0-0.1,0-0.1c0-0.1,0-0.2,0-0.3C615.3,84.3,615.4,84.3,615.4,84.2z M606.4,90.7c1,1,2.6,1,3.5,0
	c1-1,1-2.6,0-3.5c-1-1-2.6-1-3.5,0C605.4,88.1,605.4,89.7,606.4,90.7z M601.6,95.4c1,1,2.6,1,3.5,0c1-1,1-2.6,0-3.5
	c-1-1-2.6-1-3.5,0C600.7,92.9,600.7,94.4,601.6,95.4z M596.9,100.1c1,1,2.6,1,3.5,0c1-1,1-2.6,0-3.5c-1-1-2.6-1-3.5,0
	C595.9,97.6,595.9,99.2,596.9,100.1z M592.2,101.3c-1,1-1,2.6,0,3.5c1,1,2.6,1,3.5,0c1-1,1-2.6,0-3.5
	C594.8,100.3,593.2,100.3,592.2,101.3z"/>
<path class="st6" d="M760.2,62.6c0,0-18,19-20,77"/>
</svg>
