<?xml version="1.0" encoding="utf-8"?>
<!-- Generator: Adobe Illustrator 21.0.0, SVG Export Plug-In . SVG Version: 6.00 Build 0)  -->
<svg version="1.1" id="Layer_1" xmlns="http://www.w3.org/2000/svg" xmlns:xlink="http://www.w3.org/1999/xlink" x="0px" y="0px"
	 viewBox="0 0 165 105" style="enable-background:new 0 0 165 105;" xml:space="preserve">
<style type="text/css">
	.st0{fill:#8000FF;}
	.st1{fill:#4056F4;}
	.st2{fill:#16C4BF;}
</style>
<path class="st0" d="M4.1,33.8V2.5h12.2c9,0,14.1,6.8,14.1,15.7c0,8.8-5.1,15.6-14.1,15.6H4.1z M10.7,27.8h5.6c5,0,7.5-4.4,7.5-9.5
	c0-5.2-2.5-9.6-7.5-9.6h-5.6C10.7,8.6,10.7,27.8,10.7,27.8z"/>
<path class="st0" d="M72.4,2.5h23.5v6h-8.4v25.2h-6.7V8.6h-8.4V2.5z"/>
<path class="st1" d="M4.1,71.9V40.8h12.2c9,0,14.1,6.8,14.1,15.7c0,8.8-5.1,15.5-14.1,15.5L4.1,71.9L4.1,71.9z M10.7,65.9h5.6
	c5,0,7.5-4.4,7.5-9.5c0-5.2-2.5-9.6-7.5-9.6h-5.6C10.7,46.9,10.7,65.9,10.7,65.9z"/>
<path class="st1" d="M111.3,71.9V40.8h12.2c9,0,14.1,6.8,14.1,15.7c0,8.8-5.1,15.5-14.1,15.5L111.3,71.9L111.3,71.9z M117.9,65.9
	h5.6c5,0,7.5-4.4,7.5-9.5c0-5.2-2.5-9.6-7.5-9.6h-5.6C117.9,46.8,117.9,65.9,117.9,65.9z"/>
<path class="st1" d="M143.2,40.8h6.6V66h11.7v5.9h-18.3V40.8z"/>
<circle class="st0" cx="51.8" cy="18.8" r="16.1"/>
<circle class="st1" cx="51.8" cy="56.4" r="16.1"/>
<circle class="st1" cx="89.2" cy="56.4" r="16.1"/>
<g>
	<path class="st2" d="M3.5,98.3c0-0.1,0-0.2,0-0.4s0.1-0.4,0.1-0.7c0-0.2,0.1-0.5,0.1-0.7s0-0.5,0-0.6V83.2c0-0.2,0-0.4,0-0.7
		c0-0.3,0-0.6,0-0.9c0-0.3,0.1-0.7,0.1-1C4,80.3,4.1,80,4.3,79.7s0.3-0.5,0.4-0.7c0.2-0.2,0.4-0.3,0.7-0.3c0.3,0,0.5,0,0.8,0.1
		C6.5,79,6.7,79,7,79.1s0.5,0.1,0.8,0.2c0.3,0,0.5,0.1,0.8,0.1h8.1c0.1,0,0.2,0,0.4,0c0.2,0,0.4-0.1,0.6-0.1c0.2,0,0.4-0.1,0.6-0.1
		c0.2,0,0.3,0,0.4,0c0.2,0,0.4,0.1,0.7,0.2c0.2,0.1,0.5,0.3,0.7,0.5c0.2,0.2,0.4,0.4,0.5,0.6c0.1,0.2,0.2,0.5,0.2,0.7
		c0,0.5-0.1,0.8-0.4,1.1c-0.2,0.2-0.6,0.4-1.1,0.4c-0.1,0-0.3,0-0.5-0.1c-0.3,0-0.6-0.1-0.9-0.2c-0.3-0.1-0.6-0.1-0.9-0.2
		c-0.3-0.1-0.4-0.1-0.5-0.1c-0.1,0-0.2,0-0.5,0s-0.7,0-1.1,0s-1,0-1.5,0c-0.6,0-1.1,0-1.7,0c-1.4,0-2.9,0.1-4.6,0.1
		c-0.1,0-0.2,0-0.2,0.1c-0.1,0.1-0.1,0.1-0.1,0.2c0,0.3-0.1,0.6-0.1,0.9s0,0.6,0,0.9c0,0.4,0,0.8,0,1.3c0,0.5,0,1.2,0,2
		c0,0.1,0,0.2,0.1,0.3C6.7,88,6.8,88,6.9,88.1c0.1,0,0.2,0.1,0.4,0.1s0.3,0,0.4,0c1,0,2-0.1,3-0.2s2.1-0.3,3.1-0.4
		c0.2,0,0.3-0.1,0.5-0.1c0.2,0,0.3-0.1,0.5-0.1c0.2,0,0.4-0.1,0.5-0.1c0.2,0,0.4,0,0.6,0c0.3,0,0.6,0.1,0.7,0.2s0.3,0.3,0.4,0.5
		c0.1,0.2,0.1,0.3,0.1,0.5s0,0.3,0,0.4c0,0.4-0.1,0.7-0.2,0.9c-0.1,0.2-0.3,0.4-0.6,0.5s-0.6,0.2-1,0.2c-0.4,0-0.8,0.1-1.3,0.1
		c-0.6,0-1.3,0-1.9,0.1c-0.6,0.1-1.2,0.1-1.9,0.2c-0.6,0.1-1.3,0.2-1.9,0.2s-1.3,0.1-1.9,0.1c0,0.3,0,0.6,0,0.8c0,0.2,0,0.3,0,0.3
		c0,0.9,0,1.9,0.1,2.9c0,1,0.1,2.1,0.1,3.2c0,0.2,0,0.5,0,0.7c0,0.3-0.1,0.5-0.2,0.7c-0.1,0.2-0.2,0.4-0.4,0.5
		c-0.2,0.1-0.4,0.2-0.7,0.2c-0.4,0-0.7-0.1-0.9-0.2c-0.3-0.1-0.5-0.3-0.6-0.5c-0.2-0.2-0.3-0.4-0.3-0.7S3.5,98.6,3.5,98.3z"/>
	<path class="st2" d="M23.2,89.7c0-1.4,0.2-2.6,0.5-3.7c0.3-1.1,0.7-2.1,1.3-2.9c0.5-0.8,1.2-1.5,1.9-2.1s1.5-1.1,2.4-1.5
		c0.9-0.4,1.8-0.7,2.7-0.8c1-0.2,1.9-0.3,2.9-0.3c1.7,0,3.2,0.3,4.5,0.8s2.5,1.3,3.4,2.3s1.6,2.3,2.1,3.7c0.5,1.5,0.7,3.1,0.7,4.9
		c0,1.1-0.1,2.1-0.4,3c-0.3,0.9-0.7,1.8-1.2,2.6c-0.5,0.8-1.1,1.5-1.8,2.1c-0.7,0.6-1.4,1.2-2.3,1.6c-0.8,0.4-1.7,0.8-2.6,1
		c-0.9,0.2-1.8,0.4-2.8,0.4c-1,0-2-0.2-2.9-0.5s-1.8-0.8-2.7-1.3c-0.8-0.6-1.6-1.2-2.3-1.9c-0.7-0.7-1.3-1.5-1.8-2.4
		c-0.5-0.8-0.9-1.7-1.2-2.6S23.2,90.6,23.2,89.7z M26.1,89.3c0,0.7,0.1,1.4,0.3,2.2c0.2,0.7,0.5,1.4,0.9,2.1s0.8,1.3,1.3,1.9
		s1.1,1.1,1.7,1.5c0.6,0.4,1.3,0.8,1.9,1c0.7,0.2,1.4,0.4,2.1,0.4c1.1,0,2.2-0.2,3.2-0.5c1-0.4,1.9-0.9,2.7-1.6
		c0.8-0.7,1.4-1.6,1.8-2.6c0.4-1.1,0.7-2.3,0.7-3.6c0-1.3-0.2-2.5-0.6-3.6c-0.4-1.1-0.9-2-1.6-2.7c-0.7-0.8-1.5-1.3-2.4-1.7
		c-0.9-0.4-1.9-0.6-3-0.6c-1.2,0-2.3,0.2-3.4,0.5c-1.1,0.3-2.1,0.8-2.9,1.5c-0.8,0.7-1.5,1.5-2,2.5S26.1,87.9,26.1,89.3z"/>
	<path class="st2" d="M51.3,98.4c0-0.3,0-0.6,0.1-0.9c0.1-0.3,0.1-0.6,0.1-0.9c0-0.2,0-0.6-0.1-1c0-0.4-0.1-0.9-0.2-1.4
		c-0.1-0.5-0.1-1.1-0.2-1.7s-0.2-1.2-0.2-1.8s-0.1-1.2-0.2-1.8s-0.1-1.1-0.1-1.6c0-0.4,0-0.9,0-1.4c0-0.5,0.1-1,0.1-1.6
		c0.1-0.5,0.2-1,0.3-1.4s0.4-0.8,0.7-1c1.1-1,2.3-1.7,3.6-2.3c1.3-0.6,2.7-0.9,4.2-0.9c0.7,0,1.5,0.1,2.2,0.3c0.7,0.2,1.4,0.5,2,0.9
		c0.6,0.4,1.1,0.9,1.4,1.6c0.4,0.6,0.5,1.4,0.5,2.3c0,0.6-0.1,1.2-0.4,1.7c-0.3,0.5-0.6,0.9-1.1,1.3c-0.4,0.4-0.9,0.7-1.4,0.9
		c-0.5,0.2-1,0.5-1.4,0.6c0.5,0,1,0.1,1.5,0.2s1.1,0.3,1.6,0.5s1,0.5,1.4,0.7s0.7,0.6,0.9,0.9c0.4,0.6,0.7,1.3,0.9,2
		c0.2,0.7,0.4,1.5,0.5,2.3c0.1,0.8,0.2,1.7,0.2,2.6c0,0.9,0,1.8,0,2.8c0,0.2-0.1,0.4-0.2,0.6c-0.1,0.2-0.3,0.4-0.4,0.5
		s-0.4,0.2-0.5,0.3c-0.2,0.1-0.4,0.1-0.5,0.1c-0.3,0-0.6-0.1-0.8-0.2c-0.2-0.1-0.3-0.3-0.4-0.5s-0.2-0.5-0.2-0.7c0-0.3,0-0.6,0-0.9
		c0-0.3,0-0.7,0.1-1c0-0.3,0.1-0.7,0.1-1.1c0-0.3,0-0.7,0-1c0-0.4-0.1-0.7-0.1-1.1c0-0.4-0.1-0.7-0.2-1s-0.2-0.6-0.3-0.9
		c-0.3-0.6-0.7-1.2-1.2-1.6c-0.5-0.4-1.1-0.7-1.7-0.9c-0.6-0.2-1.3-0.4-2-0.4s-1.4-0.1-2-0.1c-0.2,0-0.4,0-0.8,0.1
		c-0.4,0.1-0.7,0.1-1.1,0.2c-0.4,0.1-0.8,0.2-1.2,0.4s-0.7,0.3-0.9,0.5c0,0.5,0,1.1,0.1,1.7s0.1,1.2,0.2,1.9
		c0.1,0.6,0.2,1.2,0.3,1.8s0.2,1.2,0.4,1.7c0,0.1,0,0.1,0,0.1c0,0,0,0.1,0,0.1c0,0.2-0.1,0.4-0.2,0.6c-0.1,0.2-0.2,0.3-0.4,0.5
		s-0.4,0.2-0.6,0.3s-0.5,0.1-0.7,0.1c-0.2,0-0.4-0.1-0.6-0.2c-0.2-0.1-0.4-0.2-0.5-0.4c-0.1-0.2-0.3-0.4-0.3-0.6
		S51.3,98.6,51.3,98.4z M53.6,88c0.3,0,0.7-0.1,1.3-0.2c0.6-0.1,1.2-0.3,1.9-0.5c0.7-0.2,1.4-0.4,2.1-0.7c0.7-0.3,1.3-0.5,1.9-0.8
		s1.1-0.6,1.4-0.9c0.4-0.3,0.5-0.7,0.5-1c0-0.6-0.1-1-0.3-1.4c-0.2-0.4-0.5-0.6-0.8-0.8c-0.3-0.2-0.7-0.3-1.1-0.4s-0.8-0.1-1.2-0.1
		c-0.4,0-0.8,0-1.2,0.1c-0.4,0.1-0.9,0.2-1.3,0.3c-0.4,0.1-0.9,0.3-1.3,0.5c-0.4,0.2-0.8,0.4-1.1,0.7c-0.3,0.2-0.6,0.5-0.8,0.8
		c-0.2,0.3-0.3,0.6-0.3,1c0,0.6,0,1.2,0,1.8C53.5,86.9,53.5,87.4,53.6,88z"/>
	<path class="st2" d="M85.5,99.8c-0.1-0.7-0.1-1.5-0.1-2.3s0-1.8,0-2.8c0-0.8,0-1.6,0-2.5c0-0.9,0-1.8,0-2.7s0-1.8,0-2.7
		s0-1.8,0-2.6s0-1.6,0-2.3c0-0.7,0-1.3,0-1.8c0-0.2,0-0.4,0.1-0.6c0.1-0.2,0.1-0.4,0.3-0.5c0.1-0.2,0.3-0.3,0.4-0.4
		c0.2-0.1,0.4-0.2,0.7-0.2c0.2,0,0.3,0,0.5,0.1c0.2,0.1,0.3,0.1,0.4,0.2c0.1,0.1,0.2,0.2,0.3,0.4c0.1,0.2,0.1,0.4,0.1,0.6l-0.1,6.4
		c0,0.1,0,0.3,0,0.4c0,0.2,0,0.4,0,0.6c0,0.2,0,0.4,0,0.7c0,0.2,0,0.4,0.1,0.5l2.6-2.9c0.2-0.5,0.4-0.9,0.7-1.1
		c0.3-0.3,0.7-0.4,1.1-0.5c0.2-0.2,0.4-0.5,0.7-0.9c0.3-0.4,0.6-0.7,0.9-1.1c0.2-0.2,0.3-0.4,0.5-0.5c0.2-0.2,0.3-0.3,0.4-0.5
		c0.1-0.2,0.3-0.3,0.4-0.4s0.2-0.2,0.2-0.3c0.2-0.2,0.3-0.4,0.4-0.6c0.1-0.2,0.2-0.3,0.4-0.4c0.1-0.1,0.3-0.2,0.5-0.2
		c0.2-0.1,0.5-0.1,0.8-0.1c0.1,0,0.2,0,0.3,0.1s0.3,0.1,0.4,0.2s0.2,0.2,0.3,0.4c0.1,0.2,0.1,0.4,0.1,0.6c0,0.5-0.1,0.8-0.2,1.1
		c-0.2,0.3-0.4,0.5-0.6,0.7c-0.2,0.2-0.5,0.4-0.8,0.6c-0.3,0.2-0.5,0.5-0.8,0.8c0,0-0.1,0.2-0.3,0.4s-0.4,0.5-0.6,0.7
		c-0.2,0.3-0.4,0.6-0.7,0.9c-0.2,0.3-0.4,0.6-0.6,0.8c0.1,0.2,0.2,0.5,0.4,0.7s0.3,0.5,0.5,0.7c0.6,1.1,1.2,2.1,1.8,3.2
		c0.6,1.1,1.2,2.2,2,3.4c0.2,0.3,0.4,0.6,0.6,1c0.2,0.4,0.5,0.8,0.7,1.2c0.2,0.4,0.5,0.8,0.7,1.3c0.2,0.4,0.4,0.8,0.6,1.2
		s0.3,0.7,0.4,1.1c0.1,0.3,0.2,0.6,0.2,0.8c0,0.2,0,0.5-0.1,0.7c-0.1,0.2-0.1,0.4-0.3,0.6s-0.3,0.3-0.5,0.4
		c-0.2,0.1-0.5,0.1-0.8,0.1c-0.2,0-0.4-0.1-0.6-0.2c-0.2-0.1-0.4-0.3-0.5-0.6s-0.3-0.5-0.5-0.8c-0.2-0.3-0.3-0.6-0.4-0.8
		c-0.1-0.3-0.2-0.5-0.3-0.8c-0.1-0.2-0.2-0.4-0.2-0.5c-0.1-0.1-0.2-0.4-0.3-0.7c-0.2-0.4-0.4-0.8-0.6-1.3c-0.2-0.5-0.5-1.1-0.8-1.7
		s-0.6-1.2-0.9-1.9c-0.3-0.6-0.6-1.2-1-1.8c-0.3-0.6-0.6-1.1-0.9-1.6s-0.5-0.9-0.7-1.2c-0.2-0.3-0.4-0.5-0.5-0.5
		c-0.8,0.6-1.5,1.3-2.1,2.1c-0.7,0.8-1.3,1.6-1.8,2.4c0,0.2,0,0.4,0,0.6c0,0.2,0,0.4,0,0.6c0,0.5,0,1,0.1,1.5c0,0.5,0.1,1,0.2,1.6
		c0,0.5,0.1,0.9,0.1,1.4c0,0.5,0.1,1,0.1,1.5c0,0.1,0,0.3-0.1,0.4c-0.1,0.1-0.2,0.3-0.4,0.4c-0.2,0.1-0.3,0.2-0.5,0.3
		c-0.2,0.1-0.4,0.1-0.5,0.1c-0.2,0-0.4,0-0.6-0.1s-0.4-0.2-0.6-0.3c-0.2-0.1-0.3-0.2-0.4-0.4C85.6,100.1,85.5,99.9,85.5,99.8z"/>
	<path class="st2" d="M106.1,99.1c0-0.2,0-0.4,0.1-0.5c0.1-0.2,0.2-0.4,0.3-0.5c0.1-0.2,0.3-0.3,0.4-0.4c0.2-0.1,0.4-0.1,0.6-0.1
		c0,0,0.1,0,0.2,0c0.1,0,0.3,0,0.5,0.1c0.2,0,0.4,0,0.6,0.1c0.2,0,0.4,0,0.5,0v-1.4c0-0.6,0-1.3,0-2.1s0-1.6,0-2.5
		c0-0.9,0-1.8,0-2.7c0-0.9,0-1.8,0.1-2.7c0-0.9,0.1-1.7,0.1-2.5s0.1-1.5,0.1-2h-1.2c-0.2,0-0.5,0-0.7,0c-0.2,0-0.5-0.1-0.7-0.2
		c-0.2-0.1-0.4-0.2-0.5-0.4s-0.2-0.4-0.2-0.7c0-0.3,0-0.5,0.1-0.8c0.1-0.2,0.2-0.4,0.4-0.5c0.2-0.1,0.4-0.2,0.8-0.3
		c0.3-0.1,0.7-0.1,1.2-0.1c0.2,0,0.5,0,0.8,0s0.6,0,0.9,0c0.3,0,0.6,0,0.9,0s0.6,0,0.8,0c0.1,0,0.3,0,0.6,0c0.2,0,0.6,0,1,0
		c0.4,0,0.7,0,1-0.1c0.3-0.1,0.7-0.1,1-0.1c0.2,0,0.3,0.1,0.5,0.2c0.2,0.1,0.4,0.2,0.5,0.4c0.2,0.2,0.3,0.3,0.4,0.5s0.2,0.3,0.2,0.4
		c0,0.3-0.1,0.6-0.2,0.8c-0.2,0.2-0.3,0.4-0.6,0.6c-0.2,0.2-0.5,0.3-0.7,0.3s-0.5,0.1-0.7,0.1c-0.1,0-0.2,0-0.3-0.1
		s-0.2-0.1-0.3-0.1c-0.1,0-0.2-0.1-0.3-0.1c-0.1,0-0.1-0.1-0.2-0.1l-1.6,0.1c0,0.3-0.1,0.8-0.1,1.4c0,0.6-0.1,1.3-0.1,2.1
		c0,0.8,0,1.7-0.1,2.6c0,0.9,0,1.8,0,2.8c0,0.6,0,1.1,0,1.8c0,0.6,0,1.2,0.1,1.8s0.1,1.2,0.1,1.8s0.1,1.2,0.2,1.8c0.3,0,0.6,0,0.9,0
		c0.3,0,0.5,0,0.8,0c0.2,0,0.4,0,0.6,0c0.1,0,0.2,0,0.3,0c0.3,0.2,0.6,0.5,0.7,0.7c0.1,0.3,0.2,0.5,0.2,0.8c0,0.2-0.1,0.4-0.2,0.5
		s-0.2,0.3-0.4,0.4c-0.2,0.1-0.4,0.2-0.6,0.3s-0.4,0.1-0.6,0.1h-5.4c-0.2,0-0.4,0-0.7-0.1s-0.6-0.1-0.9-0.2s-0.5-0.3-0.8-0.5
		C106.3,99.7,106.1,99.4,106.1,99.1z"/>
	<path class="st2" d="M121.2,81.7c0-0.6,0.1-1.1,0.3-1.5c0.2-0.4,0.4-0.7,0.7-0.9c0.3-0.2,0.6-0.3,1-0.4c0.4-0.1,0.7-0.1,1.1-0.1
		h3.1c0.9,0,1.9,0.1,2.9,0.3c1,0.2,2,0.6,3.1,1s2,1,2.9,1.6c0.9,0.7,1.7,1.4,2.5,2.3c0.7,0.9,1.3,1.8,1.7,2.9c0.4,1,0.6,2.2,0.6,3.4
		c0,1.3-0.2,2.5-0.6,3.5s-0.9,1.9-1.6,2.7c-0.7,0.8-1.5,1.4-2.4,2s-1.8,1-2.8,1.3c-1,0.3-2,0.6-3,0.7c-1,0.1-1.9,0.2-2.8,0.2
		c-0.2,0-0.5,0-0.8,0c-0.3,0-0.7,0-1,0c-0.3,0-0.7,0-1-0.1s-0.6-0.1-0.8-0.1c-0.2,0.1-0.4,0.2-0.6,0.3c-0.2,0.1-0.4,0.1-0.5,0.1
		c-0.4,0-0.7-0.1-1-0.4c-0.3-0.3-0.5-0.6-0.6-1s-0.2-0.9-0.3-1.3c0-0.5-0.1-0.9-0.1-1.3L121.2,81.7z M124.5,97.6
		c0,0,0.1,0.1,0.2,0.1c0.1,0,0.2,0.1,0.4,0.1c0.1,0,0.3,0,0.5,0.1s0.3,0,0.5,0h2.6c0.6,0,1.3-0.1,2-0.2c0.7-0.1,1.4-0.3,2.1-0.6
		c0.7-0.3,1.4-0.6,2-1s1.2-0.9,1.7-1.4c0.5-0.5,0.9-1.1,1.2-1.7c0.3-0.6,0.5-1.3,0.5-2c0-0.9-0.1-1.7-0.4-2.5
		c-0.3-0.8-0.7-1.6-1.2-2.3c-0.5-0.7-1.1-1.3-1.8-1.9s-1.4-1.1-2.2-1.5c-0.8-0.4-1.6-0.7-2.4-0.9s-1.6-0.3-2.4-0.3
		c-0.2,0-0.5,0-0.9,0c-0.4,0-0.7,0-1.1,0c-0.4,0-0.7,0-1,0.1c-0.3,0-0.5,0.1-0.6,0.1c-0.1,0.4-0.1,0.8-0.2,1.1s-0.1,0.7-0.1,1.1
		c0,0.4,0,0.7,0,1.1s0,0.8,0,1.2c0,0.4,0,1,0,1.6c0,0.6,0,1.2,0,1.9c0,0.7,0,1.4,0.1,2.1c0,0.7,0.1,1.4,0.1,2.1c0,0.7,0.1,1.3,0.1,2
		C124.4,96.5,124.5,97.1,124.5,97.6z"/>
	<path class="st2" d="M146.5,97.1c0-0.2,0.1-0.4,0.2-0.7c0.1-0.3,0.3-0.6,0.4-0.8c0.2-0.2,0.4-0.4,0.6-0.5c0.2-0.1,0.4,0,0.6,0.3
		c0.4,0.6,0.7,1.1,1,1.5s0.6,0.6,0.9,0.8c0.3,0.2,0.7,0.3,1.1,0.3s0.9,0.1,1.4,0.1c0.7,0,1.3-0.1,2-0.3c0.7-0.2,1.3-0.5,1.9-0.8
		c0.6-0.3,1-0.7,1.4-1.1c0.4-0.4,0.5-0.8,0.5-1.1c0-0.3-0.1-0.5-0.3-0.8c-0.2-0.3-0.5-0.5-0.9-0.7c-0.4-0.2-0.8-0.5-1.4-0.7
		c-0.5-0.2-1.1-0.4-1.7-0.5c-0.7-0.1-1.4-0.2-2.1-0.3c-0.7-0.1-1.4-0.3-2.1-0.4c-0.7-0.2-1.3-0.4-1.9-0.7c-0.6-0.3-1.1-0.6-1.5-1
		s-0.8-0.8-1.1-1.4c-0.3-0.5-0.4-1.1-0.4-1.9c0-0.8,0.1-1.6,0.4-2.3c0.3-0.7,0.6-1.4,1-1.9c0.4-0.6,1-1.1,1.6-1.6
		c0.6-0.5,1.2-0.8,1.9-1.1s1.4-0.5,2.1-0.7c0.7-0.2,1.5-0.2,2.2-0.2c0.8,0,1.5,0.1,2.1,0.3c0.6,0.2,1.1,0.5,1.6,0.9s0.8,0.8,1,1.2
		c0.2,0.5,0.4,0.9,0.4,1.4c0,0.3,0,0.6,0,0.9s-0.1,0.7-0.1,1s-0.2,0.6-0.4,0.8c-0.2,0.2-0.4,0.3-0.8,0.3c-0.2,0-0.4,0-0.5-0.1
		c-0.1-0.1-0.2-0.2-0.3-0.3s-0.1-0.3-0.1-0.4c0-0.1,0-0.3,0-0.4c0-0.6-0.1-1-0.2-1.4c-0.1-0.4-0.4-0.6-0.6-0.9s-0.6-0.4-1-0.4
		s-0.9-0.1-1.4-0.1c-0.4,0-0.8,0.1-1.2,0.2c-0.4,0.1-0.9,0.3-1.3,0.5c-0.4,0.2-0.9,0.5-1.3,0.8s-0.8,0.6-1.1,1
		c-0.3,0.4-0.6,0.8-0.8,1.2c-0.2,0.4-0.3,0.8-0.3,1.3c0,0.5,0.2,0.9,0.5,1.3s0.8,0.6,1.4,0.8s1.2,0.4,1.9,0.6
		c0.7,0.1,1.4,0.3,2.2,0.4c0.6,0.1,1.2,0.2,1.8,0.4s1.2,0.3,1.7,0.5s1,0.4,1.5,0.7c0.5,0.3,0.9,0.6,1.2,0.9c0.3,0.4,0.6,0.8,0.8,1.3
		c0.2,0.5,0.3,1,0.3,1.6c0,0.8-0.2,1.4-0.5,2c-0.3,0.6-0.8,1.1-1.3,1.6c-0.5,0.5-1.1,0.8-1.8,1.2c-0.7,0.3-1.4,0.6-2,0.8
		s-1.3,0.4-2,0.5c-0.6,0.1-1.1,0.1-1.6,0.1c-0.3,0-0.7,0-1.1,0c-0.4,0-0.8-0.1-1.3-0.2c-0.4-0.1-0.8-0.2-1.2-0.4s-0.8-0.4-1.1-0.7
		s-0.6-0.6-0.8-1S146.5,97.7,146.5,97.1z"/>
</g>
</svg>
