<?xml version="1.0" encoding="utf-8"?>
<!-- Generator: Adobe Illustrator 19.2.1, SVG Export Plug-In . SVG Version: 6.00 Build 0)  -->
<svg version="1.1" id="Layer_1" xmlns="http://www.w3.org/2000/svg" xmlns:xlink="http://www.w3.org/1999/xlink" x="0px" y="0px"
	 viewBox="0 0 960 590" style="enable-background:new 0 0 960 590;" xml:space="preserve">
<style type="text/css">
	.st0{fill:#16C4BF;}
	.st1{fill:#4056F4;}
	.st2{fill:none;}
	.st3{fill:#FFFFFF;}
	.st4{font-family:'DroidSansMono';}
	.st5{font-size:33px;}
	.st6{font-size:18px;}
</style>
<rect x="54.6" y="13.2" class="st0" width="850.9" height="556.5"/>
<rect x="122.3" y="79.5" class="st1" width="715.5" height="431"/>
<rect x="289" y="121" class="st2" width="377.4" height="117.9"/>
<text transform="matrix(1 0 0 1 289.0478 146.0796)" class="st3 st4 st5">position: relative;</text>
<rect x="134.9" y="404.9" class="st3" width="231.6" height="92.1"/>
<rect x="148.7" y="421.8" class="st2" width="442.9" height="117.9"/>
<text transform="matrix(1 0 0 1 148.7321 435.4392)"><tspan x="0" y="0" class="st1 st4 st6">position: absolute;</tspan><tspan x="0" y="21.6" class="st1 st4 st6">bottom: 10px;</tspan><tspan x="0" y="43.2" class="st1 st4 st6">left:10px;</tspan></text>
<rect x="538.3" y="219.3" class="st3" width="231.6" height="92.1"/>
<rect x="552.1" y="236.2" class="st2" width="442.9" height="117.9"/>
<text transform="matrix(1 0 0 1 552.109 249.8582)"><tspan x="0" y="0" class="st1 st4 st6">position: absolute;</tspan><tspan x="0" y="21.6" class="st1 st4 st6">top: 70px;</tspan><tspan x="0" y="43.2" class="st1 st4 st6">right:35px;</tspan></text>
</svg>
