<?xml version="1.0" encoding="utf-8"?>
<!-- Generator: Adobe Illustrator 21.0.0, SVG Export Plug-In . SVG Version: 6.00 Build 0)  -->
<svg version="1.1" id="Layer_1" xmlns="http://www.w3.org/2000/svg" xmlns:xlink="http://www.w3.org/1999/xlink" x="0px" y="0px"
	 viewBox="0 0 775 170" style="enable-background:new 0 0 775 170;" xml:space="preserve">
<style type="text/css">
	.st0{opacity:0.5;}
	.st1{fill:none;stroke:#6666FF;stroke-width:3;stroke-miterlimit:10;}
	.st2{fill:none;stroke:#16C4BF;stroke-width:5;stroke-miterlimit:10;}
	.st3{fill:none;}
	.st4{fill:#4056F4;}
	.st5{font-family:'ShortStack';}
	.st6{font-size:15px;}
	.st7{fill:#16C4BF;}
	.st8{fill:#8000FF;}
	.st9{font-size:13px;}
</style>
<g class="st0">
	<line class="st1" x1="10.8" y1="45.8" x2="757.8" y2="45.8"/>
</g>
<line class="st2" x1="10.8" y1="25.8" x2="10.8" y2="65.8"/>
<line class="st2" x1="757.8" y1="25.8" x2="757.8" y2="65.8"/>
<rect x="3.7" y="4.9" class="st3" width="92.6" height="22.8"/>
<text transform="matrix(1 0 0 1 3.7188 15.752)" class="st4 st5 st6">0%, Start</text>
<rect x="678" y="5" class="st3" width="93.3" height="10.9"/>
<text transform="matrix(1 0 0 1 678 15.7627)" class="st4 st5 st6">100%, End</text>
<g>
	<path class="st7" d="M151.5,95.3c-1.6,0-3.6-0.2-6-0.7c-2.3-0.5-4.9-1-7.6-1.6c-2.7-0.6-5.5-1.1-8.4-1.6c-2.9-0.5-5.7-0.7-8.5-0.7
		c-1.2,0-2.4,0.3-3.4,1c-1,0.7-2,1.5-2.8,2.6c-0.9,1-1.7,2.2-2.4,3.4c-0.7,1.2-1.4,2.4-2.1,3.6c0.3,0.5,0.5,1.2,0.6,2.2
		c0.1,1,0,1.9-0.4,2.9c-0.3,1-0.8,1.8-1.5,2.5c-0.7,0.7-1.7,1.1-2.9,1.1c-1.6,0-2.9-0.2-4-0.5c-1.1-0.3-1.9-0.8-2.7-1.3
		c-0.7-0.5-1.3-1-1.8-1.5s-0.9-1-1.3-1.4c-2-2-3.6-3.8-4.6-5.5c-1.1-1.6-2.1-3-2.9-4.2c-0.9-1.1-1.9-2-3-2.7
		c-1.1-0.6-2.6-0.9-4.6-0.9c-1.6,0-3.4,0.2-5.4,0.5c-2,0.3-4,0.7-6,1.1s-3.9,0.7-5.8,1.1c-1.8,0.3-3.5,0.5-4.9,0.5
		c-2.1,0-4.1-0.4-6-1.2s-3.5-2-4.9-3.7s-2.5-3.7-3.3-6.1c-0.8-2.4-1.2-5.3-1.2-8.5c0-1.1,0.1-2.1,0.3-3.1c0.2-1,0.5-1.9,0.9-2.7
		c0.4-0.8,0.9-1.4,1.6-1.9c0.6-0.5,1.4-0.7,2.3-0.7c1.6,0,2.8,0.3,3.6,1c0.8,0.7,1.5,1.6,1.9,2.7c0.4,1.1,0.7,2.3,0.9,3.6
		c0.2,1.3,0.4,2.6,0.7,3.8c0.3,1.4,0.8,2.2,1.6,2.5c0.8,0.3,1.5,0.4,2.2,0.4c0.8,0,1.8-0.1,3.1-0.2c1.3-0.1,2.7-0.3,4.3-0.6
		c1.6-0.2,3.3-0.5,5.1-0.8c1.8-0.3,3.6-0.5,5.5-0.8s3.6-0.4,5.2-0.6c1.6-0.1,3.1-0.2,4.4-0.2c1.8,0,3.5,0.6,5,1.9
		c1.5,1.2,2.9,2.7,4.1,4.5c1.2,1.8,2.4,3.6,3.5,5.4c1.1,1.9,2.2,3.4,3.2,4.6c1.4-2.2,2.7-4.3,3.8-6.4c1.1-2.1,2.3-3.9,3.6-5.5
		c1.3-1.6,2.7-2.9,4.3-3.9c1.6-1,3.6-1.5,5.9-1.5c2,0,4.2,0.2,6.4,0.6c2.3,0.4,4.5,0.8,6.8,1.3c2.3,0.5,4.4,0.9,6.4,1.3
		c2,0.4,3.7,0.6,5.2,0.6c1.5,0,2.6-0.1,3.5-0.3c0.8-0.2,1.5-0.5,1.9-1c0.4-0.5,0.7-1.1,0.9-1.9c0.2-0.8,0.4-1.8,0.5-3.1
		c0.1-1.2,0.3-2.3,0.5-3.2c0.2-1,0.5-1.8,0.9-2.5c0.4-0.7,1-1.2,1.7-1.6c0.7-0.4,1.6-0.6,2.7-0.6c1,0,1.9,0.3,2.6,0.8
		c0.7,0.5,1.3,1.1,1.8,1.9c0.5,0.7,0.8,1.6,1,2.5c0.2,0.9,0.4,1.8,0.4,2.7c0,3.7-0.2,6.8-0.7,9.4c-0.5,2.6-1.2,4.7-2.3,6.4
		c-1,1.7-2.4,2.9-4,3.6C155.7,95,153.7,95.3,151.5,95.3z"/>
</g>
<rect x="76" y="122.9" class="st3" width="62" height="43.8"/>
<text transform="matrix(1 0 0 1 76 132.3105)" class="st8 st5 st9">Slower </text>
<g>
	<path class="st7" d="M708.5,95.3c-1.6,0-3.6-0.2-6-0.7c-2.3-0.5-4.9-1-7.6-1.6c-2.7-0.6-5.5-1.1-8.4-1.6c-2.9-0.5-5.7-0.7-8.5-0.7
		c-1.2,0-2.4,0.3-3.4,1c-1,0.7-2,1.5-2.8,2.6c-0.9,1-1.7,2.2-2.4,3.4c-0.7,1.2-1.4,2.4-2.1,3.6c0.3,0.5,0.5,1.2,0.6,2.2
		c0.1,1,0,1.9-0.4,2.9c-0.3,1-0.8,1.8-1.5,2.5c-0.7,0.7-1.7,1.1-2.9,1.1c-1.6,0-2.9-0.2-4-0.5c-1.1-0.3-1.9-0.8-2.7-1.3
		c-0.7-0.5-1.3-1-1.8-1.5c-0.5-0.5-0.9-1-1.3-1.4c-2-2-3.6-3.8-4.6-5.5c-1.1-1.6-2.1-3-2.9-4.2c-0.9-1.1-1.9-2-3-2.7
		c-1.1-0.6-2.6-0.9-4.6-0.9c-1.6,0-3.4,0.2-5.4,0.5c-2,0.3-4,0.7-6,1.1s-3.9,0.7-5.8,1.1c-1.8,0.3-3.5,0.5-4.9,0.5
		c-2.1,0-4.1-0.4-6-1.2c-1.9-0.8-3.5-2-4.9-3.7c-1.4-1.6-2.5-3.7-3.3-6.1c-0.8-2.4-1.2-5.3-1.2-8.5c0-1.1,0.1-2.1,0.3-3.1
		c0.2-1,0.5-1.9,0.9-2.7c0.4-0.8,0.9-1.4,1.6-1.9c0.6-0.5,1.4-0.7,2.3-0.7c1.6,0,2.8,0.3,3.6,1c0.8,0.7,1.5,1.6,1.9,2.7
		c0.4,1.1,0.7,2.3,0.9,3.6c0.2,1.3,0.4,2.6,0.7,3.8c0.3,1.4,0.8,2.2,1.6,2.5c0.8,0.3,1.5,0.4,2.2,0.4c0.8,0,1.8-0.1,3.1-0.2
		c1.3-0.1,2.7-0.3,4.3-0.6c1.6-0.2,3.3-0.5,5.1-0.8c1.8-0.3,3.6-0.5,5.5-0.8c1.8-0.2,3.6-0.4,5.2-0.6c1.6-0.1,3.1-0.2,4.4-0.2
		c1.8,0,3.5,0.6,5,1.9c1.5,1.2,2.9,2.7,4.1,4.5c1.2,1.8,2.4,3.6,3.5,5.4c1.1,1.9,2.2,3.4,3.2,4.6c1.4-2.2,2.7-4.3,3.8-6.4
		c1.1-2.1,2.3-3.9,3.6-5.5c1.3-1.6,2.7-2.9,4.3-3.9c1.6-1,3.6-1.5,5.9-1.5c2,0,4.2,0.2,6.4,0.6c2.3,0.4,4.5,0.8,6.8,1.3
		c2.3,0.5,4.4,0.9,6.4,1.3c2,0.4,3.7,0.6,5.2,0.6c1.5,0,2.6-0.1,3.5-0.3c0.8-0.2,1.5-0.5,1.9-1c0.4-0.5,0.7-1.1,0.9-1.9
		c0.2-0.8,0.4-1.8,0.5-3.1c0.1-1.2,0.3-2.3,0.5-3.2c0.2-1,0.5-1.8,0.9-2.5c0.4-0.7,1-1.2,1.7-1.6c0.7-0.4,1.6-0.6,2.7-0.6
		c1,0,1.9,0.3,2.6,0.8c0.7,0.5,1.3,1.1,1.8,1.9c0.5,0.7,0.8,1.6,1,2.5c0.2,0.9,0.4,1.8,0.4,2.7c0,3.7-0.2,6.8-0.7,9.4
		c-0.5,2.6-1.2,4.7-2.3,6.4c-1,1.7-2.4,2.9-4,3.6C712.7,95,710.7,95.3,708.5,95.3z"/>
</g>
<rect x="633" y="122.9" class="st3" width="62" height="43.8"/>
<text transform="matrix(1 0 0 1 633 132.3105)" class="st8 st5 st9">Slower </text>
</svg>
