<?xml version="1.0" encoding="utf-8"?>
<!-- Generator: Adobe Illustrator 21.0.0, SVG Export Plug-In . SVG Version: 6.00 Build 0)  -->
<svg version="1.1" id="Layer_1" xmlns="http://www.w3.org/2000/svg" xmlns:xlink="http://www.w3.org/1999/xlink" x="0px" y="0px"
	 viewBox="0 0 960 560" style="enable-background:new 0 0 960 560;" xml:space="preserve">
<style type="text/css">
	.st0{fill:#8000FF;}
	.st1{fill:none;}
	.st2{font-family:'ShortStack';}
	.st3{font-size:24px;}
	.st4{font-family:'Lato-Bold';}
	.st5{font-size:15px;}
	.st6{fill:#16C4BF;}
	.st7{fill:#4056F4;}
	.st8{opacity:0.13;fill:#494949;}
	.st9{opacity:0.35;fill:#494949;}
	.st10{opacity:0.2;fill:none;stroke:#16C4BF;stroke-miterlimit:10;}
</style>
<circle class="st0" cx="129.7" cy="159" r="45.2"/>
<rect x="80.5" y="37" class="st1" width="309.9" height="62.3"/>
<text transform="matrix(1 0 0 1 80.5243 54.2561)"><tspan x="0" y="0" class="st0 st2 st3">Dot Step 1: Move down</tspan><tspan x="0" y="27" class="st0 st4 st5">Increase y axis value  </tspan></text>
<path class="st6" d="M240.3,137c0-1.9-1.5-3.4-3.4-3.4c-1.9,0-3.4,1.5-3.4,3.4c0,1.9,1.5,3.4,3.4,3.4
	C238.8,140.4,240.3,138.8,240.3,137z M240.3,146.1c0-1.9-1.5-3.4-3.4-3.4c-1.9,0-3.4,1.5-3.4,3.4c0,1.9,1.5,3.4,3.4,3.4
	C238.8,149.5,240.3,147.9,240.3,146.1z M240.3,173.3c0-1.9-1.5-3.4-3.4-3.4c-1.9,0-3.4,1.5-3.4,3.4c0,1.9,1.5,3.4,3.4,3.4
	C238.8,176.7,240.3,175.2,240.3,173.3z M240.3,182.4c0-1.9-1.5-3.4-3.4-3.4c-1.9,0-3.4,1.5-3.4,3.4s1.5,3.4,3.4,3.4
	C238.8,185.8,240.3,184.3,240.3,182.4z M240.3,127.9c0-1.9-1.5-3.4-3.4-3.4c-1.9,0-3.4,1.5-3.4,3.4s1.5,3.4,3.4,3.4
	C238.8,131.3,240.3,129.8,240.3,127.9z M240.3,155.1c0-1.9-1.5-3.4-3.4-3.4c-1.9,0-3.4,1.5-3.4,3.4c0,1.9,1.5,3.4,3.4,3.4
	C238.8,158.5,240.3,157,240.3,155.1z M236.9,167.6c1.9,0,3.4-1.5,3.4-3.4s-1.5-3.4-3.4-3.4c-1.9,0-3.4,1.5-3.4,3.4
	C233.5,166.1,235,167.6,236.9,167.6z M232.9,186.7c-1.3-1.3-3.5-1.3-4.8,0c-1.3,1.3-1.3,3.5,0,4.8c1.3,1.3,3.5,1.3,4.8,0
	C234.2,190.2,234.2,188,232.9,186.7z M226.4,180.2c-1.3-1.3-3.5-1.3-4.8,0c-1.3,1.3-1.3,3.5,0,4.8c1.3,1.3,3.5,1.3,4.8,0
	C227.8,183.7,227.8,181.6,226.4,180.2z M220,173.8c-1.3-1.3-3.5-1.3-4.8,0c-1.3,1.3-1.3,3.5,0,4.8c1.3,1.3,3.5,1.3,4.8,0
	C221.3,177.3,221.3,175.1,220,173.8z M213.6,167.4c-1.3-1.3-3.5-1.3-4.8,0c-1.3,1.3-1.3,3.5,0,4.8c1.3,1.3,3.5,1.3,4.8,0
	C214.9,170.9,214.9,168.7,213.6,167.4z M237.1,198.9c0.1,0,0.3,0,0.4,0c0,0,0.1,0,0.1,0c0.4-0.1,0.8-0.2,1.1-0.5
	c0.2-0.1,0.4-0.3,0.5-0.4c0.2-0.2,0.3-0.3,0.4-0.5c0.9-1.3,0.7-3.1-0.4-4.3c-0.7-0.7-1.5-1-2.4-1s-1.7,0.3-2.4,1
	c-0.6,0.6-1,1.5-1,2.3c0,0,0,0.1,0,0.1c0,0,0,0.1,0,0.1c0,0.8,0.4,1.6,1,2.3c0.2,0.2,0.3,0.3,0.5,0.4c0.3,0.2,0.7,0.4,1.1,0.5
	c0,0,0.1,0,0.1,0c0.1,0,0.3,0,0.4,0c0.1,0,0.2,0,0.2,0C237,198.9,237,198.9,237.1,198.9z M240.9,186.7c-1.3,1.3-1.3,3.5,0,4.8
	c1.3,1.3,3.5,1.3,4.8,0c1.3-1.3,1.3-3.5,0-4.8C244.4,185.3,242.2,185.3,240.9,186.7z M247.3,180.2c-1.3,1.3-1.3,3.5,0,4.8
	s3.5,1.3,4.8,0c1.3-1.3,1.3-3.5,0-4.8S248.7,178.9,247.3,180.2z M253.7,173.8c-1.3,1.3-1.3,3.5,0,4.8c1.3,1.3,3.5,1.3,4.8,0
	c1.3-1.3,1.3-3.5,0-4.8C257.2,172.5,255.1,172.5,253.7,173.8z M260.2,172.2c1.3,1.3,3.5,1.3,4.8,0c1.3-1.3,1.3-3.5,0-4.8
	c-1.3-1.3-3.5-1.3-4.8,0C258.8,168.7,258.8,170.9,260.2,172.2z"/>
<rect x="83" y="276.8" class="st1" width="343.6" height="63.1"/>
<text transform="matrix(1 0 0 1 83.0458 294.106)"><tspan x="0" y="0" class="st7 st2 st3">Shadow Step 1: Shrink </tspan><tspan x="0" y="27" class="st7 st4 st5">Decrease width as dot gets closer  </tspan></text>
<rect x="469.3" y="39.2" class="st1" width="442.4" height="64.3"/>
<text transform="matrix(1 0 0 1 469.2955 56.4914)"><tspan x="0" y="0" class="st0 st2 st3">Dot Step 2: Respond to “Impact”</tspan><tspan x="0" y="27" class="st0 st4 st5">Increase width, decrease height  </tspan></text>
<ellipse class="st0" cx="569.2" cy="163.9" rx="64.6" ry="32.3"/>
<path class="st6" d="M515.8,167.7c1.4,0,2.5-1.1,2.5-2.5c0-1.4-1.1-2.5-2.5-2.5c-1.4,0-2.5,1.1-2.5,2.5
	C513.2,166.5,514.4,167.7,515.8,167.7z M509,167.7c1.4,0,2.5-1.1,2.5-2.5c0-1.4-1.1-2.5-2.5-2.5c-1.4,0-2.5,1.1-2.5,2.5
	C506.4,166.5,507.6,167.7,509,167.7z M488.6,167.7c1.4,0,2.5-1.1,2.5-2.5c0-1.4-1.1-2.5-2.5-2.5c-1.4,0-2.5,1.1-2.5,2.5
	C486.1,166.5,487.2,167.7,488.6,167.7z M481.8,167.7c1.4,0,2.5-1.1,2.5-2.5c0-1.4-1.1-2.5-2.5-2.5s-2.5,1.1-2.5,2.5
	C479.3,166.5,480.4,167.7,481.8,167.7z M522.6,167.7c1.4,0,2.5-1.1,2.5-2.5c0-1.4-1.1-2.5-2.5-2.5s-2.5,1.1-2.5,2.5
	C520,166.5,521.2,167.7,522.6,167.7z M502.2,167.7c1.4,0,2.5-1.1,2.5-2.5c0-1.4-1.1-2.5-2.5-2.5s-2.5,1.1-2.5,2.5
	C499.7,166.5,500.8,167.7,502.2,167.7z M492.9,165.1c0,1.4,1.1,2.5,2.5,2.5s2.5-1.1,2.5-2.5c0-1.4-1.1-2.5-2.5-2.5
	S492.9,163.7,492.9,165.1z M478.6,162.1c1-1,1-2.6,0-3.6c-1-1-2.6-1-3.6,0c-1,1-1,2.6,0,3.6C476,163.1,477.7,163.1,478.6,162.1z
	 M483.4,157.3c1-1,1-2.6,0-3.6c-1-1-2.6-1-3.6,0c-1,1-1,2.6,0,3.6C480.8,158.3,482.5,158.3,483.4,157.3z M488.2,152.5
	c1-1,1-2.6,0-3.6c-1-1-2.6-1-3.6,0c-1,1-1,2.6,0,3.6C485.6,153.5,487.3,153.5,488.2,152.5z M493,147.7c1-1,1-2.6,0-3.6
	c-1-1-2.6-1-3.6,0c-1,1-1,2.6,0,3.6C490.4,148.7,492.1,148.7,493,147.7z M469.5,165.3c0,0.1,0,0.2,0,0.3c0,0,0,0.1,0,0.1
	c0.1,0.3,0.2,0.6,0.3,0.8c0.1,0.1,0.2,0.3,0.3,0.4c0.1,0.1,0.3,0.2,0.4,0.3c1,0.7,2.3,0.5,3.2-0.3c0.5-0.5,0.7-1.1,0.7-1.8
	c0-0.7-0.2-1.3-0.7-1.8c-0.5-0.5-1.1-0.7-1.7-0.7c0,0-0.1,0-0.1,0c0,0-0.1,0-0.1,0c-0.6,0-1.2,0.3-1.7,0.7c-0.1,0.1-0.2,0.3-0.3,0.4
	c-0.2,0.3-0.3,0.5-0.3,0.8c0,0,0,0.1,0,0.1c0,0.1,0,0.2,0,0.3c0,0.1,0,0.1,0,0.2S469.5,165.2,469.5,165.3z M478.6,168.1
	c-1-1-2.6-1-3.6,0c-1,1-1,2.6,0,3.6c1,1,2.6,1,3.6,0C479.6,170.7,479.6,169.1,478.6,168.1z M483.4,172.9c-1-1-2.6-1-3.6,0
	s-1,2.6,0,3.6c1,1,2.6,1,3.6,0C484.4,175.5,484.4,173.9,483.4,172.9z M488.2,177.7c-1-1-2.6-1-3.6,0c-1,1-1,2.6,0,3.6
	c1,1,2.6,1,3.6,0C489.2,180.3,489.2,178.7,488.2,177.7z M489.4,182.5c-1,1-1,2.6,0,3.6c1,1,2.6,1,3.6,0c1-1,1-2.6,0-3.6
	C492.1,181.5,490.4,181.5,489.4,182.5z"/>
<path class="st6" d="M622.3,162.8c-1.4,0-2.5,1.1-2.5,2.5c0,1.4,1.1,2.5,2.5,2.5s2.5-1.1,2.5-2.5
	C624.9,163.9,623.7,162.8,622.3,162.8z M629.1,162.8c-1.4,0-2.5,1.1-2.5,2.5c0,1.4,1.1,2.5,2.5,2.5c1.4,0,2.5-1.1,2.5-2.5
	C631.7,163.9,630.5,162.8,629.1,162.8z M649.5,162.8c-1.4,0-2.5,1.1-2.5,2.5c0,1.4,1.1,2.5,2.5,2.5s2.5-1.1,2.5-2.5
	C652,163.9,650.9,162.8,649.5,162.8z M656.3,162.8c-1.4,0-2.5,1.1-2.5,2.5c0,1.4,1.1,2.5,2.5,2.5s2.5-1.1,2.5-2.5
	C658.8,163.9,657.7,162.8,656.3,162.8z M615.5,162.8c-1.4,0-2.5,1.1-2.5,2.5c0,1.4,1.1,2.5,2.5,2.5s2.5-1.1,2.5-2.5
	C618.1,163.9,616.9,162.8,615.5,162.8z M635.9,162.8c-1.4,0-2.5,1.1-2.5,2.5c0,1.4,1.1,2.5,2.5,2.5s2.5-1.1,2.5-2.5
	C638.4,163.9,637.3,162.8,635.9,162.8z M645.2,165.3c0-1.4-1.1-2.5-2.5-2.5s-2.5,1.1-2.5,2.5c0,1.4,1.1,2.5,2.5,2.5
	S645.2,166.7,645.2,165.3z M659.5,168.3c-1,1-1,2.6,0,3.6c1,1,2.6,1,3.6,0c1-1,1-2.6,0-3.6C662.1,167.3,660.5,167.3,659.5,168.3z
	 M654.7,173.1c-1,1-1,2.6,0,3.6c1,1,2.6,1,3.6,0c1-1,1-2.6,0-3.6C657.3,172.1,655.7,172.1,654.7,173.1z M649.9,177.9
	c-1,1-1,2.6,0,3.6c1,1,2.6,1,3.6,0c1-1,1-2.6,0-3.6C652.5,176.9,650.9,176.9,649.9,177.9z M645.1,182.7c-1,1-1,2.6,0,3.6
	c1,1,2.6,1,3.6,0c1-1,1-2.6,0-3.6C647.7,181.7,646.1,181.7,645.1,182.7z M668.6,165.1c0-0.1,0-0.2,0-0.3c0,0,0-0.1,0-0.1
	c-0.1-0.3-0.2-0.6-0.3-0.8c-0.1-0.1-0.2-0.3-0.3-0.4c-0.1-0.1-0.3-0.2-0.4-0.3c-1-0.7-2.3-0.5-3.2,0.3c-0.5,0.5-0.7,1.1-0.7,1.8
	c0,0.7,0.2,1.3,0.7,1.8c0.5,0.5,1.1,0.7,1.7,0.7c0,0,0.1,0,0.1,0c0,0,0.1,0,0.1,0c0.6,0,1.2-0.3,1.7-0.7c0.1-0.1,0.2-0.3,0.3-0.4
	c0.2-0.3,0.3-0.5,0.3-0.8c0,0,0-0.1,0-0.1c0-0.1,0-0.2,0-0.3c0-0.1,0-0.1,0-0.2S668.6,165.2,668.6,165.1z M659.5,162.3
	c1,1,2.6,1,3.6,0c1-1,1-2.6,0-3.6c-1-1-2.6-1-3.6,0C658.5,159.7,658.5,161.3,659.5,162.3z M654.7,157.5c1,1,2.6,1,3.6,0
	c1-1,1-2.6,0-3.6c-1-1-2.6-1-3.6,0C653.7,154.9,653.7,156.5,654.7,157.5z M649.9,152.7c1,1,2.6,1,3.6,0c1-1,1-2.6,0-3.6
	c-1-1-2.6-1-3.6,0C648.9,150.1,648.9,151.7,649.9,152.7z M648.7,147.9c1-1,1-2.6,0-3.6c-1-1-2.6-1-3.6,0c-1,1-1,2.6,0,3.6
	C646.1,148.9,647.7,148.9,648.7,147.9z"/>
<path class="st6" d="M570.5,140.2c0-0.9-0.7-1.6-1.6-1.6c-0.9,0-1.6,0.7-1.6,1.6c0,0.9,0.7,1.6,1.6,1.6
	C569.7,141.8,570.5,141.1,570.5,140.2z M570.5,144.5c0-0.9-0.7-1.6-1.6-1.6c-0.9,0-1.6,0.7-1.6,1.6c0,0.9,0.7,1.6,1.6,1.6
	C569.7,146.2,570.5,145.4,570.5,144.5z M570.5,157.6c0-0.9-0.7-1.6-1.6-1.6c-0.9,0-1.6,0.7-1.6,1.6s0.7,1.6,1.6,1.6
	C569.7,159.2,570.5,158.5,570.5,157.6z M570.5,161.9c0-0.9-0.7-1.6-1.6-1.6c-0.9,0-1.6,0.7-1.6,1.6c0,0.9,0.7,1.6,1.6,1.6
	C569.7,163.6,570.5,162.8,570.5,161.9z M570.5,135.8c0-0.9-0.7-1.6-1.6-1.6c-0.9,0-1.6,0.7-1.6,1.6c0,0.9,0.7,1.6,1.6,1.6
	C569.7,137.5,570.5,136.7,570.5,135.8z M570.5,148.9c0-0.9-0.7-1.6-1.6-1.6c-0.9,0-1.6,0.7-1.6,1.6s0.7,1.6,1.6,1.6
	C569.7,150.5,570.5,149.8,570.5,148.9z M568.8,154.9c0.9,0,1.6-0.7,1.6-1.6s-0.7-1.6-1.6-1.6c-0.9,0-1.6,0.7-1.6,1.6
	S567.9,154.9,568.8,154.9z M566.9,164c-0.6-0.6-1.7-0.6-2.3,0c-0.6,0.6-0.6,1.7,0,2.3c0.6,0.6,1.7,0.6,2.3,0
	C567.6,165.6,567.6,164.6,566.9,164z M563.8,160.9c-0.6-0.6-1.7-0.6-2.3,0c-0.6,0.6-0.6,1.7,0,2.3c0.6,0.6,1.7,0.6,2.3,0
	C564.5,162.6,564.5,161.5,563.8,160.9z M560.8,157.8c-0.6-0.6-1.7-0.6-2.3,0c-0.6,0.6-0.6,1.7,0,2.3c0.6,0.6,1.7,0.6,2.3,0
	C561.4,159.5,561.4,158.5,560.8,157.8z M557.7,154.8c-0.6-0.6-1.7-0.6-2.3,0c-0.6,0.6-0.6,1.7,0,2.3c0.6,0.6,1.7,0.6,2.3,0
	C558.3,156.4,558.3,155.4,557.7,154.8z M569,169.8c0.1,0,0.1,0,0.2,0c0,0,0,0,0.1,0c0.2,0,0.4-0.1,0.5-0.2c0.1-0.1,0.2-0.1,0.3-0.2
	c0.1-0.1,0.1-0.2,0.2-0.3c0.4-0.6,0.3-1.5-0.2-2c-0.3-0.3-0.7-0.5-1.2-0.5s-0.8,0.2-1.2,0.5c-0.3,0.3-0.5,0.7-0.5,1.1c0,0,0,0,0,0.1
	c0,0,0,0,0,0.1c0,0.4,0.2,0.8,0.5,1.1c0.1,0.1,0.2,0.1,0.3,0.2c0.2,0.1,0.3,0.2,0.5,0.2c0,0,0,0,0.1,0c0.1,0,0.1,0,0.2,0
	c0,0,0.1,0,0.1,0C568.9,169.8,568.9,169.8,569,169.8z M570.8,164c-0.6,0.6-0.6,1.7,0,2.3c0.6,0.6,1.7,0.6,2.3,0
	c0.6-0.6,0.6-1.7,0-2.3C572.4,163.3,571.4,163.3,570.8,164z M573.8,160.9c-0.6,0.6-0.6,1.7,0,2.3s1.7,0.6,2.3,0
	c0.6-0.6,0.6-1.7,0-2.3C575.5,160.3,574.5,160.3,573.8,160.9z M576.9,157.8c-0.6,0.6-0.6,1.7,0,2.3c0.6,0.6,1.7,0.6,2.3,0
	c0.6-0.6,0.6-1.7,0-2.3C578.6,157.2,577.5,157.2,576.9,157.8z M580,157.1c0.6,0.6,1.7,0.6,2.3,0c0.6-0.6,0.6-1.7,0-2.3
	c-0.6-0.6-1.7-0.6-2.3,0C579.3,155.4,579.3,156.4,580,157.1z"/>
<ellipse class="st8" cx="327.1" cy="515.6" rx="24.2" ry="10.3"/>
<path class="st6" d="M263.7,513.5c-1,0-1.8,0.8-1.8,1.8c0,1,0.8,1.8,1.8,1.8c1,0,1.8-0.8,1.8-1.8
	C265.5,514.3,264.7,513.5,263.7,513.5z M268.5,513.5c-1,0-1.8,0.8-1.8,1.8c0,1,0.8,1.8,1.8,1.8s1.8-0.8,1.8-1.8
	C270.3,514.3,269.4,513.5,268.5,513.5z M282.8,513.5c-1,0-1.8,0.8-1.8,1.8c0,1,0.8,1.8,1.8,1.8c1,0,1.8-0.8,1.8-1.8
	C284.6,514.3,283.8,513.5,282.8,513.5z M287.6,513.5c-1,0-1.8,0.8-1.8,1.8c0,1,0.8,1.8,1.8,1.8c1,0,1.8-0.8,1.8-1.8
	C289.4,514.3,288.6,513.5,287.6,513.5z M258.9,513.5c-1,0-1.8,0.8-1.8,1.8c0,1,0.8,1.8,1.8,1.8c1,0,1.8-0.8,1.8-1.8
	C260.7,514.3,259.9,513.5,258.9,513.5z M273.2,513.5c-1,0-1.8,0.8-1.8,1.8c0,1,0.8,1.8,1.8,1.8c1,0,1.8-0.8,1.8-1.8
	C275,514.3,274.2,513.5,273.2,513.5z M279.8,515.3c0-1-0.8-1.8-1.8-1.8c-1,0-1.8,0.8-1.8,1.8c0,1,0.8,1.8,1.8,1.8
	C279,517.1,279.8,516.3,279.8,515.3z M289.8,517.4c-0.7,0.7-0.7,1.8,0,2.5c0.7,0.7,1.8,0.7,2.5,0c0.7-0.7,0.7-1.8,0-2.5
	C291.7,516.7,290.5,516.7,289.8,517.4z M286.4,520.8c-0.7,0.7-0.7,1.8,0,2.5c0.7,0.7,1.8,0.7,2.5,0c0.7-0.7,0.7-1.8,0-2.5
	C288.3,520.1,287.1,520.1,286.4,520.8z M283.1,524.2c-0.7,0.7-0.7,1.8,0,2.5c0.7,0.7,1.8,0.7,2.5,0c0.7-0.7,0.7-1.8,0-2.5
	C284.9,523.5,283.8,523.5,283.1,524.2z M279.7,527.5c-0.7,0.7-0.7,1.8,0,2.5c0.7,0.7,1.8,0.7,2.5,0c0.7-0.7,0.7-1.8,0-2.5
	C281.5,526.8,280.4,526.8,279.7,527.5z M296.2,515.1c0-0.1,0-0.1,0-0.2c0,0,0,0,0-0.1c0-0.2-0.1-0.4-0.2-0.6
	c-0.1-0.1-0.1-0.2-0.2-0.3c-0.1-0.1-0.2-0.2-0.3-0.2c-0.7-0.5-1.6-0.4-2.3,0.2c-0.4,0.4-0.5,0.8-0.5,1.3c0,0.5,0.2,0.9,0.5,1.3
	c0.3,0.3,0.8,0.5,1.2,0.5c0,0,0,0,0.1,0c0,0,0,0,0.1,0c0.4,0,0.9-0.2,1.2-0.5c0.1-0.1,0.2-0.2,0.2-0.3c0.1-0.2,0.2-0.4,0.2-0.6
	c0,0,0,0,0-0.1c0-0.1,0-0.1,0-0.2c0,0,0-0.1,0-0.1C296.3,515.2,296.2,515.2,296.2,515.1z M289.8,513.2c0.7,0.7,1.8,0.7,2.5,0
	c0.7-0.7,0.7-1.8,0-2.5c-0.7-0.7-1.8-0.7-2.5,0C289.1,511.3,289.1,512.5,289.8,513.2z M286.4,509.8c0.7,0.7,1.8,0.7,2.5,0
	c0.7-0.7,0.7-1.8,0-2.5c-0.7-0.7-1.8-0.7-2.5,0C285.7,508,285.7,509.1,286.4,509.8z M283.1,506.4c0.7,0.7,1.8,0.7,2.5,0
	c0.7-0.7,0.7-1.8,0-2.5c-0.7-0.7-1.8-0.7-2.5,0C282.4,504.6,282.4,505.7,283.1,506.4z M282.2,503c0.7-0.7,0.7-1.8,0-2.5
	c-0.7-0.7-1.8-0.7-2.5,0c-0.7,0.7-0.7,1.8,0,2.5C280.4,503.7,281.5,503.7,282.2,503z"/>
<path class="st6" d="M390,517.1c1,0,1.8-0.8,1.8-1.8c0-1-0.8-1.8-1.8-1.8c-1,0-1.8,0.8-1.8,1.8C388.2,516.3,389,517.1,390,517.1z
	 M385.3,517.1c1,0,1.8-0.8,1.8-1.8c0-1-0.8-1.8-1.8-1.8c-1,0-1.8,0.8-1.8,1.8C383.5,516.3,384.3,517.1,385.3,517.1z M370.9,517.1
	c1,0,1.8-0.8,1.8-1.8c0-1-0.8-1.8-1.8-1.8s-1.8,0.8-1.8,1.8C369.1,516.3,369.9,517.1,370.9,517.1z M366.1,517.1c1,0,1.8-0.8,1.8-1.8
	c0-1-0.8-1.8-1.8-1.8c-1,0-1.8,0.8-1.8,1.8C364.3,516.3,365.1,517.1,366.1,517.1z M394.8,517.1c1,0,1.8-0.8,1.8-1.8
	c0-1-0.8-1.8-1.8-1.8c-1,0-1.8,0.8-1.8,1.8C393,516.3,393.8,517.1,394.8,517.1z M380.5,517.1c1,0,1.8-0.8,1.8-1.8
	c0-1-0.8-1.8-1.8-1.8c-1,0-1.8,0.8-1.8,1.8C378.7,516.3,379.5,517.1,380.5,517.1z M373.9,515.3c0,1,0.8,1.8,1.8,1.8
	c1,0,1.8-0.8,1.8-1.8c0-1-0.8-1.8-1.8-1.8C374.7,513.5,373.9,514.3,373.9,515.3z M363.9,513.2c0.7-0.7,0.7-1.8,0-2.5
	c-0.7-0.7-1.8-0.7-2.5,0c-0.7,0.7-0.7,1.8,0,2.5C362.1,513.9,363.2,513.9,363.9,513.2z M367.3,509.8c0.7-0.7,0.7-1.8,0-2.5
	c-0.7-0.7-1.8-0.7-2.5,0c-0.7,0.7-0.7,1.8,0,2.5C365.4,510.5,366.6,510.5,367.3,509.8z M370.6,506.4c0.7-0.7,0.7-1.8,0-2.5
	c-0.7-0.7-1.8-0.7-2.5,0c-0.7,0.7-0.7,1.8,0,2.5C368.8,507.1,369.9,507.1,370.6,506.4z M374,503c0.7-0.7,0.7-1.8,0-2.5
	c-0.7-0.7-1.8-0.7-2.5,0c-0.7,0.7-0.7,1.8,0,2.5C372.2,503.7,373.3,503.7,374,503z M357.5,515.4c0,0.1,0,0.1,0,0.2c0,0,0,0,0,0.1
	c0,0.2,0.1,0.4,0.2,0.6c0.1,0.1,0.1,0.2,0.2,0.3c0.1,0.1,0.2,0.2,0.3,0.2c0.7,0.5,1.6,0.4,2.3-0.2c0.4-0.4,0.5-0.8,0.5-1.3
	s-0.2-0.9-0.5-1.3c-0.3-0.3-0.8-0.5-1.2-0.5c0,0,0,0-0.1,0c0,0,0,0-0.1,0c-0.4,0-0.9,0.2-1.2,0.5c-0.1,0.1-0.2,0.2-0.2,0.3
	c-0.1,0.2-0.2,0.4-0.2,0.6c0,0,0,0,0,0.1c0,0.1,0,0.1,0,0.2c0,0,0,0.1,0,0.1S357.5,515.4,357.5,515.4z M363.9,517.4
	c-0.7-0.7-1.8-0.7-2.5,0c-0.7,0.7-0.7,1.8,0,2.5c0.7,0.7,1.8,0.7,2.5,0C364.6,519.2,364.6,518.1,363.9,517.4z M367.3,520.8
	c-0.7-0.7-1.8-0.7-2.5,0c-0.7,0.7-0.7,1.8,0,2.5c0.7,0.7,1.8,0.7,2.5,0C368,522.6,368,521.5,367.3,520.8z M370.6,524.2
	c-0.7-0.7-1.8-0.7-2.5,0c-0.7,0.7-0.7,1.8,0,2.5c0.7,0.7,1.8,0.7,2.5,0C371.3,526,371.3,524.9,370.6,524.2z M371.5,527.5
	c-0.7,0.7-0.7,1.8,0,2.5c0.7,0.7,1.8,0.7,2.5,0c0.7-0.7,0.7-1.8,0-2.5C373.3,526.8,372.2,526.8,371.5,527.5z"/>
<circle class="st0" cx="328.5" cy="446.4" r="45.2"/>
<ellipse class="st8" cx="129.7" cy="517.5" rx="46.9" ry="18.2"/>
<circle class="st0" cx="129.7" cy="416.7" r="45.2"/>
<rect x="465.3" y="277.3" class="st1" width="409.4" height="60.7"/>
<text transform="matrix(1 0 0 1 465.2827 294.6274)"><tspan x="0" y="0" class="st7 st2 st3">Shadow Step 2: Change Shade </tspan><tspan x="0" y="27" class="st7 st4 st5">Increase opacity value   </tspan></text>
<ellipse class="st9" cx="716.2" cy="515" rx="24.2" ry="10.3"/>
<circle class="st0" cx="717.6" cy="445.8" r="45.2"/>
<ellipse class="st8" cx="518.8" cy="516.9" rx="46.9" ry="18.2"/>
<circle class="st0" cx="518.8" cy="416.1" r="45.2"/>
<line class="st10" x1="51.8" y1="243.1" x2="908.2" y2="243.1"/>
<rect x="575.3" y="502.2" class="st1" width="39.2" height="28.7"/>
<text transform="matrix(1 0 0 1 575.2811 519.5187)" class="st6 st2 st3">.2</text>
<rect x="752.6" y="502.6" class="st1" width="39.2" height="28.7"/>
<text transform="matrix(1 0 0 1 752.5523 519.9073)" class="st6 st2 st3">.5</text>
</svg>
