<?xml version="1.0" encoding="utf-8"?>
<!-- Generator: Adobe Illustrator 21.0.0, SVG Export Plug-In . SVG Version: 6.00 Build 0)  -->
<svg version="1.1" id="Layer_1" xmlns="http://www.w3.org/2000/svg" xmlns:xlink="http://www.w3.org/1999/xlink" x="0px" y="0px"
	 viewBox="0 0 775 765" style="enable-background:new 0 0 775 765;" xml:space="preserve">
<style type="text/css">
	.st0{fill:none;stroke:#6666FF;stroke-width:3;stroke-miterlimit:10;}
	.st1{fill:none;}
	.st2{fill:#4056F4;}
	.st3{font-family:'ShortStack';}
	.st4{font-size:15px;}
	.st5{fill:#16C4BF;}
	.st6{fill:#8000FF;}
	.st7{fill:#4056F4;stroke:#4056F4;stroke-width:0.25;stroke-miterlimit:10;}
	.st8{fill:none;stroke:#16C4BF;stroke-width:5;stroke-miterlimit:10;}
	.st9{fill:none;stroke:#8000FF;stroke-miterlimit:10;}
	.st10{font-size:35px;}
</style>
<g>
	<line class="st0" x1="10.8" y1="118.5" x2="757.8" y2="118.5"/>
</g>
<rect x="3.7" y="77.7" class="st1" width="92.6" height="22.8"/>
<text transform="matrix(1 0 0 1 3.7188 88.4701)" class="st2 st3 st4">0%, Start</text>
<rect x="678" y="77.7" class="st1" width="93.3" height="10.9"/>
<text transform="matrix(1 0 0 1 678 88.4809)" class="st2 st3 st4">100%, End</text>
<g>
	<path class="st5" d="M431.5,168.1c-1.6,0-3.6-0.2-6-0.7c-2.3-0.5-4.9-1-7.6-1.6c-2.7-0.6-5.5-1.1-8.4-1.6c-2.9-0.5-5.7-0.7-8.5-0.7
		c-1.2,0-2.4,0.3-3.4,1c-1,0.7-2,1.5-2.8,2.6c-0.9,1-1.7,2.2-2.4,3.4c-0.7,1.2-1.4,2.4-2.1,3.6c0.3,0.5,0.5,1.2,0.6,2.2
		c0.1,1,0,1.9-0.4,2.9c-0.3,1-0.8,1.8-1.5,2.5c-0.7,0.7-1.7,1.1-2.9,1.1c-1.6,0-2.9-0.2-4-0.5c-1.1-0.3-1.9-0.8-2.7-1.3
		c-0.7-0.5-1.3-1-1.8-1.5c-0.5-0.5-0.9-1-1.3-1.4c-2-2-3.6-3.8-4.6-5.5c-1.1-1.6-2.1-3-2.9-4.2c-0.9-1.1-1.9-2-3-2.7
		c-1.1-0.6-2.6-0.9-4.6-0.9c-1.6,0-3.4,0.2-5.4,0.5c-2,0.3-4,0.7-6,1.1c-2,0.4-3.9,0.7-5.8,1.1c-1.8,0.3-3.5,0.5-4.9,0.5
		c-2.1,0-4.1-0.4-6-1.2c-1.9-0.8-3.5-2-4.9-3.7c-1.4-1.6-2.5-3.7-3.3-6.1c-0.8-2.4-1.2-5.3-1.2-8.5c0-1.1,0.1-2.1,0.3-3.1
		c0.2-1,0.5-1.9,0.9-2.7c0.4-0.8,0.9-1.4,1.6-1.9c0.6-0.5,1.4-0.7,2.3-0.7c1.6,0,2.8,0.3,3.6,1c0.8,0.7,1.5,1.6,1.9,2.7
		c0.4,1.1,0.7,2.3,0.9,3.6s0.4,2.6,0.7,3.8c0.3,1.4,0.8,2.2,1.6,2.5c0.8,0.3,1.5,0.4,2.2,0.4c0.8,0,1.8-0.1,3.1-0.2s2.7-0.3,4.3-0.6
		s3.3-0.5,5.1-0.8s3.6-0.5,5.5-0.8c1.8-0.2,3.6-0.4,5.2-0.6c1.6-0.1,3.1-0.2,4.4-0.2c1.8,0,3.5,0.6,5,1.9c1.5,1.2,2.9,2.7,4.1,4.5
		c1.2,1.8,2.4,3.6,3.5,5.4c1.1,1.9,2.2,3.4,3.2,4.6c1.4-2.2,2.7-4.3,3.8-6.4c1.1-2.1,2.3-3.9,3.6-5.5c1.3-1.6,2.7-2.9,4.3-3.9
		c1.6-1,3.6-1.5,5.9-1.5c2,0,4.2,0.2,6.4,0.6s4.5,0.8,6.8,1.3c2.3,0.5,4.4,0.9,6.4,1.3c2,0.4,3.7,0.6,5.2,0.6c1.5,0,2.6-0.1,3.5-0.3
		c0.8-0.2,1.5-0.5,1.9-1s0.7-1.1,0.9-1.9c0.2-0.8,0.4-1.8,0.5-3.1c0.1-1.2,0.3-2.3,0.5-3.2c0.2-1,0.5-1.8,0.9-2.5
		c0.4-0.7,1-1.2,1.7-1.6c0.7-0.4,1.6-0.6,2.7-0.6c1,0,1.9,0.3,2.6,0.8c0.7,0.5,1.3,1.1,1.8,1.9c0.5,0.7,0.8,1.6,1,2.5
		c0.2,0.9,0.4,1.8,0.4,2.7c0,3.7-0.2,6.8-0.7,9.4c-0.5,2.6-1.2,4.7-2.3,6.4c-1,1.7-2.4,2.9-4,3.6S433.7,168.1,431.5,168.1z"/>
</g>
<g>
	<line class="st0" x1="10.8" y1="405.5" x2="757.8" y2="405.5"/>
</g>
<rect x="262" y="195.7" class="st1" width="248.7" height="43.8"/>
<text transform="matrix(1 0 0 1 312.417 206.4701)" class="st6 st3 st4">Transitional Time</text>
<rect x="3.7" y="364.6" class="st1" width="92.6" height="22.8"/>
<text transform="matrix(1 0 0 1 3.7188 375.455)" class="st2 st3 st4">0%, Start</text>
<rect x="326" y="364.6" class="st1" width="116.6" height="14.8"/>
<text transform="matrix(1 0 0 1 326 375.455)" class="st2 st3 st4">50%, Halfway</text>
<rect x="678" y="364.7" class="st1" width="93.3" height="10.9"/>
<text transform="matrix(1 0 0 1 678 375.4657)" class="st2 st3 st4">100%, End</text>
<g>
	<path class="st5" d="M243.5,454.1c-1.6,0-3.6-0.2-6-0.7c-2.3-0.5-4.9-1-7.6-1.6c-2.7-0.6-5.5-1.1-8.4-1.6c-2.9-0.5-5.7-0.7-8.5-0.7
		c-1.2,0-2.4,0.3-3.4,1c-1,0.7-2,1.5-2.8,2.6c-0.9,1-1.7,2.2-2.4,3.4c-0.7,1.2-1.4,2.4-2.1,3.6c0.3,0.5,0.5,1.2,0.6,2.2
		c0.1,1,0,1.9-0.4,2.9c-0.3,1-0.8,1.8-1.5,2.5s-1.7,1.1-2.9,1.1c-1.6,0-2.9-0.2-4-0.5c-1.1-0.3-1.9-0.8-2.7-1.3
		c-0.7-0.5-1.3-1-1.8-1.5c-0.5-0.5-0.9-1-1.3-1.4c-2-2-3.6-3.8-4.6-5.5c-1.1-1.6-2.1-3-2.9-4.2c-0.9-1.1-1.9-2-3-2.7
		c-1.1-0.6-2.6-0.9-4.6-0.9c-1.6,0-3.4,0.2-5.4,0.5c-2,0.3-4,0.7-6,1.1c-2,0.4-3.9,0.7-5.8,1.1c-1.8,0.3-3.5,0.5-4.9,0.5
		c-2.1,0-4.1-0.4-6-1.2c-1.9-0.8-3.5-2-4.9-3.7c-1.4-1.6-2.5-3.7-3.3-6.1c-0.8-2.4-1.2-5.3-1.2-8.5c0-1.1,0.1-2.1,0.3-3.1
		s0.5-1.9,0.9-2.7c0.4-0.8,0.9-1.4,1.6-1.9c0.6-0.5,1.4-0.7,2.3-0.7c1.6,0,2.8,0.3,3.6,1c0.8,0.7,1.5,1.6,1.9,2.7
		c0.4,1.1,0.7,2.3,0.9,3.6c0.2,1.3,0.4,2.6,0.7,3.8c0.3,1.4,0.8,2.2,1.6,2.5c0.8,0.3,1.5,0.4,2.2,0.4c0.8,0,1.8-0.1,3.1-0.2
		c1.3-0.1,2.7-0.3,4.3-0.6s3.3-0.5,5.1-0.8c1.8-0.3,3.6-0.5,5.5-0.8c1.8-0.2,3.6-0.4,5.2-0.6c1.6-0.1,3.1-0.2,4.4-0.2
		c1.8,0,3.5,0.6,5,1.9c1.5,1.2,2.9,2.7,4.1,4.5c1.2,1.8,2.4,3.6,3.5,5.4c1.1,1.9,2.2,3.4,3.2,4.6c1.4-2.2,2.7-4.3,3.8-6.4
		c1.1-2.1,2.3-3.9,3.6-5.5c1.3-1.6,2.7-2.9,4.3-3.9c1.6-1,3.6-1.5,5.9-1.5c2,0,4.2,0.2,6.4,0.6c2.3,0.4,4.5,0.8,6.8,1.3
		c2.3,0.5,4.4,0.9,6.4,1.3c2,0.4,3.7,0.6,5.2,0.6c1.5,0,2.6-0.1,3.5-0.3s1.5-0.5,1.9-1c0.4-0.5,0.7-1.1,0.9-1.9
		c0.2-0.8,0.4-1.8,0.5-3.1c0.1-1.2,0.3-2.3,0.5-3.2c0.2-1,0.5-1.8,0.9-2.5c0.4-0.7,1-1.2,1.7-1.6c0.7-0.4,1.6-0.6,2.7-0.6
		c1,0,1.9,0.3,2.6,0.8c0.7,0.5,1.3,1.1,1.8,1.9c0.5,0.7,0.8,1.6,1,2.5c0.2,0.9,0.4,1.8,0.4,2.7c0,3.7-0.2,6.8-0.7,9.4
		c-0.5,2.6-1.2,4.7-2.3,6.4c-1,1.7-2.4,2.9-4,3.6C247.7,453.7,245.7,454.1,243.5,454.1z"/>
</g>
<rect x="135" y="481.6" class="st1" width="190.3" height="43.8"/>
<text transform="matrix(1 0 0 1 135.0088 492.455)" class="st6 st3 st4">Transitional Time</text>
<g>
	<path class="st5" d="M630.5,463.1c-1.6,0-3.6-0.2-6-0.7c-2.3-0.5-4.9-1-7.6-1.6c-2.7-0.6-5.5-1.1-8.4-1.6c-2.9-0.5-5.7-0.7-8.5-0.7
		c-1.2,0-2.4,0.3-3.4,1c-1,0.7-2,1.5-2.8,2.6c-0.9,1-1.7,2.2-2.4,3.4c-0.7,1.2-1.4,2.4-2.1,3.6c0.3,0.5,0.5,1.2,0.6,2.2
		c0.1,1,0,1.9-0.4,2.9c-0.3,1-0.8,1.8-1.5,2.5s-1.7,1.1-2.9,1.1c-1.6,0-2.9-0.2-4-0.5c-1.1-0.3-1.9-0.8-2.7-1.3
		c-0.7-0.5-1.3-1-1.8-1.5c-0.5-0.5-0.9-1-1.3-1.4c-2-2-3.6-3.8-4.6-5.5c-1.1-1.6-2.1-3-2.9-4.2s-1.9-2-3-2.7
		c-1.1-0.6-2.6-0.9-4.6-0.9c-1.6,0-3.4,0.2-5.4,0.5c-2,0.3-4,0.7-6,1.1s-3.9,0.7-5.8,1.1c-1.8,0.3-3.5,0.5-4.9,0.5
		c-2.1,0-4.1-0.4-6-1.2c-1.9-0.8-3.5-2-4.9-3.7c-1.4-1.6-2.5-3.7-3.3-6.1c-0.8-2.4-1.2-5.3-1.2-8.5c0-1.1,0.1-2.1,0.3-3.1
		c0.2-1,0.5-1.9,0.9-2.7c0.4-0.8,0.9-1.4,1.6-1.9c0.6-0.5,1.4-0.7,2.3-0.7c1.6,0,2.8,0.3,3.6,1c0.8,0.7,1.5,1.6,1.9,2.7
		c0.4,1.1,0.7,2.3,0.9,3.6c0.2,1.3,0.4,2.6,0.7,3.8c0.3,1.4,0.8,2.2,1.6,2.5c0.8,0.3,1.5,0.4,2.2,0.4c0.8,0,1.8-0.1,3.1-0.2
		s2.7-0.3,4.3-0.6c1.6-0.2,3.3-0.5,5.1-0.8c1.8-0.3,3.6-0.5,5.5-0.8c1.8-0.2,3.6-0.4,5.2-0.6c1.6-0.1,3.1-0.2,4.4-0.2
		c1.8,0,3.5,0.6,5,1.9c1.5,1.2,2.9,2.7,4.1,4.5c1.2,1.8,2.4,3.6,3.5,5.4c1.1,1.9,2.2,3.4,3.2,4.6c1.4-2.2,2.7-4.3,3.8-6.4
		c1.1-2.1,2.3-3.9,3.6-5.5c1.3-1.6,2.7-2.9,4.3-3.9s3.6-1.5,5.9-1.5c2,0,4.2,0.2,6.4,0.6s4.5,0.8,6.8,1.3c2.3,0.5,4.4,0.9,6.4,1.3
		c2,0.4,3.7,0.6,5.2,0.6c1.5,0,2.6-0.1,3.5-0.3c0.8-0.2,1.5-0.5,1.9-1c0.4-0.5,0.7-1.1,0.9-1.9c0.2-0.8,0.4-1.8,0.5-3.1
		c0.1-1.2,0.3-2.3,0.5-3.2c0.2-1,0.5-1.8,0.9-2.5c0.4-0.7,1-1.2,1.7-1.6c0.7-0.4,1.6-0.6,2.7-0.6c1,0,1.9,0.3,2.6,0.8
		c0.7,0.5,1.3,1.1,1.8,1.9c0.5,0.7,0.8,1.6,1,2.5c0.2,0.9,0.4,1.8,0.4,2.7c0,3.7-0.2,6.8-0.7,9.4c-0.5,2.6-1.2,4.7-2.3,6.4
		c-1,1.7-2.4,2.9-4,3.6C634.7,462.7,632.7,463.1,630.5,463.1z"/>
</g>
<g>
	<line class="st0" x1="10.8" y1="693.5" x2="757.8" y2="693.5"/>
</g>
<rect x="521" y="490.6" class="st1" width="160.7" height="43.8"/>
<text transform="matrix(1 0 0 1 521.0071 501.455)" class="st6 st3 st4">Transitional Time</text>
<rect x="3.7" y="652.7" class="st1" width="92.6" height="22.8"/>
<text transform="matrix(1 0 0 1 3.7188 663.4702)" class="st2 st3 st4">0%, Start</text>
<rect x="329" y="652.7" class="st1" width="116.6" height="14.8"/>
<text transform="matrix(1 0 0 1 329 663.4702)" class="st2 st3 st4">50%, Halfway</text>
<rect x="678" y="652.7" class="st1" width="93.3" height="10.9"/>
<text transform="matrix(1 0 0 1 678 663.4809)" class="st2 st3 st4">100%, End</text>
<rect x="308" y="745.5" class="st1" width="189.4" height="16.2"/>
<text transform="matrix(1 0 0 1 308.004 756.3364)" class="st6 st3 st4">Transitional Times</text>
<g>
	<path class="st7" d="M255.7,29.9c0-0.2,0.1-0.4,0.2-0.7c0.1-0.3,0.3-0.6,0.5-0.8s0.4-0.4,0.6-0.5c0.2-0.1,0.4,0,0.6,0.3
		c0.4,0.6,0.7,1.1,1,1.5c0.3,0.4,0.6,0.6,0.9,0.8c0.3,0.2,0.7,0.3,1.1,0.3c0.4,0,0.9,0.1,1.4,0.1c0.7,0,1.3-0.1,2-0.3
		s1.3-0.5,1.9-0.9s1-0.7,1.4-1.1s0.5-0.8,0.5-1.1c0-0.3-0.1-0.5-0.3-0.8s-0.5-0.5-0.9-0.7c-0.4-0.2-0.9-0.5-1.4-0.7
		s-1.1-0.4-1.7-0.5c-0.7-0.1-1.4-0.2-2.1-0.3c-0.7-0.1-1.4-0.3-2.1-0.5c-0.7-0.2-1.3-0.4-1.9-0.7s-1.1-0.6-1.6-1s-0.8-0.8-1.1-1.4
		c-0.3-0.5-0.4-1.2-0.4-1.9c0-0.8,0.1-1.6,0.4-2.3s0.6-1.4,1.1-2s1-1.1,1.6-1.6c0.6-0.5,1.2-0.8,1.9-1.2c0.7-0.3,1.4-0.5,2.2-0.7
		s1.5-0.2,2.2-0.2c0.8,0,1.5,0.1,2.1,0.3c0.6,0.2,1.2,0.5,1.6,0.9s0.8,0.8,1,1.2c0.2,0.5,0.4,1,0.4,1.5c0,0.3,0,0.6,0,0.9
		s-0.1,0.7-0.1,1c-0.1,0.3-0.2,0.6-0.4,0.8s-0.5,0.3-0.8,0.3c-0.2,0-0.4,0-0.5-0.1s-0.2-0.2-0.3-0.3s-0.1-0.3-0.1-0.4s0-0.3,0-0.4
		c0-0.6-0.1-1-0.2-1.4s-0.4-0.7-0.7-0.9c-0.3-0.2-0.6-0.4-1-0.4c-0.4-0.1-0.9-0.1-1.4-0.1c-0.4,0-0.8,0.1-1.2,0.2s-0.9,0.3-1.3,0.5
		s-0.9,0.5-1.3,0.8c-0.4,0.3-0.8,0.6-1.1,1c-0.3,0.4-0.6,0.8-0.8,1.2s-0.3,0.8-0.3,1.3c0,0.5,0.2,0.9,0.5,1.3
		c0.3,0.3,0.8,0.6,1.4,0.8c0.6,0.2,1.2,0.4,1.9,0.6s1.4,0.3,2.2,0.4c0.6,0.1,1.2,0.2,1.8,0.4s1.2,0.3,1.7,0.5s1.1,0.4,1.5,0.7
		s0.9,0.6,1.2,1c0.3,0.4,0.6,0.8,0.8,1.3s0.3,1,0.3,1.7c0,0.8-0.2,1.4-0.5,2c-0.3,0.6-0.8,1.1-1.3,1.6s-1.2,0.9-1.8,1.2
		s-1.4,0.6-2.1,0.8c-0.7,0.2-1.3,0.4-2,0.5c-0.6,0.1-1.2,0.1-1.6,0.1c-0.3,0-0.7,0-1.1,0s-0.8-0.1-1.3-0.2c-0.4-0.1-0.8-0.2-1.3-0.4
		s-0.8-0.4-1.1-0.7s-0.6-0.6-0.8-1S255.7,30.4,255.7,29.9z"/>
	<path class="st7" d="M284.6,33.6c-1.1,0-1.9-0.2-2.6-0.6c-0.7-0.4-1.3-1-1.7-1.7s-0.8-1.5-1-2.4c-0.2-0.9-0.4-1.9-0.5-2.9
		s-0.1-2-0.1-3s0-1.9,0-2.7c-0.3,0-0.6,0-0.8,0s-0.5,0-0.7,0c-0.1,0-0.2,0-0.4,0s-0.2,0-0.3,0c-0.1,0-0.3,0-0.4,0s-0.3,0-0.6,0
		c-0.1,0-0.3,0-0.5-0.1s-0.4-0.2-0.6-0.3s-0.4-0.3-0.6-0.4c-0.2-0.2-0.2-0.4-0.2-0.6s0-0.4,0.1-0.6s0.2-0.4,0.4-0.5
		c0.2-0.1,0.4-0.2,0.6-0.3s0.5-0.1,0.7-0.1l3.4,0.1c0-0.3,0.1-0.5,0.1-0.8s0.1-0.5,0.1-0.8c0-0.3,0.1-0.6,0.1-0.9s0-0.5,0-0.8
		s0-0.5,0.1-0.8c0-0.3,0.1-0.5,0.1-0.8c0-0.2,0.1-0.4,0.2-0.5c0.1-0.2,0.3-0.3,0.4-0.5s0.3-0.3,0.5-0.3c0.2-0.1,0.3-0.1,0.5-0.1
		c0.1,0,0.3,0,0.4,0.1s0.3,0.2,0.4,0.3c0.1,0.1,0.2,0.3,0.3,0.4c0.1,0.2,0.1,0.4,0.1,0.6c0,0.4,0,0.8,0,1.1c0,0.3,0,0.5,0,0.7
		c0,0.2,0,0.4-0.1,0.5s0,0.3-0.1,0.5c0,0.1,0,0.2-0.1,0.4c0,0.1,0,0.3,0,0.5c0,0.2,0,0.4-0.1,0.6c0,0.2,0,0.5-0.1,0.8
		c0.6,0,1.2,0,1.7,0c0.6,0,1.1,0,1.6,0c0.5,0,1.1,0,1.6,0s1.2,0,1.8,0c0.2,0,0.4,0.1,0.6,0.2c0.2,0.1,0.3,0.2,0.4,0.4
		c0.1,0.2,0.2,0.3,0.3,0.5c0.1,0.2,0.1,0.3,0.1,0.5c0,0.2,0,0.4-0.1,0.6c-0.1,0.2-0.2,0.3-0.4,0.4s-0.3,0.2-0.5,0.3
		s-0.3,0.1-0.5,0.1l-6.6-0.1c0,0-0.1,0.1-0.1,0.1c0,0.6,0,1.2,0,2s0,1.5,0,2.2c0,0.8,0.1,1.5,0.1,2.2c0.1,0.7,0.2,1.4,0.4,2
		c0.2,0.6,0.5,1,0.8,1.4s0.8,0.5,1.4,0.5c0.2,0,0.4,0,0.7-0.1c0.3-0.1,0.5-0.2,0.7-0.2s0.5-0.2,0.7-0.3s0.4-0.2,0.5-0.3
		c0.1-0.1,0.3-0.2,0.5-0.3s0.4-0.1,0.5-0.1c0.4,0,0.7,0.1,0.8,0.3c0.1,0.2,0.2,0.5,0.2,0.8c0,0.1,0,0.3-0.1,0.4s-0.1,0.3-0.2,0.4
		c-0.2,0.3-0.5,0.5-0.8,0.8s-0.7,0.5-1.1,0.8s-0.8,0.4-1.1,0.6S284.9,33.6,284.6,33.6z"/>
	<path class="st7" d="M293.8,26.5c0-0.8,0.1-1.7,0.4-2.6c0.2-0.9,0.6-1.8,1-2.5c0.4-0.8,1-1.5,1.6-2.2c0.6-0.7,1.3-1.3,2.1-1.8
		s1.6-0.9,2.5-1.2c0.9-0.3,1.8-0.4,2.8-0.4c0.7,0,1.5,0.1,2.1,0.3s1.3,0.5,1.9,0.8s1.2,0.8,1.7,1.2c0.5,0.5,0.9,1,1.3,1.5
		c0.4,0.5,0.6,1.1,0.8,1.7s0.3,1.2,0.3,1.8c0,0.5,0,1-0.1,1.4c-0.1,0.4-0.1,0.8-0.2,1.2c-0.1,0.4-0.1,0.8-0.2,1.3
		c-0.1,0.4-0.1,0.9-0.1,1.5c0,0.5,0,0.9,0.1,1.2s0.2,0.6,0.3,0.8s0.3,0.3,0.5,0.4c0.2,0.1,0.4,0.1,0.7,0.1c0.1,0,0.1,0,0.2-0.1
		s0.2-0.1,0.3-0.1c0.1,0,0.2-0.1,0.2-0.1c0.1,0,0.1-0.1,0.1-0.1c0.1-0.1,0.2-0.2,0.3-0.3c0.1-0.1,0.3-0.1,0.5-0.1
		c0.4,0,0.7,0.1,0.9,0.3s0.3,0.5,0.3,0.9c0,0.3-0.1,0.5-0.2,0.8s-0.4,0.5-0.7,0.8s-0.6,0.4-1,0.6s-0.8,0.2-1.3,0.2
		c-0.9,0-1.8-0.3-2.4-0.8c-0.7-0.5-1.2-1.3-1.4-2.2c-0.4,0.4-0.8,0.8-1.3,1.2c-0.5,0.4-1,0.7-1.6,1c-0.6,0.3-1.2,0.5-1.9,0.7
		c-0.7,0.2-1.5,0.2-2.3,0.2c-0.6,0-1.3-0.1-1.9-0.3c-0.7-0.2-1.3-0.4-1.9-0.7s-1.2-0.7-1.7-1.1c-0.5-0.4-1-0.9-1.4-1.5
		c-0.4-0.5-0.7-1.1-1-1.7S293.8,27.2,293.8,26.5z M296.8,26.5c0,0.7,0.2,1.3,0.5,1.8c0.4,0.6,0.8,1,1.4,1.4s1.2,0.7,1.9,0.9
		c0.7,0.2,1.4,0.3,2.1,0.3c0.9,0,1.7-0.2,2.5-0.5c0.8-0.3,1.4-0.8,1.9-1.3s1-1.2,1.3-1.8s0.5-1.4,0.5-2c0-0.4,0.1-0.7,0.2-1
		c0.2-0.3,0.3-0.6,0.5-0.8c0-0.1,0.1-0.1,0.1-0.2c0-0.1,0-0.2,0-0.4c0-0.1,0-0.2,0-0.3s0-0.2,0-0.2c0-0.2-0.1-0.5-0.2-0.8
		s-0.4-0.6-0.7-0.8c-0.3-0.3-0.6-0.6-0.9-0.8c-0.3-0.3-0.7-0.5-1.1-0.7s-0.7-0.4-1.1-0.5c-0.4-0.1-0.7-0.2-1-0.2
		c-0.8,0-1.6,0.1-2.3,0.3c-0.7,0.2-1.3,0.5-1.9,0.9s-1.1,0.8-1.6,1.4c-0.5,0.5-0.8,1.1-1.1,1.7c-0.3,0.6-0.5,1.2-0.7,1.8
		S296.8,25.9,296.8,26.5z"/>
	<path class="st7" d="M319.3,31.3c0-0.3,0-0.6,0-0.9s0-0.6,0-0.9c0-0.7,0-1.3-0.1-2c-0.1-0.6-0.1-1.2-0.1-1.8s0-1.2,0.1-1.6l0.5-6.4
		c0-0.5,0.2-0.9,0.4-1.2c0.2-0.3,0.6-0.5,1.2-0.5c0.2,0,0.4,0,0.6,0.1c0.2,0.1,0.3,0.2,0.5,0.3c0.1,0.1,0.2,0.3,0.3,0.4
		c0.1,0.2,0.1,0.3,0.2,0.5c0.4-0.3,0.9-0.6,1.5-0.9s1.1-0.4,1.6-0.6s1.1-0.3,1.7-0.3s1.1-0.1,1.7-0.1c0.5,0,1,0,1.5,0.1
		c0.6,0.1,1.1,0.2,1.6,0.4s1,0.5,1.3,0.8s0.5,0.9,0.5,1.5c0,0.4-0.1,0.8-0.4,1.1c-0.3,0.3-0.6,0.4-1.1,0.4c-0.3,0-0.6-0.1-0.8-0.2
		s-0.4-0.3-0.5-0.5c-0.1-0.1-0.1-0.2-0.2-0.2s-0.2-0.2-0.4-0.2c-0.2-0.1-0.4-0.1-0.6-0.2s-0.6-0.1-1-0.1c-1.2,0-2.3,0.1-3.2,0.4
		s-1.6,0.6-2.2,1.2s-1,1.2-1.3,2.1s-0.4,1.9-0.4,3c0,0.4,0,0.9,0,1.2s0,0.8,0.1,1.2s0.1,0.8,0.1,1.2s0.1,0.8,0.1,1.3
		c0,0.3,0.1,0.7,0.1,1.1s0.1,0.7,0.1,1.1c0,0.1,0,0.2-0.1,0.4s-0.1,0.3-0.3,0.5c-0.1,0.2-0.3,0.3-0.5,0.4c-0.2,0.1-0.4,0.2-0.7,0.2
		c-0.4,0-0.7,0-0.9-0.1c-0.2-0.1-0.4-0.2-0.6-0.4c-0.1-0.2-0.2-0.4-0.3-0.7C319.3,32,319.3,31.7,319.3,31.3z"/>
	<path class="st7" d="M346.6,33.6c-1.1,0-1.9-0.2-2.6-0.6c-0.7-0.4-1.3-1-1.7-1.7s-0.8-1.5-1-2.4c-0.2-0.9-0.4-1.9-0.5-2.9
		s-0.1-2-0.1-3s0-1.9,0-2.7c-0.3,0-0.6,0-0.8,0s-0.5,0-0.7,0c-0.1,0-0.2,0-0.4,0s-0.2,0-0.3,0c-0.1,0-0.3,0-0.4,0s-0.3,0-0.6,0
		c-0.1,0-0.3,0-0.5-0.1s-0.4-0.2-0.6-0.3s-0.4-0.3-0.6-0.4c-0.2-0.2-0.2-0.4-0.2-0.6s0-0.4,0.1-0.6s0.2-0.4,0.4-0.5
		c0.2-0.1,0.4-0.2,0.6-0.3s0.5-0.1,0.7-0.1l3.4,0.1c0-0.3,0.1-0.5,0.1-0.8s0.1-0.5,0.1-0.8c0-0.3,0.1-0.6,0.1-0.9s0-0.5,0-0.8
		s0-0.5,0.1-0.8c0-0.3,0.1-0.5,0.1-0.8c0-0.2,0.1-0.4,0.2-0.5c0.1-0.2,0.3-0.3,0.4-0.5s0.3-0.3,0.5-0.3c0.2-0.1,0.3-0.1,0.5-0.1
		c0.1,0,0.3,0,0.4,0.1s0.3,0.2,0.4,0.3c0.1,0.1,0.2,0.3,0.3,0.4c0.1,0.2,0.1,0.4,0.1,0.6c0,0.4,0,0.8,0,1.1c0,0.3,0,0.5,0,0.7
		c0,0.2,0,0.4-0.1,0.5s0,0.3-0.1,0.5c0,0.1,0,0.2-0.1,0.4c0,0.1,0,0.3,0,0.5c0,0.2,0,0.4-0.1,0.6c0,0.2,0,0.5-0.1,0.8
		c0.6,0,1.2,0,1.7,0c0.6,0,1.1,0,1.6,0c0.5,0,1.1,0,1.6,0s1.2,0,1.8,0c0.2,0,0.4,0.1,0.6,0.2c0.2,0.1,0.3,0.2,0.4,0.4
		c0.1,0.2,0.2,0.3,0.3,0.5c0.1,0.2,0.1,0.3,0.1,0.5c0,0.2,0,0.4-0.1,0.6c-0.1,0.2-0.2,0.3-0.4,0.4s-0.3,0.2-0.5,0.3
		s-0.3,0.1-0.5,0.1l-6.6-0.1c0,0-0.1,0.1-0.1,0.1c0,0.6,0,1.2,0,2s0,1.5,0,2.2c0,0.8,0.1,1.5,0.1,2.2c0.1,0.7,0.2,1.4,0.4,2
		c0.2,0.6,0.5,1,0.8,1.4s0.8,0.5,1.4,0.5c0.2,0,0.4,0,0.7-0.1c0.3-0.1,0.5-0.2,0.7-0.2s0.5-0.2,0.7-0.3s0.4-0.2,0.5-0.3
		c0.1-0.1,0.3-0.2,0.5-0.3s0.4-0.1,0.5-0.1c0.4,0,0.7,0.1,0.8,0.3c0.1,0.2,0.2,0.5,0.2,0.8c0,0.1,0,0.3-0.1,0.4s-0.1,0.3-0.2,0.4
		c-0.2,0.3-0.5,0.5-0.8,0.8s-0.7,0.5-1.1,0.8s-0.8,0.4-1.1,0.6S346.9,33.6,346.6,33.6z"/>
	<path class="st7" d="M356.4,34.4c0.3-1.2,0.7-2.6,1.1-4s0.8-2.9,1.2-4.4s0.9-3.1,1.3-4.7c0.5-1.6,0.9-3.1,1.4-4.7
		c0.5-1.5,1-3,1.4-4.5c0.5-1.4,1-2.8,1.4-4c0.1-0.2,0.2-0.4,0.3-0.6s0.2-0.4,0.4-0.6c0.2-0.2,0.3-0.3,0.5-0.4s0.4-0.2,0.6-0.2
		c0.4,0,0.7,0.1,1,0.4s0.4,0.6,0.4,1.1c0,0.1,0,0.2,0,0.2s0,0.2-0.1,0.2c-0.4,0.8-0.7,1.7-1.1,2.8c-0.4,1-0.8,2.1-1.2,3.2
		s-0.7,2.1-1.1,3.2s-0.6,2-0.9,2.9c-0.3,1-0.5,2-0.8,3c-0.3,1-0.5,2.1-0.8,3.1c-0.2,1-0.5,2-0.7,2.9s-0.4,1.8-0.6,2.5
		c-0.2,0.7-0.3,1.4-0.5,1.8s-0.2,0.8-0.2,1c-0.1,0.2-0.1,0.4-0.2,0.7c-0.1,0.2-0.1,0.5-0.2,0.7c-0.1,0.2-0.2,0.4-0.4,0.5
		c-0.2,0.1-0.4,0.2-0.6,0.2c-0.2,0-0.4,0-0.6-0.1s-0.5-0.1-0.7-0.2c-0.2-0.1-0.4-0.2-0.5-0.4c-0.1-0.2-0.2-0.4-0.2-0.6c0,0,0,0,0,0
		c0,0,0-0.1,0-0.1c0-0.1,0-0.2,0.1-0.3C356.3,34.9,356.3,34.7,356.4,34.4z"/>
	<path class="st7" d="M371.9,23c-0.1-0.2-0.2-0.4-0.2-0.6c0-0.2,0-0.4,0-0.6c0-0.2,0-0.4,0.1-0.6s0.1-0.4,0.2-0.6
		c-0.1-0.9-0.1-1.8-0.2-2.7c0-0.9-0.1-1.8-0.1-2.8c0-0.2,0-0.4,0-0.7c0-0.3,0-0.5,0-0.8c0-0.3,0.1-0.5,0.1-0.8
		c0.1-0.3,0.1-0.5,0.3-0.7c0.1-0.2,0.3-0.4,0.5-0.5c0.2-0.1,0.5-0.2,0.8-0.2c0.2,0,0.5,0,0.7,0.1c0.2,0.1,0.4,0.2,0.7,0.3
		c0.2,0.1,0.4,0.2,0.7,0.3c0.2,0.1,0.5,0.1,0.7,0.1c0.6,0,1.4,0,2.3,0c0.9,0,1.8,0,2.7-0.1c0.5,0,1,0,1.5,0s1,0,1.5,0s1,0,1.4,0
		s0.9,0,1.3,0c0.5,0,0.9,0,1.2,0c0.3,0,0.6,0.1,0.8,0.2c0.2,0.1,0.3,0.3,0.4,0.5c0.1,0.2,0.1,0.5,0.1,0.9c0,0.2,0,0.3-0.1,0.5
		c-0.1,0.2-0.2,0.3-0.3,0.4s-0.3,0.2-0.5,0.3s-0.3,0.1-0.5,0.1c-2.1,0-3.8,0-5.3,0c-1.5,0-2.7,0-3.6,0s-1.7,0-2.3,0s-1,0-1.3,0
		c-0.3,0-0.5,0-0.5,0c-0.1,0-0.1,0-0.1,0v5.2c0,0.1,0,0.2,0.1,0.2c0.4,0,0.8,0,1.2,0s0.8,0,1.3,0s0.9,0,1.4,0c0.5,0,1.1,0,1.7,0
		c0.4,0,0.8,0,1.2-0.1c0.4-0.1,0.8-0.1,1.2-0.1s0.8,0.1,1.1,0.4c0.3,0.3,0.5,0.7,0.5,1.2c0,0.1,0,0.2-0.1,0.3
		c-0.1,0.1-0.1,0.3-0.2,0.4c-0.1,0.1-0.2,0.3-0.4,0.4s-0.3,0.2-0.6,0.2h-6.9c-0.3,0-0.6,0-0.7,0s-0.3,0-0.4,0s-0.2,0-0.2,0
		c0,0,0,0,0,0.1c0,0.2,0,0.3,0.1,0.5s0.1,0.3,0.1,0.5c0,0.1,0,0.2,0,0.4c0,0.2,0,0.4,0,0.7c0,0.3,0,0.6,0,0.9c0,0.3,0,0.6,0,1v2.6
		c0,0.1,0,0.1,0.1,0.2s0.3,0.1,0.6,0.1c0.2,0,0.5,0,0.8,0s0.6,0,0.8,0.1c0.4,0,0.8,0,1.4,0.1s1.1,0,1.7,0.1c0.6,0,1.1,0,1.7,0
		c0.6,0,1,0,1.4,0c0.4,0,0.7,0,0.9,0s0.2,0,0,0c-0.2,0-0.3,0-0.3,0s0.1,0,0.3,0c0.2,0,0.4,0,0.6,0s0.5,0,0.8,0s0.5,0,0.7,0
		s0.4,0,0.5,0c0.3,0,0.5,0.1,0.7,0.2s0.3,0.3,0.4,0.4c0.1,0.2,0.2,0.4,0.2,0.6s0.1,0.4,0.1,0.6c0,0.3-0.1,0.5-0.2,0.7
		s-0.3,0.4-0.5,0.5c-0.2,0.1-0.4,0.2-0.7,0.3c-0.3,0.1-0.6,0.1-0.9,0.1c-0.2,0-0.5,0-0.8-0.1c-0.3-0.1-0.6-0.2-0.9-0.3
		c-0.1,0-0.4-0.1-0.7-0.1s-0.8-0.1-1.4-0.1c-0.6,0-1.2-0.1-1.9-0.1s-1.6,0-2.4,0c-0.7,0-1.4,0-2.1,0.1s-1.5,0.1-2.2,0.1
		c-0.3,0-0.5,0-0.7-0.1c-0.2-0.1-0.4-0.2-0.6-0.4s-0.3-0.4-0.4-0.6c-0.1-0.2-0.1-0.5-0.1-0.8V23z"/>
	<path class="st7" d="M392.8,31.9c0-0.2,0-0.4,0-0.7s0-0.6,0-1.1c0-0.7,0-1.5-0.1-2.3s-0.1-1.7-0.1-2.5c0-0.9-0.1-1.8-0.1-2.7
		c0-0.9-0.1-1.9-0.1-2.9c0-0.4,0-0.8,0-1.3c0-0.5,0.1-0.9,0.2-1.3c0.1-0.4,0.2-0.7,0.4-1c0.2-0.3,0.4-0.4,0.7-0.4
		c0.3,0,0.6,0.1,0.8,0.3c0.2,0.2,0.3,0.5,0.4,0.8c0.1,0.3,0.1,0.7,0.2,1.1c0,0.4,0,0.8,0,1.2c0.4-0.5,0.9-1,1.4-1.5
		c0.6-0.4,1.2-0.8,1.9-1.1c0.7-0.3,1.3-0.6,2-0.7s1.3-0.3,1.9-0.3c1.1,0,2,0.2,2.8,0.5c0.8,0.3,1.5,0.7,2.1,1.2s1.1,1.1,1.5,1.8
		c0.4,0.7,0.7,1.4,0.9,2.2s0.4,1.6,0.5,2.4c0.1,0.8,0.2,1.6,0.2,2.3v2.7c0,0.7,0,1.4-0.1,2s-0.2,1.2-0.4,1.7
		c-0.2,0.5-0.4,0.9-0.6,1.2c-0.3,0.3-0.5,0.5-0.9,0.5c-0.2,0-0.5,0-0.7,0s-0.4-0.1-0.5-0.2s-0.3-0.3-0.4-0.6s-0.1-0.6-0.1-1.1
		c0-0.4,0-0.9,0.1-1.3s0.2-0.9,0.3-1.4c0.1-0.5,0.2-0.9,0.3-1.4s0.1-0.9,0.1-1.4c0-0.5,0-1,0-1.5c0-0.5-0.1-1-0.2-1.5
		s-0.2-1-0.4-1.4c-0.2-0.5-0.4-0.9-0.6-1.3c-0.2-0.3-0.4-0.7-0.7-1c-0.2-0.3-0.5-0.6-0.8-0.9s-0.7-0.5-1.2-0.6s-1-0.2-1.7-0.2
		c-0.5,0-1,0.1-1.6,0.3c-0.6,0.2-1.2,0.5-1.8,0.8c-0.6,0.3-1.2,0.8-1.7,1.3c-0.5,0.5-1,1-1.4,1.6v4.1c0,0.1,0,0.3,0,0.5
		c0,0.2,0,0.5,0.1,0.7s0.1,0.6,0.1,0.9c0,0.3,0.1,0.6,0.2,0.9c0.1,0.5,0.2,0.9,0.3,1.3s0.2,0.8,0.2,1.1c0,0.2,0,0.5,0,0.7
		s-0.1,0.4-0.2,0.6c-0.1,0.2-0.2,0.3-0.4,0.4s-0.5,0.1-0.8,0.1c-0.2,0-0.5,0-0.7-0.1s-0.5-0.1-0.7-0.2s-0.4-0.3-0.5-0.6
		S392.8,32.3,392.8,31.9z"/>
	<path class="st7" d="M414.8,25.4c0-0.8,0.1-1.6,0.3-2.4c0.2-0.8,0.5-1.6,0.9-2.3s0.9-1.4,1.4-2s1.2-1.1,2-1.6
		c0.8-0.4,1.6-0.8,2.5-1c0.9-0.2,1.9-0.4,3-0.3c0.5,0,1,0.1,1.5,0.2c0.5,0.2,1,0.4,1.4,0.6c0.4,0.2,0.9,0.5,1.2,0.8
		c0.4,0.3,0.7,0.6,1,0.9c0-0.1,0-0.1,0-0.2s0-0.2,0-0.3c0-0.1,0-0.2,0-0.3c0-0.1,0-0.2,0-0.2v-6c0-1.1,0.6-1.6,1.7-1.6
		c0.2,0,0.4,0,0.6,0.1s0.3,0.2,0.4,0.4c0.1,0.2,0.2,0.3,0.2,0.5c0,0.2,0.1,0.4,0.1,0.6c0,0.1,0,0.2,0,0.5s0,0.4,0,0.7
		c0,0.2,0,0.5,0,0.7c0,0.2,0,0.4,0,0.5c0,0.5,0,1.1,0.1,2c0,0.8,0,1.8,0,3c0,1,0,2,0,3s-0.1,2.1-0.1,3.2c0,1.1-0.1,2.2-0.1,3.3
		c0,1.1,0,2.1,0,3.2c0,0.8-0.1,1.4-0.4,1.8s-0.7,0.6-1.3,0.6c-0.2,0-0.4-0.1-0.6-0.2s-0.3-0.2-0.5-0.4c-0.1-0.2-0.2-0.4-0.3-0.6
		c-0.1-0.2-0.2-0.5-0.2-0.7c-0.3,0.3-0.7,0.6-1.1,0.9c-0.5,0.2-1,0.4-1.6,0.6s-1.2,0.3-1.9,0.3s-1.3,0.1-1.9,0.1
		c-1.4,0-2.6-0.2-3.6-0.6s-1.9-1-2.6-1.7c-0.7-0.7-1.2-1.6-1.5-2.6C415,27.7,414.8,26.6,414.8,25.4z M417.9,25.4
		c0,0.9,0.2,1.7,0.5,2.4s0.7,1.3,1.2,1.8s1.1,0.9,1.8,1.1c0.7,0.3,1.4,0.4,2.2,0.4c1,0,1.9-0.1,2.7-0.3c0.8-0.2,1.4-0.5,1.9-0.7
		c0.5-0.3,0.9-0.6,1.1-0.9c0.3-0.3,0.4-0.6,0.5-0.9c0.1-0.3,0.1-0.7,0.1-1c0-0.3,0.1-0.7,0.1-1c0-0.3,0-0.7,0-1.1c0-0.4,0-0.8,0-1.2
		c0-0.7-0.1-1.4-0.4-2.1c-0.3-0.7-0.7-1.2-1.1-1.7s-1-0.9-1.6-1.2s-1.2-0.5-1.9-0.5c-1.1,0-2.1,0.2-3,0.5c-0.9,0.3-1.6,0.8-2.2,1.5
		c-0.6,0.6-1,1.4-1.4,2.2C418,23.5,417.9,24.4,417.9,25.4z"/>
	<path class="st7" d="M450.1,22.4c0-1.4,0.2-2.6,0.5-3.7s0.7-2.1,1.3-2.9c0.5-0.8,1.2-1.6,1.9-2.2c0.7-0.6,1.6-1.1,2.4-1.5
		c0.9-0.4,1.8-0.7,2.7-0.8c1-0.2,1.9-0.3,2.9-0.3c1.7,0,3.2,0.3,4.5,0.8s2.5,1.3,3.4,2.4s1.6,2.3,2.1,3.8c0.5,1.5,0.7,3.1,0.7,5
		c0,1.1-0.1,2.1-0.4,3c-0.3,1-0.7,1.8-1.2,2.6c-0.5,0.8-1.1,1.5-1.8,2.2c-0.7,0.6-1.5,1.2-2.3,1.6s-1.7,0.8-2.6,1s-1.9,0.4-2.8,0.4
		c-1,0-2-0.2-3-0.5c-1-0.3-1.9-0.8-2.7-1.3c-0.8-0.6-1.6-1.2-2.3-1.9s-1.3-1.5-1.8-2.4c-0.5-0.8-0.9-1.7-1.2-2.6
		C450.2,24.1,450.1,23.3,450.1,22.4z M453,21.9c0,0.7,0.1,1.5,0.3,2.2s0.5,1.4,0.9,2.1c0.4,0.7,0.8,1.3,1.3,1.9
		c0.5,0.6,1.1,1.1,1.7,1.5c0.6,0.4,1.3,0.8,2,1s1.4,0.4,2.1,0.4c1.1,0,2.2-0.2,3.2-0.6c1-0.4,1.9-0.9,2.7-1.6s1.4-1.6,1.8-2.7
		s0.7-2.3,0.7-3.7c0-1.4-0.2-2.6-0.6-3.7c-0.4-1.1-0.9-2-1.6-2.8s-1.5-1.3-2.4-1.8s-1.9-0.6-3-0.6c-1.2,0-2.3,0.2-3.4,0.5
		s-2.1,0.8-2.9,1.5s-1.5,1.5-2.1,2.6C453.3,19.3,453,20.5,453,21.9z"/>
	<path class="st7" d="M477.9,31.9c0-0.2,0-0.4,0-0.7s0-0.6,0-1.1c0-0.7,0-1.5-0.1-2.3s-0.1-1.7-0.1-2.5c0-0.9-0.1-1.8-0.1-2.7
		c0-0.9-0.1-1.9-0.1-2.9c0-0.4,0-0.8,0-1.3c0-0.5,0.1-0.9,0.2-1.3c0.1-0.4,0.2-0.7,0.4-1c0.2-0.3,0.4-0.4,0.7-0.4
		c0.3,0,0.6,0.1,0.8,0.3c0.2,0.2,0.3,0.5,0.4,0.8c0.1,0.3,0.1,0.7,0.2,1.1c0,0.4,0,0.8,0,1.2c0.4-0.5,0.9-1,1.4-1.5
		c0.6-0.4,1.2-0.8,1.9-1.1s1.3-0.6,2-0.7c0.7-0.2,1.3-0.3,1.9-0.3c1.1,0,2,0.2,2.8,0.5c0.8,0.3,1.5,0.7,2.1,1.2
		c0.6,0.5,1.1,1.1,1.5,1.8c0.4,0.7,0.7,1.4,0.9,2.2s0.4,1.6,0.5,2.4c0.1,0.8,0.2,1.6,0.2,2.3v2.7c0,0.7,0,1.4-0.1,2
		c-0.1,0.6-0.2,1.2-0.4,1.7c-0.2,0.5-0.4,0.9-0.6,1.2c-0.3,0.3-0.5,0.5-0.9,0.5c-0.2,0-0.5,0-0.7,0c-0.2,0-0.4-0.1-0.5-0.2
		c-0.2-0.1-0.3-0.3-0.4-0.6s-0.1-0.6-0.1-1.1c0-0.4,0-0.9,0.1-1.3s0.2-0.9,0.3-1.4s0.2-0.9,0.3-1.4s0.1-0.9,0.1-1.4c0-0.5,0-1,0-1.5
		c0-0.5-0.1-1-0.2-1.5s-0.2-1-0.4-1.4c-0.2-0.5-0.4-0.9-0.6-1.3c-0.2-0.3-0.4-0.7-0.7-1c-0.2-0.3-0.5-0.6-0.8-0.9
		c-0.3-0.3-0.7-0.5-1.2-0.6s-1-0.2-1.7-0.2c-0.5,0-1,0.1-1.6,0.3c-0.6,0.2-1.2,0.5-1.8,0.8c-0.6,0.3-1.2,0.8-1.7,1.3
		c-0.5,0.5-1,1-1.4,1.6v4.1c0,0.1,0,0.3,0,0.5s0,0.5,0.1,0.7c0,0.3,0.1,0.6,0.1,0.9s0.1,0.6,0.2,0.9c0.1,0.5,0.2,0.9,0.3,1.3
		c0.1,0.4,0.2,0.8,0.2,1.1c0,0.2,0,0.5,0,0.7s-0.1,0.4-0.2,0.6c-0.1,0.2-0.2,0.3-0.4,0.4s-0.5,0.1-0.8,0.1c-0.2,0-0.5,0-0.7-0.1
		s-0.5-0.1-0.7-0.2c-0.2-0.1-0.4-0.3-0.5-0.6S477.9,32.3,477.9,31.9z"/>
	<path class="st7" d="M501.2,30.5c-0.1-0.2-0.1-0.5-0.1-0.8s0-0.6,0-0.9c0-0.7,0-1.4,0-2.1c0-0.7-0.1-1.4-0.1-2.1s-0.1-1.4-0.1-2.1
		c0-0.7,0-1.4,0-2.2l0.1-8.4c0-0.7,0.1-1.3,0.3-1.7s0.6-0.7,1.2-0.7c0.2,0,0.4,0,0.6,0.1s0.3,0.2,0.4,0.3c0.1,0.1,0.2,0.3,0.3,0.4
		s0.1,0.3,0.1,0.5v11.8c0,1.2,0,2.3,0.1,3.5c0,1.2,0.2,2.4,0.4,3.6c0,0.2,0.1,0.4,0.2,0.5c0.1,0.1,0.2,0.2,0.2,0.3
		c0.1,0.1,0.2,0.1,0.3,0.1s0.2,0,0.3,0c0.2,0,0.3,0,0.4-0.1c0.1-0.1,0.2-0.1,0.2-0.2c0.1-0.1,0.1-0.1,0.2-0.2
		c0.1-0.1,0.1-0.1,0.2-0.2c0.1-0.1,0.2-0.1,0.3-0.1c0.1,0,0.3,0,0.4,0c0.2,0,0.4,0,0.5,0.1c0.1,0.1,0.3,0.2,0.4,0.3s0.2,0.3,0.2,0.4
		c0,0.2,0.1,0.3,0.1,0.5c0,0.3-0.1,0.6-0.3,0.9c-0.2,0.3-0.4,0.5-0.8,0.7s-0.6,0.3-1,0.5s-0.7,0.2-1,0.2c-1.1,0-2-0.2-2.7-0.7
		C501.8,32.2,501.4,31.5,501.2,30.5z"/>
	<path class="st7" d="M516.7,31.4c-0.3-0.5-0.6-1.1-1-1.8c-0.4-0.7-0.7-1.4-1.1-2.2c-0.4-0.8-0.8-1.5-1.1-2.3s-0.7-1.5-1.1-2.2
		c-0.3-0.7-0.6-1.3-0.9-1.9c-0.3-0.6-0.5-1-0.7-1.4c-0.2-0.4-0.3-0.7-0.4-1s-0.1-0.5-0.1-0.6c0-0.3,0-0.5,0.1-0.7s0.2-0.4,0.4-0.6
		c0.2-0.2,0.4-0.3,0.6-0.4s0.4-0.1,0.7-0.1c0.2,0,0.4,0,0.5,0.1s0.2,0.2,0.3,0.3c0.1,0.1,0.2,0.3,0.2,0.4c0.1,0.2,0.1,0.3,0.2,0.5
		c0.2,0.6,0.5,1.2,0.8,1.9c0.3,0.7,0.6,1.3,0.9,2c0.3,0.7,0.6,1.4,1,2c0.3,0.7,0.6,1.3,0.9,1.9c0.3,0.6,0.5,1.1,0.8,1.6
		c0.2,0.5,0.4,0.9,0.6,1.2l6.4-11.1c0.3-0.5,0.8-1,1.3-1.3s1-0.5,1.6-0.5c0.1,0,0.3,0,0.4,0.1c0.1,0.1,0.2,0.2,0.3,0.3
		c0.1,0.1,0.2,0.2,0.2,0.4s0.1,0.2,0.1,0.4c0,0.2,0,0.3-0.1,0.5c0,0.1-0.1,0.3-0.3,0.5s-0.3,0.5-0.6,0.8s-0.6,0.8-1,1.4
		s-0.9,1.3-1.4,2.2c-0.6,0.9-1.2,2-2,3.2l-4,7.4c-0.4,0.6-0.7,1.3-1.1,2s-0.7,1.5-1,2.2c-0.3,0.7-0.5,1.4-0.7,2s-0.3,1.1-0.3,1.4
		c0,0.2,0,0.4-0.1,0.6s-0.2,0.4-0.3,0.6s-0.3,0.3-0.5,0.5c-0.2,0.1-0.4,0.2-0.6,0.2c-0.2,0-0.4-0.1-0.6-0.2
		c-0.2-0.1-0.5-0.2-0.7-0.4c-0.2-0.2-0.4-0.4-0.6-0.6c-0.2-0.2-0.2-0.4-0.2-0.6c0-0.3,0.1-0.6,0.2-1c0.1-0.4,0.3-0.9,0.5-1.4
		s0.4-1,0.7-1.5c0.3-0.5,0.5-1,0.8-1.5L516.7,31.4z"/>
	<path class="st7" d="M533.5,23.5c-0.4,0-0.7,0-1-0.1c-0.3-0.1-0.6-0.2-0.8-0.4c-0.2-0.2-0.4-0.5-0.5-0.8s-0.2-0.7-0.2-1.2
		c0-0.3,0.1-0.5,0.3-0.7c0.2-0.2,0.4-0.4,0.7-0.6c0.3-0.2,0.6-0.3,0.9-0.4c0.3-0.1,0.6-0.2,0.8-0.2c0.1,0,0.2,0.1,0.3,0.2
		s0.3,0.3,0.5,0.5c0.1,0.2,0.3,0.5,0.4,0.7c0.1,0.3,0.2,0.6,0.2,1c0,0.4,0,0.7-0.1,0.9s-0.2,0.5-0.3,0.6c-0.1,0.2-0.3,0.3-0.5,0.4
		C533.9,23.5,533.7,23.5,533.5,23.5z M531.1,30.5c0-0.3,0-0.6,0.1-0.9c0.1-0.3,0.2-0.5,0.4-0.7c0.2-0.2,0.4-0.4,0.6-0.5
		c0.2-0.1,0.5-0.2,0.8-0.2c0.3,0,0.5,0.1,0.8,0.2s0.5,0.3,0.7,0.5s0.3,0.5,0.5,0.7c0.1,0.3,0.2,0.5,0.2,0.8s-0.1,0.5-0.2,0.7
		c-0.1,0.2-0.3,0.5-0.5,0.7s-0.4,0.3-0.7,0.5s-0.5,0.2-0.8,0.2c-0.6,0-1.1-0.2-1.5-0.5C531.3,31.7,531.1,31.2,531.1,30.5z"/>
</g>
<rect x="273.7" y="653.7" class="st1" width="92.6" height="22.8"/>
<text transform="matrix(1 0 0 1 273.7188 664.4702)" class="st2 st3 st4">45%</text>
<line class="st8" x1="10.8" y1="98.5" x2="10.8" y2="138.5"/>
<line class="st8" x1="757.8" y1="98.5" x2="757.8" y2="138.5"/>
<line class="st8" x1="10.8" y1="385.5" x2="10.8" y2="425.5"/>
<line class="st8" x1="384.3" y1="385.5" x2="384.3" y2="425.5"/>
<line class="st8" x1="757.8" y1="385.5" x2="757.8" y2="425.5"/>
<line class="st8" x1="10.8" y1="673.5" x2="10.8" y2="713.5"/>
<line class="st8" x1="384.3" y1="673.5" x2="384.3" y2="713.5"/>
<line class="st8" x1="757.8" y1="673.5" x2="757.8" y2="713.5"/>
<line class="st8" x1="291.8" y1="673.5" x2="291.8" y2="713.5"/>
<line class="st8" x1="498.8" y1="674.5" x2="498.8" y2="714.5"/>
<rect x="480.7" y="653.7" class="st1" width="92.6" height="22.8"/>
<text transform="matrix(1 0 0 1 480.7188 664.4686)" class="st2 st3 st4">65%</text>
<g>
	<g>
		<line class="st9" x1="333.3" y1="720.6" x2="333.3" y2="732.5"/>
		<g>
			<polygon class="st6" points="328.3,722.1 333.3,713.5 338.3,722.1 			"/>
		</g>
	</g>
</g>
<g>
	<g>
		<line class="st9" x1="441.8" y1="720.6" x2="441.8" y2="732.5"/>
		<g>
			<polygon class="st6" points="436.8,722.1 441.8,713.5 446.8,722.1 			"/>
		</g>
	</g>
</g>
<rect x="300.5" y="582.3" class="st1" width="168.6" height="44.3"/>
<text transform="matrix(1 0 0 1 300.4664 607.5284)" class="st7 st3 st10">Dot Size:</text>
<rect x="159.8" y="296" class="st1" width="442.9" height="44.3"/>
<text transform="matrix(1 0 0 1 159.7895 321.269)" class="st7 st3 st10">Dot Location, Shadow:</text>
</svg>
