<?xml version="1.0" encoding="utf-8"?>
<!-- Generator: Adobe Illustrator 21.0.2, SVG Export Plug-In . SVG Version: 6.00 Build 0)  -->
<svg version="1.1" id="Layer_1" xmlns="http://www.w3.org/2000/svg" xmlns:xlink="http://www.w3.org/1999/xlink" x="0px" y="0px"
	 viewBox="0 0 400 220" style="enable-background:new 0 0 400 220;" xml:space="preserve">
<style type="text/css">
	.st0{fill:none;stroke:#16C4BF;stroke-miterlimit:10;}
	.st1{fill:none;stroke:#4056F4;stroke-width:0.9749;stroke-linecap:round;stroke-miterlimit:10;}
	.st2{fill:#4056F4;}
	.st3{fill:none;}
	.st4{enable-background:new    ;}
	.st5{fill:#8000FF;}
	.st6{fill:#16C4BF;}
	.st7{fill:none;stroke:#16C4BF;stroke-width:0.908;stroke-miterlimit:10;}
	.st8{fill:none;stroke:#8000FF;stroke-miterlimit:10;}
	.st9{fill:#F7B32B;}
	.st10{clip-path:url(#SVGID_2_);}
	.st11{clip-path:url(#SVGID_4_);}
	.st12{clip-path:url(#SVGID_6_);}
	.st13{clip-path:url(#SVGID_8_);fill:#8000FF;}
	.st14{clip-path:url(#SVGID_10_);}
	.st15{clip-path:url(#SVGID_12_);fill:#8000FF;}
	.st16{fill:none;stroke:#8000FF;stroke-miterlimit:10;stroke-dasharray:2,2;}
	.st17{clip-path:url(#SVGID_14_);}
	.st18{clip-path:url(#SVGID_16_);fill:#8000FF;}
	.st19{clip-path:url(#SVGID_18_);}
	.st20{clip-path:url(#SVGID_20_);fill:#8000FF;}
	.st21{fill:none;stroke:#4056F4;stroke-miterlimit:10;}
	.st22{fill:none;stroke:#4056F4;stroke-width:2;stroke-miterlimit:10;}
	.st23{clip-path:url(#SVGID_22_);}
	.st24{clip-path:url(#SVGID_24_);}
	.st25{clip-path:url(#SVGID_26_);fill:#8000FF;}
	.st26{font-family:'ShortStack';}
	.st27{font-size:28.3127px;}
	.st28{clip-path:url(#SVGID_28_);}
	.st29{clip-path:url(#SVGID_30_);}
	.st30{clip-path:url(#SVGID_32_);fill:#8000FF;}
	.st31{font-size:24.7295px;}
</style>
<g>
	<g>
		<path class="st6" d="M118,185.9c-41.8,0-75.9-34-75.9-75.9s34-75.9,75.9-75.9s75.9,34,75.9,75.9S159.8,185.9,118,185.9z M118,35.1
			c-41.3,0-74.9,33.6-74.9,74.9s33.6,74.9,74.9,74.9s74.9-33.6,74.9-74.9S159.3,35.1,118,35.1z"/>
		<path class="st6" d="M118,178.9c-38,0-68.9-30.9-68.9-68.9S80,41.1,118,41.1S186.9,72,186.9,110S156,178.9,118,178.9z M118,42
			c-37.5,0-68,30.5-68,68s30.5,68,68,68s68-30.5,68-68S155.5,42,118,42z"/>
	</g>
	<g>
		<g>
			<g class="st4">
				<defs>
					<rect id="SVGID_21_" x="42.1" y="72.1" class="st4" width="151.8" height="75.9"/>
				</defs>
				<clipPath id="SVGID_2_">
					<use xlink:href="#SVGID_21_"  style="overflow:visible;"/>
				</clipPath>
				<g class="st10">
					<g>
						<g>
							<g>
								<path class="st2" d="M118,147.4c-41.3,0-74.9-16.8-74.9-37.4S76.7,72.6,118,72.6s74.9,16.8,74.9,37.4S159.3,147.4,118,147.4
									 M118,72.1c-41.8,0-75.9,17-75.9,37.9s34,37.9,75.9,37.9c41.8,0,75.9-17,75.9-37.9S159.8,72.1,118,72.1"/>
								<path class="st2" d="M118,144c-37.5,0-68-15.2-68-34c0-18.7,30.5-34,68-34s68,15.2,68,34C186,128.7,155.5,144,118,144
									 M118,75.6C80,75.6,49.1,91,49.1,110c0,19,30.9,34.4,68.9,34.4c38,0,68.9-15.5,68.9-34.4C186.9,91,156,75.6,118,75.6"/>
							</g>
						</g>
					</g>
				</g>
			</g>
		</g>
	</g>
	<rect x="28" y="112" class="st5" width="181" height="2"/>
	<g>
		<g>
			<g class="st4">
				<defs>
					<rect id="SVGID_23_" x="93.3" y="92.3" class="st4" width="46.7" height="33.6"/>
				</defs>
				<clipPath id="SVGID_4_">
					<use xlink:href="#SVGID_23_"  style="overflow:visible;"/>
				</clipPath>
				<g class="st11">
					<g>
						<g>
							<g>
								<g>
									<defs>
										<polyline id="SVGID_25_" points="93.3,125.9 101.6,96.4 140,92.3 131.7,121.8 93.3,125.9 										"/>
									</defs>
									<clipPath id="SVGID_6_">
										<use xlink:href="#SVGID_25_"  style="overflow:visible;"/>
									</clipPath>
									<path style="clip-path:url(#SVGID_6_);fill:#8000FF;" d="M109.4,123.3c-0.3,0-0.6,0-0.8,0l-0.5,0.9c0.3,0,0.6,0,0.9,0
										L109.4,123.3 M106.9,123.2l-0.6,0.9c0.3,0,0.6,0,0.9,0l0.5-0.9C107.5,123.3,107.2,123.2,106.9,123.2 M111.1,123.1
										c-0.3,0-0.6,0-0.8,0.1l-0.3,0.9c0.3,0,0.6-0.1,0.9-0.1L111.1,123.1 M105.4,123.1l-0.7,0.9c0.3,0,0.5,0.1,0.8,0.1l0.6-0.9
										C105.9,123.1,105.6,123.1,105.4,123.1 M112.8,122.9c-0.3,0-0.6,0.1-0.9,0.1l-0.2,0.9c0.3,0,0.6-0.1,0.9-0.1L112.8,122.9
										 M103.9,122.8l-0.8,0.9c0.3,0.1,0.5,0.1,0.8,0.1l0.7-0.9C104.3,122.9,104.1,122.9,103.9,122.8 M114.5,122.6
										c-0.3,0.1-0.6,0.1-0.9,0.2l-0.1,0.9c0.3-0.1,0.6-0.1,0.9-0.2L114.5,122.6 M102.7,122.5l-0.8,0.9c0.2,0,0.4,0.1,0.5,0.1
										l0.8-0.9C103,122.6,102.8,122.6,102.7,122.5 M116.3,122.1c-0.3,0.1-0.6,0.2-0.9,0.2l0,0.9c0.3-0.1,0.6-0.2,0.9-0.2
										L116.3,122.1 M118,121.6c-0.3,0.1-0.6,0.2-0.9,0.3l0.2,0.8c0.3-0.1,0.6-0.2,0.9-0.3L118,121.6 M119.8,121
										c-0.3,0.1-0.6,0.2-0.9,0.3l0.3,0.8c0.3-0.1,0.6-0.2,0.9-0.3L119.8,121 M121.4,120.3c-0.3,0.1-0.6,0.2-0.8,0.4l0.4,0.8
										c0.3-0.1,0.6-0.3,0.9-0.4L121.4,120.3 M123.1,119.5c-0.3,0.1-0.5,0.3-0.8,0.4l0.5,0.7c0.3-0.1,0.6-0.3,0.9-0.4L123.1,119.5
										 M124.6,118.6c-0.3,0.2-0.5,0.3-0.8,0.4l0.6,0.6c0.3-0.2,0.6-0.3,0.8-0.5L124.6,118.6 M126.1,117.7
										c-0.2,0.2-0.5,0.3-0.7,0.5l0.7,0.6c0.3-0.2,0.5-0.3,0.8-0.5L126.1,117.7 M127.5,116.7c-0.2,0.2-0.5,0.3-0.7,0.5l0.8,0.5
										c0.3-0.2,0.5-0.4,0.7-0.5L127.5,116.7 M128.8,115.6c-0.2,0.2-0.4,0.4-0.6,0.5l0.9,0.4c0.2-0.2,0.5-0.4,0.7-0.6L128.8,115.6
										 M130,114.5c-0.2,0.2-0.4,0.4-0.6,0.6l1,0.4c0.2-0.2,0.4-0.4,0.6-0.6L130,114.5 M131.1,113.4c-0.2,0.2-0.3,0.4-0.5,0.6
										l1.1,0.3c0.2-0.2,0.4-0.4,0.6-0.6L131.1,113.4 M132.1,112.2c-0.1,0.2-0.3,0.4-0.4,0.6l1.1,0.2c0.2-0.2,0.3-0.4,0.5-0.6
										L132.1,112.2 M132.9,111.1c-0.1,0.2-0.3,0.4-0.4,0.6l1.2,0.1c0.1-0.2,0.3-0.4,0.4-0.6L132.9,111.1 M133.6,109.9
										c-0.1,0.2-0.2,0.4-0.3,0.6l1.3,0c0.1-0.2,0.2-0.4,0.3-0.6L133.6,109.9 M135.4,108.6l-1.3,0.1c-0.1,0.2-0.2,0.4-0.2,0.6
										l1.3,0C135.2,109,135.3,108.8,135.4,108.6 M135.8,107.3l-1.3,0.2l-0.1,0.3c0,0.1-0.1,0.2-0.1,0.3l1.3-0.1
										c0-0.1,0.1-0.2,0.1-0.4L135.8,107.3 M136,106.1l-1.4,0.2c0,0.2-0.1,0.4-0.1,0.6l1.3-0.2C136,106.5,136,106.3,136,106.1"/>
									<path style="clip-path:url(#SVGID_6_);fill:#8000FF;" d="M122.2,95.4c-1,0-2.1,0.1-3.1,0.2c-3.5,0.4-7.1,1.4-10.6,2.9
										l0.8,0.6c3.1-1.3,6.4-2.2,9.5-2.6c1-0.1,2-0.2,2.9-0.2c2,0,3.9,0.2,5.7,0.7c5.1,1.5,7.8,4.9,7.3,9.2l1.4-0.2
										c0.6-4.6-2.3-8.3-7.8-9.9C126.4,95.7,124.3,95.4,122.2,95.4"/>
									<polyline style="clip-path:url(#SVGID_6_);fill:#8000FF;" points="104.8,96.1 99.1,105.3 112.6,101.4 109.2,99.1 
										108.4,98.5 104.8,96.1 									"/>
								</g>
							</g>
						</g>
					</g>
				</g>
			</g>
		</g>
	</g>
	<text transform="matrix(1 0 0 1 5.519 120.1768)" class="st5 st26 st27">x</text>
</g>
<g>
	<g>
		<path class="st9" d="M311,201.2c-41.5,0-75.2-33.8-75.2-75.2s33.8-75.2,75.2-75.2s75.2,33.8,75.2,75.2S352.5,201.2,311,201.2z
			 M311,51.8c-40.9,0-74.2,33.3-74.2,74.2s33.3,74.2,74.2,74.2s74.2-33.3,74.2-74.2S351.9,51.8,311,51.8z"/>
		<path class="st9" d="M311,194.3c-37.7,0-68.3-30.7-68.3-68.3s30.7-68.3,68.3-68.3s68.3,30.7,68.3,68.3S348.7,194.3,311,194.3z
			 M311,58.6c-37.2,0-67.4,30.2-67.4,67.4s30.2,67.4,67.4,67.4s67.4-30.2,67.4-67.4S348.2,58.6,311,58.6z"/>
	</g>
	<g>
		<g>
			<g class="st4">
				<defs>
					<rect id="SVGID_27_" x="262.7" y="50.8" class="st4" width="96.7" height="150.4"/>
				</defs>
				<clipPath id="SVGID_8_">
					<use xlink:href="#SVGID_27_"  style="overflow:visible;"/>
				</clipPath>
				<g style="clip-path:url(#SVGID_8_);">
					<g>
						<g>
							<g>
								<path class="st6" d="M311,200.3c-26.3,0-47.8-33.3-47.8-74.3s21.4-74.3,47.8-74.3S358.8,85,358.8,126S337.3,200.3,311,200.3
									 M311,50.8c-26.7,0-48.3,33.7-48.3,75.2c0,41.5,21.7,75.2,48.3,75.2c26.7,0,48.3-33.7,48.3-75.2
									C359.3,84.5,337.7,50.8,311,50.8"/>
								<path class="st6" d="M311,193.4c-23.9,0-43.3-30.2-43.3-67.4c0-37.2,19.4-67.4,43.3-67.4c23.9,0,43.3,30.2,43.3,67.4
									C354.3,163.2,334.9,193.4,311,193.4 M311,57.7c-24.2,0-43.9,30.6-43.9,68.3c0,37.7,19.7,68.3,43.9,68.3
									c24.2,0,43.9-30.7,43.9-68.3C354.9,88.3,335.2,57.7,311,57.7"/>
							</g>
						</g>
					</g>
				</g>
			</g>
		</g>
	</g>
	<rect x="310" y="40" class="st5" width="2" height="173"/>
	<g>
		<g>
			<g class="st4">
				<defs>
					<rect id="SVGID_29_" x="284.7" y="108.1" class="st4" width="50.2" height="31.1"/>
				</defs>
				<clipPath id="SVGID_10_">
					<use xlink:href="#SVGID_29_"  style="overflow:visible;"/>
				</clipPath>
				<g class="st14">
					<g>
						<g>
							<g>
								<g>
									<defs>
										<polyline id="SVGID_31_" points="284.7,139.1 292.1,112.7 334.9,108.1 327.4,134.5 284.7,139.1 										"/>
									</defs>
									<clipPath id="SVGID_12_">
										<use xlink:href="#SVGID_31_"  style="overflow:visible;"/>
									</clipPath>
									<path class="st15" d="M302,136.1l-0.5,0.9c0.3,0,0.6,0,0.9,0l0.4-0.9c-0.1,0-0.2,0-0.2,0
										C302.4,136.2,302.2,136.2,302,136.1 M304.5,136.1c-0.3,0-0.6,0-0.8,0l-0.4,0.9c0.3,0,0.6,0,0.9-0.1L304.5,136.1
										 M300.4,136.1l-0.6,0.9c0.3,0,0.6,0,0.8,0.1l0.6-0.9C301,136.1,300.7,136.1,300.4,136.1 M306.2,135.9
										c-0.2,0-0.4,0.1-0.6,0.1l-0.2,0l-0.3,0.9l0.2,0c0.2,0,0.5,0,0.7-0.1L306.2,135.9 M298.9,135.9l-0.7,0.9
										c0.3,0,0.5,0.1,0.8,0.1l0.7-0.9C299.4,135.9,299.2,135.9,298.9,135.9 M308,135.6c-0.3,0.1-0.6,0.1-0.9,0.1l-0.2,0.9
										c0.3-0.1,0.6-0.1,0.9-0.2L308,135.6 M297.5,135.5l-0.8,0.9c0.3,0.1,0.5,0.1,0.8,0.2l0.8-0.9
										C297.9,135.7,297.7,135.6,297.5,135.5 M296.1,135.1l-0.9,0.9c0.2,0.1,0.5,0.2,0.7,0.2l0.9-0.9
										C296.6,135.3,296.3,135.2,296.1,135.1 M294.9,134.6l-1,0.8c0.2,0.1,0.4,0.2,0.6,0.3l1-0.8
										C295.3,134.8,295.1,134.7,294.9,134.6 M293.7,134l-1.1,0.8c0.2,0.1,0.4,0.2,0.6,0.3l1-0.8
										C294.1,134.3,293.9,134.2,293.7,134 M292.7,133.4l-1.1,0.7c0.2,0.1,0.3,0.3,0.5,0.4l1.1-0.8
										C293,133.6,292.9,133.5,292.7,133.4 M291.9,132.6l-1.2,0.7c0.1,0.1,0.3,0.3,0.4,0.4l1.2-0.7
										C292.1,132.9,292,132.7,291.9,132.6 M291.1,131.7l-1.3,0.6c0.1,0.2,0.2,0.3,0.4,0.5l1.2-0.6
										C291.3,132,291.2,131.9,291.1,131.7 M290.5,130.8l-1.3,0.6c0.1,0.2,0.2,0.3,0.3,0.5l1.3-0.6
										C290.7,131.1,290.6,131,290.5,130.8 M290.1,129.8l-1.3,0.5c0.1,0.2,0.1,0.4,0.2,0.5l1.3-0.5
										C290.2,130.2,290.1,130,290.1,129.8 M289.8,128.8l-1.3,0.4c0,0.2,0.1,0.4,0.1,0.6l1.3-0.5
										C289.9,129.1,289.8,129,289.8,128.8 M289.7,127.7l-1.4,0.3c0,0.2,0,0.4,0.1,0.6l1.4-0.4
										C289.7,128.1,289.7,127.9,289.7,127.7 M289.7,126.6l-1.4,0.3c0,0.2,0,0.4,0,0.6l1.4-0.3C289.6,127,289.7,126.8,289.7,126.6
										 M289.8,125.4l-1.3,0.2c0,0.2-0.1,0.4-0.1,0.6l1.3-0.2C289.8,125.8,289.8,125.6,289.8,125.4 M290.2,124.2l-1.3,0.1
										c-0.1,0.2-0.1,0.4-0.2,0.6l0,0.1l1.3-0.2C290.1,124.6,290.1,124.4,290.2,124.2 M290.7,123l-1.3,0c-0.1,0.2-0.2,0.4-0.3,0.6
										l1.3-0.1C290.5,123.4,290.6,123.2,290.7,123 M290,121.8c-0.1,0.2-0.2,0.4-0.4,0.6l1.3,0c0.1-0.2,0.2-0.4,0.3-0.6L290,121.8
										 M290.9,120.5c-0.2,0.2-0.3,0.4-0.4,0.6l1.2,0.1c0.1-0.2,0.3-0.4,0.4-0.6L290.9,120.5 M291.8,119.3
										c-0.2,0.2-0.3,0.4-0.5,0.6l1.2,0.2c0.2-0.2,0.3-0.4,0.5-0.6L291.8,119.3 M292.8,118.2c-0.1,0.1-0.3,0.3-0.4,0.4l1.1,0.3
										c0.1-0.1,0.3-0.3,0.4-0.4L292.8,118.2"/>
									<path class="st15" d="M329.3,113.7l-1.2,0.8c2,3.5,0.8,8.1-3.2,12.4c-4,4.2-10.4,7.5-16.9,8.8l-0.1,0.9
										c7-1.3,13.8-4.8,18.1-9.4C330.4,122.5,331.6,117.4,329.3,113.7"/>
									<polyline class="st15" points="321.9,109.5 323.3,117.8 328.1,114.5 329.3,113.7 334.3,110.2 334.3,110.2 321.9,109.5 
																			"/>
								</g>
							</g>
						</g>
					</g>
				</g>
			</g>
		</g>
	</g>
	<text transform="matrix(1 0 0 1 302.165 28.5215)" class="st5 st26 st31">y</text>
</g>
</svg>
