<?xml version="1.0" encoding="utf-8"?>
<!-- Generator: Adobe Illustrator 21.0.2, SVG Export Plug-In . SVG Version: 6.00 Build 0)  -->
<svg version="1.1" id="Layer_1" xmlns="http://www.w3.org/2000/svg" xmlns:xlink="http://www.w3.org/1999/xlink" x="0px" y="0px"
	 viewBox="0 0 300 250" style="enable-background:new 0 0 300 250;" xml:space="preserve">
<style type="text/css">
	.st0{opacity:0.4;}
	.st1{fill:#6622CC;}
	.st2{enable-background:new    ;}
	.st3{clip-path:url(#SVGID_2_);}
	.st4{fill:#16C4BF;}
	.st5{clip-path:url(#SVGID_6_);}
	.st6{fill:#C200FB;}
	.st7{clip-path:url(#SVGID_10_);}
	.st8{fill:#F7B32B;}
	.st9{clip-path:url(#SVGID_14_);}
	.st10{fill:#4056F4;}
	.st11{clip-path:url(#SVGID_18_);}
	.st12{clip-path:url(#SVGID_22_);}
	.st13{clip-path:url(#SVGID_26_);}
	.st14{clip-path:url(#SVGID_30_);}
	.st15{clip-path:url(#SVGID_33_);}
	.st16{fill:none;stroke:#16C4BF;stroke-miterlimit:10;}
	.st17{fill:none;stroke:#4056F4;stroke-width:0.9749;stroke-linecap:round;stroke-miterlimit:10;}
	.st18{fill:none;}
	.st19{fill:#8000FF;}
	.st20{fill:none;stroke:#16C4BF;stroke-width:0.908;stroke-miterlimit:10;}
	.st21{fill:none;stroke:#8000FF;stroke-miterlimit:10;}
	.st22{clip-path:url(#SVGID_35_);}
	.st23{clip-path:url(#SVGID_36_);}
	.st24{clip-path:url(#SVGID_37_);}
	.st25{clip-path:url(#SVGID_38_);fill:#8000FF;}
	.st26{clip-path:url(#SVGID_39_);}
	.st27{clip-path:url(#SVGID_40_);fill:#8000FF;}
	.st28{fill:none;stroke:#8000FF;stroke-miterlimit:10;stroke-dasharray:2,2;}
	.st29{clip-path:url(#SVGID_41_);}
	.st30{clip-path:url(#SVGID_42_);fill:#8000FF;}
	.st31{clip-path:url(#SVGID_43_);}
	.st32{clip-path:url(#SVGID_44_);fill:#8000FF;}
	.st33{fill:none;stroke:#4056F4;stroke-miterlimit:10;}
	.st34{fill:none;stroke:#4056F4;stroke-width:2;stroke-miterlimit:10;}
	.st35{clip-path:url(#SVGID_45_);}
	.st36{clip-path:url(#SVGID_46_);}
	.st37{clip-path:url(#SVGID_47_);fill:#8000FF;}
	.st38{clip-path:url(#SVGID_48_);}
	.st39{clip-path:url(#SVGID_49_);}
	.st40{clip-path:url(#SVGID_50_);fill:#8000FF;}
	.st41{clip-path:url(#SVGID_52_);}
	.st42{clip-path:url(#SVGID_54_);fill:#8000FF;}
	.st43{font-family:'Lato-Regular';}
	.st44{font-size:18px;}
	.st45{clip-path:url(#SVGID_56_);}
	.st46{clip-path:url(#SVGID_58_);fill:#8000FF;}
	.st47{fill:none;stroke:#6622CC;stroke-miterlimit:10;}
	.st48{clip-path:url(#SVGID_60_);}
	.st49{clip-path:url(#SVGID_62_);}
	.st50{clip-path:url(#SVGID_64_);}
	.st51{clip-path:url(#SVGID_66_);}
	.st52{clip-path:url(#SVGID_68_);}
	.st53{clip-path:url(#SVGID_70_);}
	.st54{clip-path:url(#SVGID_72_);}
	.st55{clip-path:url(#SVGID_74_);}
	.st56{clip-path:url(#SVGID_76_);}
</style>
<g class="st0">
	<g>
		<path class="st1" d="M196,234.2c-41.5,0-75.2-33.8-75.2-75.2s33.8-75.2,75.2-75.2s75.2,33.8,75.2,75.2S237.5,234.2,196,234.2z
			 M196,84.8c-40.9,0-74.2,33.3-74.2,74.2s33.3,74.2,74.2,74.2s74.2-33.3,74.2-74.2S236.9,84.8,196,84.8z"/>
		<path class="st1" d="M196,227.4c-37.7,0-68.4-30.7-68.4-68.4s30.7-68.4,68.4-68.4s68.4,30.7,68.4,68.4S233.7,227.4,196,227.4z
			 M196,91.6c-37.2,0-67.4,30.2-67.4,67.4s30.2,67.4,67.4,67.4s67.4-30.2,67.4-67.4S233.2,91.6,196,91.6z"/>
	</g>
	<g>
		<g>
			<g class="st2">
				<defs>
					<rect id="SVGID_1_" x="120.8" y="149.8" class="st2" width="150.5" height="18.3"/>
				</defs>
				<clipPath id="SVGID_2_">
					<use xlink:href="#SVGID_1_"  style="overflow:visible;"/>
				</clipPath>
				<g class="st3">
					<g>
						<g>
							<g>
								<path class="st4" d="M196,168c-40.9,0-74.2-4.1-74.2-9c0-5,33.3-9,74.2-9s74.2,4.1,74.2,9C270.3,164,236.9,168,196,168
									 M196,149.8c-41.5,0-75.2,4.1-75.2,9.2c0,5.1,33.8,9.2,75.2,9.2c41.5,0,75.2-4.1,75.2-9.2
									C271.3,153.9,237.5,149.8,196,149.8"/>
								<path class="st4" d="M196,167.2c-37.2,0-67.4-3.7-67.4-8.2c0-4.5,30.2-8.2,67.4-8.2c37.1,0,67.4,3.7,67.4,8.2
									C263.4,163.5,233.1,167.2,196,167.2 M196,150.7c-37.7,0-68.4,3.7-68.4,8.3c0,4.6,30.7,8.3,68.4,8.3s68.4-3.7,68.4-8.3
									C264.4,154.4,233.7,150.7,196,150.7"/>
							</g>
						</g>
					</g>
				</g>
			</g>
		</g>
	</g>
	<g>
		<g>
			<g class="st2">
				<defs>
					<rect id="SVGID_4_" x="153.9" y="83.8" class="st2" width="84.2" height="150.5"/>
				</defs>
				<clipPath id="SVGID_6_">
					<use xlink:href="#SVGID_4_"  style="overflow:visible;"/>
				</clipPath>
				<g class="st5">
					<g>
						<g>
							<g>
								<path class="st6" d="M196,233.2c-22.9,0-41.5-33.3-41.5-74.2s18.6-74.2,41.5-74.2s41.5,33.3,41.5,74.2
									S218.9,233.2,196,233.2 M196,83.8c-23.2,0-42.1,33.8-42.1,75.2s18.9,75.2,42.1,75.2c23.2,0,42.1-33.8,42.1-75.2
									S219.2,83.8,196,83.8"/>
								<path class="st6" d="M196,226.4c-20.8,0-37.7-30.2-37.7-67.4s16.9-67.4,37.7-67.4c20.8,0,37.7,30.2,37.7,67.4
									S216.8,226.4,196,226.4 M196,90.6c-21.1,0-38.2,30.7-38.2,68.4s17.2,68.4,38.2,68.4s38.2-30.7,38.2-68.4
									S217.1,90.6,196,90.6"/>
							</g>
						</g>
					</g>
				</g>
			</g>
		</g>
	</g>
	<g>
		<g>
			<g class="st2">
				<defs>
					<rect id="SVGID_8_" x="129.6" y="83.8" class="st2" width="132.9" height="150.5"/>
				</defs>
				<clipPath id="SVGID_10_">
					<use xlink:href="#SVGID_8_"  style="overflow:visible;"/>
				</clipPath>
				<g class="st7">
					<g>
						<g>
							<g>
								<path class="st8" d="M196,233.2c-36.1,0-65.6-33.3-65.6-74.2s29.4-74.2,65.6-74.2s65.6,33.3,65.6,74.2
									S232.2,233.2,196,233.2 M196,83.8c-36.6,0-66.4,33.8-66.4,75.2s29.8,75.2,66.4,75.2c36.6,0,66.4-33.8,66.4-75.2
									S232.6,83.8,196,83.8"/>
								<path class="st8" d="M196,226.4c-32.8,0-59.5-30.2-59.5-67.4s26.7-67.4,59.5-67.4c32.8,0,59.5,30.2,59.5,67.4
									S228.8,226.4,196,226.4 M196,90.6c-33.3,0-60.4,30.7-60.4,68.4s27.1,68.4,60.4,68.4s60.4-30.7,60.4-68.4
									S229.3,90.6,196,90.6"/>
							</g>
						</g>
					</g>
				</g>
			</g>
		</g>
	</g>
	<g>
		<g>
			<g class="st2">
				<defs>
					<rect id="SVGID_12_" x="142.8" y="83.8" class="st2" width="106.4" height="150.5"/>
				</defs>
				<clipPath id="SVGID_14_">
					<use xlink:href="#SVGID_12_"  style="overflow:visible;"/>
				</clipPath>
				<g class="st9">
					<g>
						<g>
							<g>
								<path class="st10" d="M196,233.2c-28.9,0-52.5-33.3-52.5-74.2s23.6-74.2,52.5-74.2s52.5,33.3,52.5,74.2S225,233.2,196,233.2
									 M196,83.8c-29.3,0-53.2,33.8-53.2,75.2s23.9,75.2,53.2,75.2c29.3,0,53.2-33.8,53.2-75.2S225.3,83.8,196,83.8"/>
								<path class="st10" d="M196,226.4c-26.3,0-47.6-30.2-47.6-67.4s21.4-67.4,47.6-67.4c26.3,0,47.6,30.2,47.6,67.4
									S222.3,226.4,196,226.4 M196,90.6c-26.7,0-48.4,30.7-48.4,68.4s21.7,68.4,48.4,68.4s48.3-30.7,48.3-68.4
									S222.7,90.6,196,90.6"/>
							</g>
						</g>
					</g>
				</g>
			</g>
		</g>
	</g>
	<g>
		<g>
			<g class="st2">
				<defs>
					<rect id="SVGID_16_" x="158.4" y="83.8" class="st2" width="75.2" height="150.5"/>
				</defs>
				<clipPath id="SVGID_18_">
					<use xlink:href="#SVGID_16_"  style="overflow:visible;"/>
				</clipPath>
				<g class="st11">
					<g>
						<g>
							<g>
								<path class="st1" d="M196,233.2c-20.5,0-37.1-33.3-37.1-74.2s16.7-74.2,37.1-74.2s37.1,33.3,37.1,74.2
									S216.5,233.2,196,233.2 M196,83.8c-20.7,0-37.6,33.8-37.6,75.2s16.9,75.2,37.6,75.2c20.7,0,37.6-33.8,37.6-75.2
									S216.7,83.8,196,83.8"/>
								<path class="st1" d="M196,226.4c-18.6,0-33.7-30.2-33.7-67.4s15.1-67.4,33.7-67.4c18.6,0,33.7,30.2,33.7,67.4
									S214.6,226.4,196,226.4 M196,90.6c-18.9,0-34.2,30.7-34.2,68.4s15.3,68.4,34.2,68.4s34.2-30.7,34.2-68.4
									S214.9,90.6,196,90.6"/>
							</g>
						</g>
					</g>
				</g>
			</g>
		</g>
	</g>
	<g>
		<g>
			<g class="st2">
				<defs>
					<rect id="SVGID_20_" x="120.8" y="105.8" class="st2" width="150.5" height="106.4"/>
				</defs>
				<clipPath id="SVGID_22_">
					<use xlink:href="#SVGID_20_"  style="overflow:visible;"/>
				</clipPath>
				<g class="st12">
					<g>
						<g>
							<g>
								<path class="st4" d="M196,211.5c-40.9,0-74.2-23.6-74.2-52.5s33.3-52.5,74.2-52.5s74.2,23.6,74.2,52.5
									S236.9,211.5,196,211.5 M196,105.8c-41.5,0-75.2,23.9-75.2,53.2s33.8,53.2,75.2,53.2c41.5,0,75.2-23.9,75.2-53.2
									S237.5,105.8,196,105.8"/>
								<path class="st4" d="M196,206.6c-37.2,0-67.4-21.4-67.4-47.6s30.2-47.6,67.4-47.6c37.1,0,67.4,21.4,67.4,47.6
									S233.1,206.6,196,206.6 M196,110.7c-37.7,0-68.4,21.7-68.4,48.3s30.7,48.3,68.4,48.3s68.4-21.7,68.4-48.3
									S233.7,110.7,196,110.7"/>
							</g>
						</g>
					</g>
				</g>
			</g>
		</g>
	</g>
	<g>
		<g>
			<g class="st2">
				<defs>
					<rect id="SVGID_24_" x="120.8" y="121.4" class="st2" width="150.5" height="75.2"/>
				</defs>
				<clipPath id="SVGID_26_">
					<use xlink:href="#SVGID_24_"  style="overflow:visible;"/>
				</clipPath>
				<g class="st13">
					<g>
						<g>
							<g>
								<path class="st6" d="M196,121.9c-40.9,0-74.2,16.7-74.2,37.1s33.3,37.1,74.2,37.1s74.2-16.7,74.2-37.1
									S236.9,121.9,196,121.9 M196,196.6c-41.5,0-75.2-16.9-75.2-37.6s33.8-37.6,75.2-37.6c41.5,0,75.2,16.9,75.2,37.6
									S237.5,196.6,196,196.6"/>
								<path class="st6" d="M196,125.3c-37.2,0-67.4,15.1-67.4,33.7s30.2,33.7,67.4,33.7c37.1,0,67.4-15.1,67.4-33.7
									S233.1,125.3,196,125.3 M196,193.2c-37.7,0-68.4-15.3-68.4-34.2s30.7-34.2,68.4-34.2s68.4,15.3,68.4,34.2
									S233.7,193.2,196,193.2"/>
							</g>
						</g>
					</g>
				</g>
			</g>
		</g>
	</g>
	<g>
		<g>
			<g class="st2">
				<defs>
					<rect id="SVGID_28_" x="120.8" y="110.6" class="st2" width="150.5" height="96.7"/>
				</defs>
				<clipPath id="SVGID_30_">
					<use xlink:href="#SVGID_28_"  style="overflow:visible;"/>
				</clipPath>
				<g class="st14">
					<g>
						<g>
							<g>
								<path class="st8" d="M196,206.7c-40.9,0-74.2-21.4-74.2-47.7s33.3-47.7,74.2-47.7s74.2,21.4,74.2,47.7
									S236.9,206.7,196,206.7 M196,110.6c-41.5,0-75.2,21.7-75.2,48.4s33.8,48.4,75.2,48.4c41.5,0,75.2-21.7,75.2-48.4
									S237.5,110.6,196,110.6"/>
								<path class="st8" d="M196,202.3c-37.2,0-67.4-19.4-67.4-43.3s30.2-43.3,67.4-43.3c37.1,0,67.4,19.4,67.4,43.3
									S233.1,202.3,196,202.3 M196,115.1c-37.7,0-68.4,19.7-68.4,43.9s30.7,43.9,68.4,43.9s68.4-19.7,68.4-43.9
									S233.7,115.1,196,115.1"/>
							</g>
						</g>
					</g>
				</g>
			</g>
		</g>
	</g>
	<g>
		<g>
			<g class="st2">
				<defs>
					<rect id="SVGID_32_" x="147.6" y="83.8" class="st2" width="96.7" height="150.5"/>
				</defs>
				<clipPath id="SVGID_33_">
					<use xlink:href="#SVGID_32_"  style="overflow:visible;"/>
				</clipPath>
				<g class="st15">
					<g>
						<g>
							<g>
								<path class="st10" d="M196,233.2c-26.3,0-47.7-33.3-47.7-74.2s21.4-74.2,47.7-74.2s47.7,33.3,47.7,74.2
									S222.3,233.2,196,233.2 M196,83.8c-26.7,0-48.4,33.8-48.4,75.2s21.7,75.2,48.4,75.2c26.7,0,48.4-33.8,48.4-75.2
									S222.7,83.8,196,83.8"/>
								<path class="st10" d="M196,226.4c-23.9,0-43.3-30.2-43.3-67.4s19.4-67.4,43.3-67.4c23.9,0,43.3,30.2,43.3,67.4
									S219.9,226.4,196,226.4 M196,90.6c-24.2,0-44,30.7-44,68.4s19.7,68.4,44,68.4S240,196.7,240,159S220.2,90.6,196,90.6"/>
							</g>
						</g>
					</g>
				</g>
			</g>
		</g>
	</g>
</g>
<path class="st19" d="M280.6,242.5h-2v-1h2V242.5z M276.6,242.5h-2v-1h2V242.5z M272.6,242.5h-2v-1h2V242.5z M268.6,242.5h-2v-1h2
	V242.5z M264.6,242.5h-2v-1h2V242.5z M260.6,242.5h-2v-1h2V242.5z M256.6,242.5h-2v-1h2V242.5z M252.6,242.5h-2v-1h2V242.5z
	 M248.6,242.5h-2v-1h2V242.5z M244.6,242.5h-2v-1h2V242.5z M240.6,242.5h-2v-1h2V242.5z M236.6,242.5h-2v-1h2V242.5z M232.6,242.5
	h-2v-1h2V242.5z M228.6,242.5h-2v-1h2V242.5z M224.6,242.5h-2v-1h2V242.5z M220.6,242.5h-2v-1h2V242.5z M216.6,242.5h-2v-1h2V242.5z
	 M212.6,242.5h-2v-1h2V242.5z M208.6,242.5h-2v-1h2V242.5z M204.6,242.5h-2v-1h2V242.5z M200.6,242.5h-2v-1h2V242.5z M196.6,242.5
	h-2v-1h2V242.5z M192.6,242.5h-2v-1h2V242.5z M188.6,242.5h-2v-1h2V242.5z M184.6,242.5h-2v-1h2V242.5z M180.6,242.5h-2v-1h2V242.5z
	 M176.6,242.5h-2v-1h2V242.5z M172.6,242.5h-2v-1h2V242.5z M168.6,242.5h-2v-1h2V242.5z M164.6,242.5h-2v-1h2V242.5z M160.6,242.5
	h-2v-1h2V242.5z M156.6,242.5h-2v-1h2V242.5z M152.6,242.5h-2v-1h2V242.5z M148.6,242.5h-2v-1h2V242.5z M144.6,242.5h-2v-1h2V242.5z
	 M140.6,242.5h-2v-1h2V242.5z M136.6,242.5h-2v-1h2V242.5z M132.6,242.5h-2v-1h2V242.5z M128.6,242.5h-2v-1h2V242.5z M124.6,242.5
	h-2v-1h2V242.5z M120.6,242.5h-2v-1h2V242.5z M116.6,242.5h-2v-1h2V242.5z M112.6,242.5h-1.5V241h1v0.5h0.5V242.5z M281.1,240h-1v-2
	h1V240z M112.1,239h-1v-2h1V239z M281.1,236h-1v-2h1V236z M112.1,235h-1v-2h1V235z M281.1,232h-1v-2h1V232z M112.1,231h-1v-2h1V231z
	 M281.1,228h-1v-2h1V228z M112.1,227h-1v-2h1V227z M281.1,224h-1v-2h1V224z M112.1,223h-1v-2h1V223z M281.1,220h-1v-2h1V220z
	 M112.1,219h-1v-2h1V219z M281.1,216h-1v-2h1V216z M112.1,215h-1v-2h1V215z M281.1,212h-1v-2h1V212z M112.1,211h-1v-2h1V211z
	 M281.1,208h-1v-2h1V208z M112.1,207h-1v-2h1V207z M281.1,204h-1v-2h1V204z M112.1,203h-1v-2h1V203z M281.1,200h-1v-2h1V200z
	 M112.1,199h-1v-2h1V199z M281.1,196h-1v-2h1V196z M112.1,195h-1v-2h1V195z M281.1,192h-1v-2h1V192z M112.1,191h-1v-2h1V191z
	 M281.1,188h-1v-2h1V188z M112.1,187h-1v-2h1V187z M281.1,184h-1v-2h1V184z M112.1,183h-1v-2h1V183z M281.1,180h-1v-2h1V180z
	 M112.1,179h-1v-2h1V179z M281.1,176h-1v-2h1V176z M112.1,175h-1v-2h1V175z M281.1,172h-1v-2h1V172z M112.1,171h-1v-2h1V171z
	 M281.1,168h-1v-2h1V168z M112.1,167h-1v-2h1V167z M281.1,164h-1v-2h1V164z M112.1,163h-1v-2h1V163z M281.1,160h-1v-2h1V160z
	 M112.1,159h-1v-2h1V159z M281.1,156h-1v-2h1V156z M112.1,155h-1v-2h1V155z M281.1,152h-1v-2h1V152z M112.1,151h-1v-2h1V151z
	 M281.1,148h-1v-2h1V148z M112.1,147h-1v-2h1V147z M281.1,144h-1v-2h1V144z M112.1,143h-1v-2h1V143z M281.1,140h-1v-2h1V140z
	 M112.1,139h-1v-2h1V139z M281.1,136h-1v-2h1V136z M112.1,135h-1v-2h1V135z M281.1,132h-1v-2h1V132z M112.1,131h-1v-2h1V131z
	 M281.1,128h-1v-2h1V128z M112.1,127h-1v-2h1V127z M281.1,124h-1v-2h1V124z M112.1,123h-1v-2h1V123z M281.1,120h-1v-2h1V120z
	 M112.1,119h-1v-2h1V119z M281.1,116h-1v-2h1V116z M112.1,115h-1v-2h1V115z M281.1,112h-1v-2h1V112z M112.1,111h-1v-2h1V111z
	 M281.1,108h-1v-2h1V108z M112.1,107h-1v-2h1V107z M281.1,104h-1v-2h1V104z M112.1,103h-1v-2h1V103z M281.1,100h-1v-2h1V100z
	 M112.1,99h-1v-2h1V99z M281.1,96h-1v-2h1V96z M112.1,95h-1v-2h1V95z M281.1,92h-1v-2h1V92z M112.1,91h-1v-2h1V91z M281.1,88h-1v-2
	h1V88z M112.1,87h-1v-2h1V87z M281.1,84h-1v-2h1V84z M112.1,83h-1v-2h1V83z M281.1,80h-1v-2h1V80z M112.1,79h-1v-2h1V79z M281.1,76
	h-1v-2h1V76z M112.1,75h-1v-2h1V75z M279.6,73.5h-2v-1h2V73.5z M275.6,73.5h-2v-1h2V73.5z M271.6,73.5h-2v-1h2V73.5z M267.6,73.5h-2
	v-1h2V73.5z M263.6,73.5h-2v-1h2V73.5z M259.6,73.5h-2v-1h2V73.5z M255.6,73.5h-2v-1h2V73.5z M251.6,73.5h-2v-1h2V73.5z M247.6,73.5
	h-2v-1h2V73.5z M243.6,73.5h-2v-1h2V73.5z M239.6,73.5h-2v-1h2V73.5z M235.6,73.5h-2v-1h2V73.5z M231.6,73.5h-2v-1h2V73.5z
	 M227.6,73.5h-2v-1h2V73.5z M223.6,73.5h-2v-1h2V73.5z M219.6,73.5h-2v-1h2V73.5z M215.6,73.5h-2v-1h2V73.5z M211.6,73.5h-2v-1h2
	V73.5z M207.6,73.5h-2v-1h2V73.5z M203.6,73.5h-2v-1h2V73.5z M199.6,73.5h-2v-1h2V73.5z M195.6,73.5h-2v-1h2V73.5z M191.6,73.5h-2
	v-1h2V73.5z M187.6,73.5h-2v-1h2V73.5z M183.6,73.5h-2v-1h2V73.5z M179.6,73.5h-2v-1h2V73.5z M175.6,73.5h-2v-1h2V73.5z M171.6,73.5
	h-2v-1h2V73.5z M167.6,73.5h-2v-1h2V73.5z M163.6,73.5h-2v-1h2V73.5z M159.6,73.5h-2v-1h2V73.5z M155.6,73.5h-2v-1h2V73.5z
	 M151.6,73.5h-2v-1h2V73.5z M147.6,73.5h-2v-1h2V73.5z M143.6,73.5h-2v-1h2V73.5z M139.6,73.5h-2v-1h2V73.5z M135.6,73.5h-2v-1h2
	V73.5z M131.6,73.5h-2v-1h2V73.5z M127.6,73.5h-2v-1h2V73.5z M123.6,73.5h-2v-1h2V73.5z M119.6,73.5h-2v-1h2V73.5z M115.6,73.5h-2
	v-1h2V73.5z"/>
<g>
	<path class="st19" d="M162.4,156.4c-0.1,0.1-0.1,0.1-0.2,0.2s-0.1,0.1-0.2,0.1c-0.1,0-0.2,0-0.3-0.1c-0.1-0.1-0.3-0.2-0.4-0.3
		s-0.4-0.2-0.7-0.3c-0.3-0.1-0.6-0.1-0.9-0.1c-0.5,0-0.9,0.1-1.3,0.3s-0.7,0.4-1,0.8c-0.3,0.3-0.5,0.7-0.6,1.2
		c-0.1,0.5-0.2,1-0.2,1.6c0,0.6,0.1,1.2,0.2,1.6c0.1,0.5,0.3,0.9,0.6,1.2c0.3,0.3,0.6,0.6,0.9,0.7s0.8,0.3,1.2,0.3
		c0.4,0,0.8-0.1,1.1-0.2c0.3-0.1,0.5-0.2,0.7-0.3c0.2-0.1,0.3-0.2,0.5-0.3s0.2-0.2,0.4-0.2c0.2,0,0.3,0.1,0.3,0.2l0.5,0.7
		c-0.4,0.5-1,0.9-1.7,1.2s-1.4,0.4-2.1,0.4c-0.6,0-1.2-0.1-1.8-0.3c-0.5-0.2-1-0.6-1.4-1c-0.4-0.4-0.7-1-0.9-1.6
		c-0.2-0.6-0.3-1.4-0.3-2.2c0-0.8,0.1-1.4,0.3-2.1c0.2-0.6,0.5-1.2,0.9-1.7c0.4-0.5,0.9-0.8,1.5-1.1c0.6-0.3,1.3-0.4,2-0.4
		c0.7,0,1.3,0.1,1.9,0.3c0.5,0.2,1,0.6,1.5,1L162.4,156.4z"/>
	<path class="st19" d="M168.9,154.5c0.7,0,1.4,0.1,2,0.4c0.6,0.2,1.1,0.6,1.5,1s0.7,1,1,1.6c0.2,0.6,0.3,1.4,0.3,2.2
		c0,0.8-0.1,1.5-0.3,2.2c-0.2,0.6-0.5,1.2-1,1.6c-0.4,0.5-0.9,0.8-1.5,1c-0.6,0.2-1.3,0.4-2,0.4c-0.7,0-1.4-0.1-2-0.4
		c-0.6-0.2-1.1-0.6-1.5-1c-0.4-0.5-0.7-1-1-1.6c-0.2-0.6-0.3-1.4-0.3-2.2c0-0.8,0.1-1.5,0.3-2.2c0.2-0.6,0.6-1.2,1-1.6
		s0.9-0.8,1.5-1S168.2,154.5,168.9,154.5z M168.9,163.5c1,0,1.7-0.3,2.2-1s0.7-1.6,0.7-2.8c0-1.2-0.2-2.1-0.7-2.8
		c-0.5-0.7-1.2-1-2.2-1c-0.5,0-0.9,0.1-1.3,0.3c-0.4,0.2-0.7,0.4-0.9,0.8c-0.2,0.3-0.4,0.7-0.6,1.2c-0.1,0.5-0.2,1-0.2,1.6
		c0,0.6,0.1,1.1,0.2,1.6c0.1,0.5,0.3,0.9,0.6,1.2s0.6,0.6,0.9,0.7C168,163.4,168.4,163.5,168.9,163.5z"/>
	<path class="st19" d="M175.9,164.7v-10.1h1.1c0.3,0,0.4,0.1,0.5,0.4l0.1,1.1c0.4-0.5,0.9-0.9,1.5-1.2c0.5-0.3,1.2-0.5,1.9-0.5
		c0.6,0,1,0.1,1.5,0.3c0.4,0.2,0.8,0.4,1.1,0.8c0.3,0.3,0.5,0.7,0.6,1.2c0.1,0.5,0.2,1,0.2,1.6v6.5h-1.8v-6.5c0-0.8-0.2-1.4-0.5-1.8
		c-0.3-0.4-0.9-0.6-1.6-0.6c-0.5,0-1,0.1-1.5,0.4c-0.5,0.3-0.9,0.6-1.3,1v7.5H175.9z"/>
	<path class="st19" d="M190.1,164.9c-0.8,0-1.4-0.2-1.8-0.7c-0.4-0.4-0.6-1.1-0.6-1.9v-6.2h-1.2c-0.1,0-0.2,0-0.3-0.1
		c-0.1-0.1-0.1-0.2-0.1-0.3V155l1.7-0.2l0.4-3.1c0-0.1,0.1-0.2,0.1-0.2s0.2-0.1,0.3-0.1h0.9v3.5h2.9v1.3h-2.9v6.1
		c0,0.4,0.1,0.7,0.3,0.9c0.2,0.2,0.5,0.3,0.8,0.3c0.2,0,0.3,0,0.5-0.1s0.3-0.1,0.4-0.2c0.1-0.1,0.2-0.1,0.3-0.2
		c0.1,0,0.1-0.1,0.2-0.1c0.1,0,0.2,0.1,0.2,0.2l0.5,0.9c-0.3,0.3-0.7,0.5-1.1,0.7S190.6,164.9,190.1,164.9z"/>
	<path class="st19" d="M201.9,164.7h-0.8c-0.2,0-0.3,0-0.4-0.1c-0.1-0.1-0.2-0.2-0.2-0.3l-0.2-0.9c-0.3,0.2-0.5,0.5-0.8,0.6
		c-0.3,0.2-0.5,0.3-0.8,0.5s-0.6,0.2-0.9,0.3c-0.3,0.1-0.7,0.1-1.1,0.1c-0.4,0-0.8-0.1-1.1-0.2c-0.3-0.1-0.6-0.3-0.9-0.5
		c-0.3-0.2-0.5-0.5-0.6-0.8c-0.1-0.3-0.2-0.7-0.2-1.2c0-0.4,0.1-0.8,0.3-1.2s0.6-0.7,1.1-1c0.5-0.3,1.1-0.5,1.9-0.7
		c0.8-0.2,1.8-0.3,2.9-0.3v-0.8c0-0.8-0.2-1.4-0.5-1.8c-0.3-0.4-0.8-0.6-1.5-0.6c-0.4,0-0.8,0.1-1.1,0.2s-0.6,0.2-0.8,0.4
		s-0.4,0.3-0.6,0.4c-0.2,0.1-0.3,0.2-0.5,0.2c-0.1,0-0.2,0-0.3-0.1c-0.1-0.1-0.2-0.1-0.2-0.2l-0.3-0.6c0.6-0.5,1.2-0.9,1.8-1.2
		s1.4-0.4,2.2-0.4c0.6,0,1.1,0.1,1.5,0.3c0.4,0.2,0.8,0.4,1.1,0.8s0.5,0.7,0.7,1.2s0.2,1,0.2,1.6V164.7z M197.3,163.7
		c0.3,0,0.6,0,0.9-0.1c0.3-0.1,0.5-0.2,0.7-0.3c0.2-0.1,0.5-0.3,0.7-0.4s0.4-0.4,0.6-0.6v-2.1c-0.8,0-1.5,0.1-2.1,0.2
		c-0.6,0.1-1,0.2-1.4,0.4c-0.4,0.2-0.6,0.4-0.8,0.6c-0.2,0.2-0.2,0.5-0.2,0.8c0,0.3,0,0.5,0.1,0.7s0.2,0.4,0.4,0.5
		c0.1,0.1,0.3,0.2,0.5,0.3C196.9,163.6,197.1,163.7,197.3,163.7z"/>
	<path class="st19" d="M207,151.4c0,0.2,0,0.3-0.1,0.5c-0.1,0.2-0.2,0.3-0.3,0.4c-0.1,0.1-0.3,0.2-0.4,0.3c-0.2,0.1-0.3,0.1-0.5,0.1
		c-0.2,0-0.3,0-0.5-0.1c-0.2-0.1-0.3-0.2-0.4-0.3c-0.1-0.1-0.2-0.2-0.3-0.4c-0.1-0.1-0.1-0.3-0.1-0.5c0-0.2,0-0.3,0.1-0.5
		c0.1-0.2,0.2-0.3,0.3-0.4c0.1-0.1,0.2-0.2,0.4-0.3c0.1-0.1,0.3-0.1,0.5-0.1c0.2,0,0.3,0,0.5,0.1c0.2,0.1,0.3,0.2,0.4,0.3
		c0.1,0.1,0.2,0.3,0.3,0.4C207,151.1,207,151.3,207,151.4z M206.6,154.6v10.1h-1.8v-10.1H206.6z"/>
	<path class="st19" d="M209.8,164.7v-10.1h1.1c0.3,0,0.4,0.1,0.5,0.4l0.1,1.1c0.4-0.5,0.9-0.9,1.5-1.2c0.5-0.3,1.2-0.5,1.9-0.5
		c0.6,0,1,0.1,1.5,0.3c0.4,0.2,0.8,0.4,1.1,0.8c0.3,0.3,0.5,0.7,0.6,1.2c0.1,0.5,0.2,1,0.2,1.6v6.5h-1.8v-6.5c0-0.8-0.2-1.4-0.5-1.8
		c-0.3-0.4-0.9-0.6-1.6-0.6c-0.5,0-1,0.1-1.5,0.4c-0.5,0.3-0.9,0.6-1.3,1v7.5H209.8z"/>
	<path class="st19" d="M224.9,154.5c0.6,0,1.2,0.1,1.7,0.3c0.5,0.2,1,0.5,1.3,0.9c0.4,0.4,0.7,0.9,0.9,1.4c0.2,0.6,0.3,1.2,0.3,1.9
		c0,0.3,0,0.5-0.1,0.6c-0.1,0.1-0.2,0.1-0.3,0.1h-6.7c0,0.6,0.1,1.2,0.3,1.7c0.2,0.5,0.4,0.9,0.7,1.2s0.6,0.6,1,0.7
		c0.4,0.2,0.8,0.2,1.3,0.2c0.4,0,0.8-0.1,1.2-0.2s0.6-0.2,0.8-0.3s0.4-0.2,0.6-0.3s0.3-0.2,0.4-0.2c0.1,0,0.3,0.1,0.3,0.2l0.5,0.7
		c-0.2,0.3-0.5,0.5-0.8,0.7c-0.3,0.2-0.6,0.4-1,0.5c-0.3,0.1-0.7,0.2-1.1,0.3c-0.4,0.1-0.7,0.1-1.1,0.1c-0.7,0-1.3-0.1-1.9-0.4
		s-1.1-0.6-1.5-1c-0.4-0.5-0.8-1-1-1.7c-0.2-0.7-0.4-1.4-0.4-2.3c0-0.7,0.1-1.4,0.3-2c0.2-0.6,0.5-1.1,0.9-1.6s0.9-0.8,1.5-1.1
		C223.5,154.6,224.2,154.5,224.9,154.5z M224.9,155.8c-0.9,0-1.5,0.2-2,0.7c-0.5,0.5-0.8,1.2-0.9,2.1h5.5c0-0.4-0.1-0.8-0.2-1.1
		c-0.1-0.3-0.3-0.6-0.5-0.9c-0.2-0.2-0.5-0.4-0.8-0.6C225.7,155.8,225.3,155.8,224.9,155.8z"/>
	<path class="st19" d="M231.4,164.7v-10.1h1c0.2,0,0.3,0,0.4,0.1c0.1,0.1,0.1,0.2,0.2,0.4l0.1,1.6c0.3-0.7,0.8-1.3,1.3-1.7
		c0.5-0.4,1.1-0.6,1.8-0.6c0.3,0,0.5,0,0.8,0.1s0.4,0.2,0.6,0.3l-0.2,1.3c0,0.2-0.1,0.2-0.3,0.2c-0.1,0-0.2,0-0.4-0.1
		s-0.5-0.1-0.8-0.1c-0.6,0-1.1,0.2-1.6,0.5c-0.4,0.4-0.8,0.9-1,1.6v6.5H231.4z"/>
</g>
<g>
	<g>
		<g class="st2">
			<defs>
				<rect id="SVGID_51_" x="174.7" y="26.1" class="st2" width="50.2" height="31.1"/>
			</defs>
			<clipPath id="SVGID_35_">
				<use xlink:href="#SVGID_51_"  style="overflow:visible;"/>
			</clipPath>
			<g class="st22">
				<g>
					<g>
						<g>
							<g>
								<defs>
									<polyline id="SVGID_53_" points="174.7,57.1 182.1,30.7 224.9,26.1 217.4,52.5 174.7,57.1 									"/>
								</defs>
								<clipPath id="SVGID_36_">
									<use xlink:href="#SVGID_53_"  style="overflow:visible;"/>
								</clipPath>
								<path style="clip-path:url(#SVGID_36_);fill:#8000FF;" d="M192,54.1l-0.5,0.9c0.3,0,0.6,0,0.9,0l0.4-0.9c-0.1,0-0.2,0-0.2,0
									C192.4,54.2,192.2,54.2,192,54.1 M194.5,54.1c-0.3,0-0.6,0-0.9,0l-0.4,0.9c0.3,0,0.6,0,0.9-0.1L194.5,54.1 M190.4,54.1
									l-0.6,0.9c0.3,0,0.5,0,0.8,0.1l0.5-0.9C191,54.1,190.7,54.1,190.4,54.1 M196.2,53.9c-0.2,0-0.4,0.1-0.6,0.1l-0.2,0l-0.3,0.9
									l0.2,0l0,0c0.2,0,0.4,0,0.7-0.1L196.2,53.9 M188.9,53.9l-0.7,0.9c0.3,0,0.5,0.1,0.8,0.1l0.7-0.9
									C189.4,53.9,189.2,53.9,188.9,53.9 M198,53.6c-0.3,0.1-0.6,0.1-0.9,0.1l-0.2,0.9c0.3,0,0.6-0.1,0.9-0.2L198,53.6
									 M187.5,53.5l-0.8,0.9c0.3,0.1,0.5,0.1,0.8,0.2l0.8-0.9C187.9,53.7,187.7,53.6,187.5,53.5 M186.1,53.1l-0.9,0.9
									c0.2,0.1,0.5,0.2,0.7,0.2l0.9-0.9C186.6,53.3,186.3,53.2,186.1,53.1 M184.9,52.6l-1,0.8c0.2,0.1,0.4,0.2,0.6,0.3l1-0.8
									C185.3,52.8,185.1,52.7,184.9,52.6 M183.7,52l-1.1,0.8c0.2,0.1,0.4,0.2,0.6,0.3l1-0.8C184.1,52.3,183.9,52.2,183.7,52
									 M182.7,51.4l-1.1,0.7c0.2,0.1,0.3,0.3,0.5,0.4l1.1-0.8C183.1,51.6,182.9,51.5,182.7,51.4 M181.9,50.6l-1.2,0.7
									c0.1,0.1,0.3,0.3,0.4,0.4l1.2-0.7C182.1,50.9,182,50.7,181.9,50.6 M181.1,49.7l-1.3,0.6c0.1,0.2,0.3,0.3,0.4,0.5l1.2-0.6
									C181.4,50,181.2,49.9,181.1,49.7 M180.5,48.8l-1.3,0.6c0.1,0.2,0.2,0.3,0.3,0.5l1.3-0.6C180.7,49.1,180.6,49,180.5,48.8
									 M180.1,47.8l-1.3,0.5c0.1,0.2,0.1,0.4,0.2,0.5l1.3-0.5C180.2,48.2,180.1,48,180.1,47.8 M179.8,46.8l-1.4,0.4
									c0,0.2,0.1,0.4,0.1,0.6l1.3-0.5C179.9,47.1,179.8,47,179.8,46.8 M179.7,45.7l-1.4,0.3c0,0.2,0,0.4,0.1,0.6l1.4-0.4
									C179.7,46.1,179.7,45.9,179.7,45.7 M179.7,44.6l-1.4,0.3c0,0.2,0,0.4,0,0.6l1.4-0.3C179.6,45,179.7,44.8,179.7,44.6
									 M179.8,43.4l-1.3,0.2c0,0.2-0.1,0.4-0.1,0.6l1.4-0.2C179.8,43.8,179.8,43.6,179.8,43.4 M180.2,42.2l-1.3,0.1
									c-0.1,0.2-0.1,0.4-0.2,0.6l0,0.1l1.4-0.2C180.1,42.6,180.1,42.4,180.2,42.2 M180.6,41l-1.3,0c-0.1,0.2-0.2,0.4-0.3,0.6
									l1.3-0.1C180.5,41.4,180.6,41.2,180.6,41 M180,39.8c-0.1,0.2-0.2,0.4-0.4,0.6l1.3,0c0.1-0.2,0.2-0.4,0.3-0.6L180,39.8
									 M180.8,38.5c-0.1,0.2-0.3,0.4-0.4,0.6l1.2,0.1c0.1-0.2,0.3-0.4,0.4-0.6L180.8,38.5 M181.8,37.3c-0.2,0.2-0.3,0.4-0.5,0.6
									l1.2,0.2c0.2-0.2,0.3-0.4,0.5-0.6L181.8,37.3 M182.8,36.2c-0.1,0.1-0.3,0.3-0.4,0.4l1.1,0.3c0.1-0.1,0.3-0.3,0.4-0.4
									L182.8,36.2"/>
								<path style="clip-path:url(#SVGID_36_);fill:#8000FF;" d="M219.3,31.6l-1.2,0.8c2,3.5,0.8,8.1-3.2,12.4
									c-4,4.3-10.4,7.5-16.9,8.8l-0.1,0.9c7-1.3,13.8-4.8,18.1-9.4C220.4,40.5,221.6,35.4,219.3,31.6"/>
								<polyline style="clip-path:url(#SVGID_36_);fill:#8000FF;" points="211.9,27.5 213.3,35.8 218.1,32.5 219.3,31.6 
									224.3,28.1 224.3,28.1 211.9,27.5 								"/>
							</g>
						</g>
					</g>
				</g>
			</g>
		</g>
	</g>
</g>
<rect x="179" y="11" class="st18" width="43" height="20"/>
<text transform="matrix(1 0 0 1 179 24.2656)" class="st10 st43 st44">360°</text>
<g>
	<g>
		<g class="st2">
			<defs>
				<rect id="SVGID_55_" x="49.3" y="140.3" class="st2" width="46.7" height="33.6"/>
			</defs>
			<clipPath id="SVGID_37_">
				<use xlink:href="#SVGID_55_"  style="overflow:visible;"/>
			</clipPath>
			<g class="st24">
				<g>
					<g>
						<g>
							<g>
								<defs>
									<polyline id="SVGID_57_" points="49.3,173.9 57.6,144.4 96,140.3 87.7,169.8 49.3,173.9 									"/>
								</defs>
								<clipPath id="SVGID_38_">
									<use xlink:href="#SVGID_57_"  style="overflow:visible;"/>
								</clipPath>
								<path class="st25" d="M65.4,171.3c-0.3,0-0.6,0-0.8,0l-0.5,0.9c0.3,0,0.6,0,0.9,0L65.4,171.3 M62.9,171.2l-0.6,0.9
									c0.3,0,0.6,0,0.9,0l0.5-0.9C63.5,171.3,63.2,171.2,62.9,171.2 M67.1,171.1c-0.3,0-0.6,0-0.8,0.1l-0.3,0.9
									c0.3,0,0.6,0,0.9-0.1L67.1,171.1 M61.4,171.1l-0.7,0.9c0.3,0,0.5,0.1,0.8,0.1l0.6-0.9C61.9,171.1,61.6,171.1,61.4,171.1
									 M68.8,170.9c-0.3,0-0.6,0.1-0.9,0.1l-0.2,0.9c0.3,0,0.6-0.1,0.9-0.1L68.8,170.9 M59.9,170.8l-0.8,0.9
									c0.3,0.1,0.5,0.1,0.8,0.2l0.7-0.9C60.4,170.9,60.1,170.9,59.9,170.8 M70.5,170.6c-0.3,0.1-0.6,0.1-0.9,0.2l-0.1,0.9
									c0.3-0.1,0.6-0.1,0.9-0.2L70.5,170.6 M58.7,170.5l-0.9,0.9c0.2,0,0.4,0.1,0.5,0.1l0.8-0.9C59,170.6,58.8,170.6,58.7,170.5
									 M72.3,170.2c-0.3,0.1-0.6,0.2-0.9,0.2l0,0.9c0.3-0.1,0.6-0.2,0.9-0.2L72.3,170.2 M74,169.6c-0.3,0.1-0.6,0.2-0.9,0.3
									l0.2,0.8c0.3-0.1,0.6-0.2,0.9-0.3L74,169.6 M75.8,169c-0.3,0.1-0.6,0.2-0.9,0.3l0.3,0.8c0.3-0.1,0.6-0.2,0.9-0.3L75.8,169
									 M77.4,168.3c-0.3,0.1-0.6,0.2-0.8,0.4l0.4,0.8c0.3-0.1,0.6-0.3,0.9-0.4L77.4,168.3 M79.1,167.5c-0.3,0.1-0.5,0.3-0.8,0.4
									l0.5,0.7c0.3-0.1,0.6-0.3,0.9-0.4L79.1,167.5 M80.6,166.6c-0.3,0.2-0.5,0.3-0.8,0.4l0.6,0.6c0.3-0.2,0.6-0.3,0.8-0.5
									L80.6,166.6 M82.1,165.7c-0.2,0.2-0.5,0.3-0.7,0.5l0.7,0.6c0.3-0.2,0.5-0.3,0.8-0.5L82.1,165.7 M83.5,164.7
									c-0.2,0.2-0.5,0.3-0.7,0.5l0.8,0.5c0.3-0.2,0.5-0.4,0.7-0.5L83.5,164.7 M84.8,163.6c-0.2,0.2-0.4,0.4-0.6,0.5l0.9,0.4
									c0.2-0.2,0.5-0.4,0.7-0.6L84.8,163.6 M86,162.5c-0.2,0.2-0.4,0.4-0.6,0.6l1,0.4c0.2-0.2,0.4-0.4,0.6-0.6L86,162.5
									 M87.1,161.4c-0.2,0.2-0.3,0.4-0.5,0.6l1.1,0.3c0.2-0.2,0.4-0.4,0.6-0.6L87.1,161.4 M88.1,160.2c-0.2,0.2-0.3,0.4-0.5,0.6
									l1.1,0.2c0.2-0.2,0.3-0.4,0.5-0.6L88.1,160.2 M88.9,159.1c-0.1,0.2-0.3,0.4-0.4,0.6l1.2,0.1c0.1-0.2,0.3-0.4,0.4-0.6
									L88.9,159.1 M89.6,157.9c-0.1,0.2-0.2,0.4-0.3,0.6l1.3,0c0.1-0.2,0.2-0.4,0.3-0.6L89.6,157.9 M91.4,156.6l-1.3,0.1
									c-0.1,0.2-0.2,0.4-0.2,0.6l1.3,0C91.2,157,91.3,156.8,91.4,156.6 M91.8,155.3l-1.3,0.2l-0.1,0.3c0,0.1-0.1,0.2-0.1,0.3
									l1.3-0.1l0.1-0.2c0,0,0-0.1,0-0.1L91.8,155.3 M92,154.1l-1.3,0.2c0,0.2-0.1,0.4-0.1,0.6l1.4-0.2C92,154.5,92,154.3,92,154.1
									"/>
								<path class="st25" d="M78.2,143.4c-1,0-2.1,0.1-3.1,0.2c-3.5,0.4-7.1,1.4-10.6,2.9l0.8,0.6c3.1-1.4,6.4-2.2,9.5-2.6
									c1-0.1,2-0.2,2.9-0.2c2,0,3.9,0.2,5.7,0.7c5.1,1.4,7.8,4.9,7.3,9.2l1.3-0.2c0.6-4.6-2.3-8.3-7.8-9.9
									C82.4,143.7,80.3,143.4,78.2,143.4"/>
								<polyline class="st25" points="60.8,144.1 55.1,153.3 68.6,149.4 65.2,147.1 64.4,146.5 60.8,144.1 								"/>
							</g>
						</g>
					</g>
				</g>
			</g>
		</g>
	</g>
</g>
<rect x="11" y="154" class="st18" width="49" height="20"/>
<text transform="matrix(1 0 0 1 11 167.2656)" class="st10 st43 st44">180°</text>
<rect x="195.5" y="34" class="st10" width="1" height="37"/>
<rect x="66" y="161" class="st10" width="37" height="1"/>
</svg>
