<?xml version="1.0" encoding="utf-8"?>
<!-- Generator: Adobe Illustrator 21.0.2, SVG Export Plug-In . SVG Version: 6.00 Build 0)  -->
<svg version="1.1" id="Layer_1" xmlns="http://www.w3.org/2000/svg" xmlns:xlink="http://www.w3.org/1999/xlink" x="0px" y="0px"
	 viewBox="0 0 300 180" style="enable-background:new 0 0 300 180;" xml:space="preserve">
<style type="text/css">
	.st0{opacity:0.4;}
	.st1{fill:#6622CC;}
	.st2{enable-background:new    ;}
	.st3{clip-path:url(#SVGID_2_);}
	.st4{fill:#16C4BF;}
	.st5{clip-path:url(#SVGID_6_);}
	.st6{fill:#C200FB;}
	.st7{clip-path:url(#SVGID_10_);}
	.st8{fill:#F7B32B;}
	.st9{clip-path:url(#SVGID_14_);}
	.st10{fill:#4056F4;}
	.st11{clip-path:url(#SVGID_18_);}
	.st12{clip-path:url(#SVGID_22_);}
	.st13{clip-path:url(#SVGID_26_);}
	.st14{clip-path:url(#SVGID_30_);}
	.st15{clip-path:url(#SVGID_33_);}
	.st16{fill:none;stroke:#16C4BF;stroke-miterlimit:10;}
	.st17{fill:none;stroke:#4056F4;stroke-width:0.9749;stroke-linecap:round;stroke-miterlimit:10;}
	.st18{fill:none;}
	.st19{fill:#8000FF;}
	.st20{fill:none;stroke:#16C4BF;stroke-width:0.908;stroke-miterlimit:10;}
	.st21{fill:none;stroke:#8000FF;stroke-miterlimit:10;}
	.st22{clip-path:url(#SVGID_35_);}
	.st23{clip-path:url(#SVGID_36_);}
	.st24{clip-path:url(#SVGID_37_);}
	.st25{clip-path:url(#SVGID_38_);fill:#8000FF;}
	.st26{clip-path:url(#SVGID_39_);}
	.st27{clip-path:url(#SVGID_40_);fill:#8000FF;}
	.st28{fill:none;stroke:#8000FF;stroke-miterlimit:10;stroke-dasharray:2,2;}
	.st29{clip-path:url(#SVGID_41_);}
	.st30{clip-path:url(#SVGID_42_);fill:#8000FF;}
	.st31{clip-path:url(#SVGID_43_);}
	.st32{clip-path:url(#SVGID_44_);fill:#8000FF;}
	.st33{fill:none;stroke:#4056F4;stroke-miterlimit:10;}
	.st34{fill:none;stroke:#4056F4;stroke-width:2;stroke-miterlimit:10;}
	.st35{clip-path:url(#SVGID_45_);}
	.st36{clip-path:url(#SVGID_46_);}
	.st37{clip-path:url(#SVGID_47_);fill:#8000FF;}
	.st38{clip-path:url(#SVGID_48_);}
	.st39{clip-path:url(#SVGID_49_);}
	.st40{clip-path:url(#SVGID_50_);fill:#8000FF;}
	.st41{clip-path:url(#SVGID_52_);}
	.st42{clip-path:url(#SVGID_54_);fill:#8000FF;}
	.st43{clip-path:url(#SVGID_56_);}
	.st44{clip-path:url(#SVGID_58_);fill:#8000FF;}
	.st45{fill:none;stroke:#6622CC;stroke-miterlimit:10;}
	.st46{clip-path:url(#SVGID_60_);}
	.st47{clip-path:url(#SVGID_62_);}
	.st48{clip-path:url(#SVGID_64_);}
	.st49{clip-path:url(#SVGID_66_);}
	.st50{clip-path:url(#SVGID_68_);}
	.st51{clip-path:url(#SVGID_70_);}
	.st52{clip-path:url(#SVGID_72_);}
	.st53{clip-path:url(#SVGID_74_);}
	.st54{clip-path:url(#SVGID_76_);}
	.st55{clip-path:url(#SVGID_78_);}
	.st56{clip-path:url(#SVGID_80_);}
	.st57{clip-path:url(#SVGID_82_);}
	.st58{clip-path:url(#SVGID_84_);}
	.st59{clip-path:url(#SVGID_86_);}
	.st60{clip-path:url(#SVGID_88_);}
	.st61{clip-path:url(#SVGID_90_);}
	.st62{clip-path:url(#SVGID_92_);}
	.st63{clip-path:url(#SVGID_94_);}
	.st64{clip-path:url(#SVGID_96_);}
	.st65{clip-path:url(#SVGID_98_);}
	.st66{clip-path:url(#SVGID_100_);}
	.st67{clip-path:url(#SVGID_102_);}
	.st68{clip-path:url(#SVGID_104_);}
	.st69{clip-path:url(#SVGID_106_);}
	.st70{clip-path:url(#SVGID_108_);}
	.st71{clip-path:url(#SVGID_110_);}
	.st72{clip-path:url(#SVGID_112_);}
	.st73{font-family:'Lato-Regular';}
	.st74{font-size:11.7649px;}
</style>
<g>
	<g class="st0">
		<g>
			<path class="st1" d="M69.8,164.8c-28.5,0-51.6-23.1-51.6-51.6s23.1-51.6,51.6-51.6s51.6,23.1,51.6,51.6S98.2,164.8,69.8,164.8z
				 M69.8,62.3c-28.1,0-50.9,22.8-50.9,50.9s22.8,50.9,50.9,50.9s50.9-22.8,50.9-50.9S97.9,62.3,69.8,62.3z"/>
			<path class="st1" d="M69.8,160.1c-25.9,0-46.9-21-46.9-46.9s21-46.9,46.9-46.9s46.9,21,46.9,46.9S95.6,160.1,69.8,160.1z
				 M69.8,67c-25.5,0-46.2,20.7-46.2,46.2s20.7,46.2,46.2,46.2s46.2-20.7,46.2-46.2S95.3,67,69.8,67z"/>
		</g>
		<g>
			<g>
				<g class="st2">
					<defs>
						<rect id="SVGID_77_" x="18.2" y="106.9" class="st2" width="103.2" height="12.6"/>
					</defs>
					<clipPath id="SVGID_2_">
						<use xlink:href="#SVGID_77_"  style="overflow:visible;"/>
					</clipPath>
					<g class="st3">
						<g>
							<g>
								<g>
									<path class="st4" d="M69.8,119.4c-28.1,0-50.9-2.8-50.9-6.2c0-3.4,22.8-6.2,50.9-6.2c28.1,0,50.9,2.8,50.9,6.2
										C120.7,116.6,97.9,119.4,69.8,119.4 M69.8,106.9c-28.5,0-51.6,2.8-51.6,6.3c0,3.5,23.1,6.3,51.6,6.3
										c28.5,0,51.6-2.8,51.6-6.3C121.4,109.7,98.2,106.9,69.8,106.9"/>
									<path class="st4" d="M69.8,118.8c-25.5,0-46.2-2.5-46.2-5.6s20.7-5.6,46.2-5.6c25.5,0,46.2,2.5,46.2,5.6
										S95.3,118.8,69.8,118.8 M69.8,107.5c-25.9,0-46.9,2.6-46.9,5.7s21,5.7,46.9,5.7c25.9,0,46.9-2.6,46.9-5.7
										S95.6,107.5,69.8,107.5"/>
								</g>
							</g>
						</g>
					</g>
				</g>
			</g>
		</g>
		<g>
			<g>
				<g class="st2">
					<defs>
						<rect id="SVGID_79_" x="40.9" y="61.6" class="st2" width="57.7" height="103.2"/>
					</defs>
					<clipPath id="SVGID_6_">
						<use xlink:href="#SVGID_79_"  style="overflow:visible;"/>
					</clipPath>
					<g class="st5">
						<g>
							<g>
								<g>
									<path class="st6" d="M69.8,164.1c-15.7,0-28.5-22.8-28.5-50.9c0-28.1,12.8-50.9,28.5-50.9c15.7,0,28.5,22.8,28.5,50.9
										C98.3,141.3,85.5,164.1,69.8,164.1 M69.8,61.6c-15.9,0-28.9,23.1-28.9,51.6c0,28.4,12.9,51.6,28.9,51.6
										c15.9,0,28.9-23.2,28.9-51.6C98.6,84.8,85.7,61.6,69.8,61.6"/>
									<path class="st6" d="M69.8,159.4c-14.2,0-25.8-20.7-25.8-46.2S55.5,67,69.8,67c14.2,0,25.8,20.7,25.8,46.2
										S84,159.4,69.8,159.4 M69.8,66.3c-14.5,0-26.2,21-26.2,46.9s11.8,46.9,26.2,46.9c14.5,0,26.2-21,26.2-46.9
										S84.2,66.3,69.8,66.3"/>
								</g>
							</g>
						</g>
					</g>
				</g>
			</g>
		</g>
		<g>
			<g>
				<g class="st2">
					<defs>
						<rect id="SVGID_81_" x="24.2" y="61.6" class="st2" width="91.1" height="103.2"/>
					</defs>
					<clipPath id="SVGID_10_">
						<use xlink:href="#SVGID_81_"  style="overflow:visible;"/>
					</clipPath>
					<g class="st7">
						<g>
							<g>
								<g>
									<path class="st8" d="M69.8,164.1c-24.8,0-45-22.8-45-50.9c0-28.1,20.2-50.9,45-50.9c24.8,0,45,22.8,45,50.9
										C114.8,141.3,94.6,164.1,69.8,164.1 M69.8,61.6c-25.1,0-45.6,23.1-45.6,51.6c0,28.4,20.4,51.6,45.6,51.6
										c25.1,0,45.6-23.2,45.6-51.6C115.4,84.8,94.9,61.6,69.8,61.6"/>
									<path class="st8" d="M69.8,159.4c-22.5,0-40.8-20.7-40.8-46.2S47.3,67,69.8,67c22.5,0,40.8,20.7,40.8,46.2
										S92.3,159.4,69.8,159.4 M69.8,66.3c-22.8,0-41.4,21-41.4,46.9s18.6,46.9,41.4,46.9c22.8,0,41.4-21,41.4-46.9
										S92.6,66.3,69.8,66.3"/>
								</g>
							</g>
						</g>
					</g>
				</g>
			</g>
		</g>
		<g>
			<g>
				<g class="st2">
					<defs>
						<rect id="SVGID_83_" x="33.3" y="61.6" class="st2" width="73" height="103.2"/>
					</defs>
					<clipPath id="SVGID_14_">
						<use xlink:href="#SVGID_83_"  style="overflow:visible;"/>
					</clipPath>
					<g class="st9">
						<g>
							<g>
								<g>
									<path class="st10" d="M69.8,164.1c-19.9,0-36-22.8-36-50.9c0-28.1,16.2-50.9,36-50.9c19.9,0,36,22.8,36,50.9
										C105.8,141.3,89.6,164.1,69.8,164.1 M69.8,61.6c-20.1,0-36.5,23.1-36.5,51.6c0,28.4,16.4,51.6,36.5,51.6
										c20.1,0,36.5-23.2,36.5-51.6C106.3,84.8,89.9,61.6,69.8,61.6"/>
									<path class="st10" d="M69.8,159.4c-18,0-32.7-20.7-32.7-46.2S51.8,67,69.8,67c18,0,32.7,20.7,32.7,46.2
										S87.8,159.4,69.8,159.4 M69.8,66.3c-18.3,0-33.2,21-33.2,46.9s14.9,46.9,33.2,46.9c18.3,0,33.2-21,33.2-46.9
										S88.1,66.3,69.8,66.3"/>
								</g>
							</g>
						</g>
					</g>
				</g>
			</g>
		</g>
		<g>
			<g>
				<g class="st2">
					<defs>
						<rect id="SVGID_85_" x="44" y="61.6" class="st2" width="51.6" height="103.2"/>
					</defs>
					<clipPath id="SVGID_18_">
						<use xlink:href="#SVGID_85_"  style="overflow:visible;"/>
					</clipPath>
					<g class="st11">
						<g>
							<g>
								<g>
									<path class="st1" d="M69.8,164.1c-14,0-25.5-22.8-25.5-50.9c0-28.1,11.4-50.9,25.5-50.9c14,0,25.5,22.8,25.5,50.9
										C95.3,141.3,83.8,164.1,69.8,164.1 M69.8,61.6C55.6,61.6,44,84.8,44,113.2c0,28.4,11.6,51.6,25.8,51.6
										c14.2,0,25.8-23.2,25.8-51.6C95.6,84.8,84,61.6,69.8,61.6"/>
									<path class="st1" d="M69.8,159.4c-12.7,0-23.1-20.7-23.1-46.2S57.1,67,69.8,67c12.7,0,23.1,20.7,23.1,46.2
										S82.5,159.4,69.8,159.4 M69.8,66.3c-12.9,0-23.4,21-23.4,46.9s10.5,46.9,23.4,46.9c12.9,0,23.4-21,23.4-46.9
										S82.7,66.3,69.8,66.3"/>
								</g>
							</g>
						</g>
					</g>
				</g>
			</g>
		</g>
		<g>
			<g>
				<g class="st2">
					<defs>
						<rect id="SVGID_87_" x="18.2" y="76.7" class="st2" width="103.2" height="73"/>
					</defs>
					<clipPath id="SVGID_22_">
						<use xlink:href="#SVGID_87_"  style="overflow:visible;"/>
					</clipPath>
					<g class="st12">
						<g>
							<g>
								<g>
									<path class="st4" d="M69.8,149.2c-28.1,0-50.9-16.2-50.9-36c0-19.9,22.8-36,50.9-36c28.1,0,50.9,16.2,50.9,36
										C120.7,133.1,97.9,149.2,69.8,149.2 M69.8,76.7c-28.5,0-51.6,16.4-51.6,36.5c0,20.1,23.1,36.5,51.6,36.5
										c28.5,0,51.6-16.4,51.6-36.5C121.4,93.1,98.2,76.7,69.8,76.7"/>
									<path class="st4" d="M69.8,145.9c-25.5,0-46.2-14.7-46.2-32.7s20.7-32.7,46.2-32.7c25.5,0,46.2,14.7,46.2,32.7
										S95.3,145.9,69.8,145.9 M69.8,80.1c-25.9,0-46.9,14.9-46.9,33.2s21,33.2,46.9,33.2c25.9,0,46.9-14.9,46.9-33.2
										S95.6,80.1,69.8,80.1"/>
								</g>
							</g>
						</g>
					</g>
				</g>
			</g>
		</g>
		<g>
			<g>
				<g class="st2">
					<defs>
						<rect id="SVGID_89_" x="18.2" y="87.4" class="st2" width="103.2" height="51.6"/>
					</defs>
					<clipPath id="SVGID_26_">
						<use xlink:href="#SVGID_89_"  style="overflow:visible;"/>
					</clipPath>
					<g class="st13">
						<g>
							<g>
								<g>
									<path class="st6" d="M69.8,87.8c-28.1,0-50.9,11.4-50.9,25.5c0,14,22.8,25.5,50.9,25.5c28.1,0,50.9-11.4,50.9-25.5
										C120.7,99.2,97.9,87.8,69.8,87.8 M69.8,139c-28.5,0-51.6-11.6-51.6-25.8c0-14.2,23.1-25.8,51.6-25.8
										c28.5,0,51.6,11.6,51.6,25.8C121.4,127.4,98.2,139,69.8,139"/>
									<path class="st6" d="M69.8,90.1c-25.5,0-46.2,10.4-46.2,23.1s20.7,23.1,46.2,23.1c25.5,0,46.2-10.4,46.2-23.1
										S95.3,90.1,69.8,90.1 M69.8,136.7c-25.9,0-46.9-10.5-46.9-23.4s21-23.4,46.9-23.4c25.9,0,46.9,10.5,46.9,23.4
										S95.6,136.7,69.8,136.7"/>
								</g>
							</g>
						</g>
					</g>
				</g>
			</g>
		</g>
		<g>
			<g>
				<g class="st2">
					<defs>
						<rect id="SVGID_91_" x="18.2" y="80" class="st2" width="103.2" height="66.3"/>
					</defs>
					<clipPath id="SVGID_30_">
						<use xlink:href="#SVGID_91_"  style="overflow:visible;"/>
					</clipPath>
					<g class="st14">
						<g>
							<g>
								<g>
									<path class="st8" d="M69.8,145.9c-28.1,0-50.9-14.7-50.9-32.7c0-18,22.8-32.7,50.9-32.7c28.1,0,50.9,14.7,50.9,32.7
										C120.7,131.3,97.9,145.9,69.8,145.9 M69.8,80c-28.5,0-51.6,14.9-51.6,33.2c0,18.3,23.1,33.2,51.6,33.2
										c28.5,0,51.6-14.9,51.6-33.2C121.4,94.9,98.2,80,69.8,80"/>
									<path class="st8" d="M69.8,142.9c-25.5,0-46.2-13.3-46.2-29.7s20.7-29.7,46.2-29.7c25.5,0,46.2,13.3,46.2,29.7
										S95.3,142.9,69.8,142.9 M69.8,83.1c-25.9,0-46.9,13.5-46.9,30.1s21,30.1,46.9,30.1c25.9,0,46.9-13.5,46.9-30.1
										S95.6,83.1,69.8,83.1"/>
								</g>
							</g>
						</g>
					</g>
				</g>
			</g>
		</g>
		<g>
			<g>
				<g class="st2">
					<defs>
						<rect id="SVGID_93_" x="36.6" y="61.6" class="st2" width="66.3" height="103.2"/>
					</defs>
					<clipPath id="SVGID_33_">
						<use xlink:href="#SVGID_93_"  style="overflow:visible;"/>
					</clipPath>
					<g class="st15">
						<g>
							<g>
								<g>
									<path class="st10" d="M69.8,164.1c-18,0-32.7-22.8-32.7-50.9c0-28.1,14.7-50.9,32.7-50.9c18,0,32.7,22.8,32.7,50.9
										C102.5,141.3,87.8,164.1,69.8,164.1 M69.8,61.6c-18.3,0-33.2,23.1-33.2,51.6c0,28.4,14.9,51.6,33.2,51.6
										c18.3,0,33.2-23.2,33.2-51.6C103,84.8,88.1,61.6,69.8,61.6"/>
									<path class="st10" d="M69.8,159.4c-16.4,0-29.7-20.7-29.7-46.2S53.4,67,69.8,67c16.4,0,29.7,20.7,29.7,46.2
										S86.2,159.4,69.8,159.4 M69.8,66.3c-16.6,0-30.1,21-30.1,46.9s13.5,46.9,30.1,46.9c16.6,0,30.1-21,30.1-46.9
										S86.4,66.3,69.8,66.3"/>
								</g>
							</g>
						</g>
					</g>
				</g>
			</g>
		</g>
	</g>
	<path class="st19" d="M127.7,171.5h-1.4v-0.7h1.4V171.5z M125,171.5h-1.4v-0.7h1.4V171.5z M122.3,171.5h-1.4v-0.7h1.4V171.5z
		 M119.5,171.5h-1.4v-0.7h1.4V171.5z M116.8,171.5h-1.4v-0.7h1.4V171.5z M114,171.5h-1.4v-0.7h1.4V171.5z M111.3,171.5h-1.4v-0.7
		h1.4V171.5z M108.5,171.5h-1.4v-0.7h1.4V171.5z M105.8,171.5h-1.4v-0.7h1.4V171.5z M103,171.5h-1.4v-0.7h1.4V171.5z M100.3,171.5
		h-1.4v-0.7h1.4V171.5z M97.6,171.5h-1.4v-0.7h1.4V171.5z M94.8,171.5h-1.4v-0.7h1.4V171.5z M92.1,171.5h-1.4v-0.7h1.4V171.5z
		 M89.3,171.5H88v-0.7h1.4V171.5z M86.6,171.5h-1.4v-0.7h1.4V171.5z M83.8,171.5h-1.4v-0.7h1.4V171.5z M81.1,171.5h-1.4v-0.7h1.4
		V171.5z M78.4,171.5H77v-0.7h1.4V171.5z M75.6,171.5h-1.4v-0.7h1.4V171.5z M72.9,171.5h-1.4v-0.7h1.4V171.5z M70.1,171.5h-1.4v-0.7
		h1.4V171.5z M67.4,171.5H66v-0.7h1.4V171.5z M64.6,171.5h-1.4v-0.7h1.4V171.5z M61.9,171.5h-1.4v-0.7h1.4V171.5z M59.2,171.5h-1.4
		v-0.7h1.4V171.5z M56.4,171.5H55v-0.7h1.4V171.5z M53.7,171.5h-1.4v-0.7h1.4V171.5z M50.9,171.5h-1.4v-0.7h1.4V171.5z M48.2,171.5
		h-1.4v-0.7h1.4V171.5z M45.4,171.5h-1.4v-0.7h1.4V171.5z M42.7,171.5h-1.4v-0.7h1.4V171.5z M40,171.5h-1.4v-0.7H40V171.5z
		 M37.2,171.5h-1.4v-0.7h1.4V171.5z M34.5,171.5h-1.4v-0.7h1.4V171.5z M31.7,171.5h-1.4v-0.7h1.4V171.5z M29,171.5h-1.4v-0.7H29
		V171.5z M26.2,171.5h-1.4v-0.7h1.4V171.5z M23.5,171.5h-1.4v-0.7h1.4V171.5z M20.8,171.5h-1.4v-0.7h1.4V171.5z M18,171.5h-1.4v-0.7
		H18V171.5z M15.3,171.5h-1.4v-0.7h1.4V171.5z M12.5,171.5h-1v-1h0.7v0.3h0.3V171.5z M128.1,169.8h-0.7v-1.4h0.7V169.8z M12.2,169.1
		h-0.7v-1.4h0.7V169.1z M128.1,167h-0.7v-1.4h0.7V167z M12.2,166.4h-0.7V165h0.7V166.4z M128.1,164.3h-0.7v-1.4h0.7V164.3z
		 M12.2,163.6h-0.7v-1.4h0.7V163.6z M128.1,161.6h-0.7v-1.4h0.7V161.6z M12.2,160.9h-0.7v-1.4h0.7V160.9z M128.1,158.8h-0.7v-1.4
		h0.7V158.8z M12.2,158.1h-0.7v-1.4h0.7V158.1z M128.1,156.1h-0.7v-1.4h0.7V156.1z M12.2,155.4h-0.7V154h0.7V155.4z M128.1,153.3
		h-0.7V152h0.7V153.3z M12.2,152.6h-0.7v-1.4h0.7V152.6z M128.1,150.6h-0.7v-1.4h0.7V150.6z M12.2,149.9h-0.7v-1.4h0.7V149.9z
		 M128.1,147.8h-0.7v-1.4h0.7V147.8z M12.2,147.2h-0.7v-1.4h0.7V147.2z M128.1,145.1h-0.7v-1.4h0.7V145.1z M12.2,144.4h-0.7V143h0.7
		V144.4z M128.1,142.4h-0.7V141h0.7V142.4z M12.2,141.7h-0.7v-1.4h0.7V141.7z M128.1,139.6h-0.7v-1.4h0.7V139.6z M12.2,138.9h-0.7
		v-1.4h0.7V138.9z M128.1,136.9h-0.7v-1.4h0.7V136.9z M12.2,136.2h-0.7v-1.4h0.7V136.2z M128.1,134.1h-0.7v-1.4h0.7V134.1z
		 M12.2,133.4h-0.7v-1.4h0.7V133.4z M128.1,131.4h-0.7V130h0.7V131.4z M12.2,130.7h-0.7v-1.4h0.7V130.7z M128.1,128.6h-0.7v-1.4h0.7
		V128.6z M12.2,128h-0.7v-1.4h0.7V128z M128.1,125.9h-0.7v-1.4h0.7V125.9z M12.2,125.2h-0.7v-1.4h0.7V125.2z M128.1,123.2h-0.7v-1.4
		h0.7V123.2z M12.2,122.5h-0.7v-1.4h0.7V122.5z M128.1,120.4h-0.7V119h0.7V120.4z M12.2,119.7h-0.7v-1.4h0.7V119.7z M128.1,117.7
		h-0.7v-1.4h0.7V117.7z M12.2,117h-0.7v-1.4h0.7V117z M128.1,114.9h-0.7v-1.4h0.7V114.9z M12.2,114.2h-0.7v-1.4h0.7V114.2z
		 M128.1,112.2h-0.7v-1.4h0.7V112.2z M12.2,111.5h-0.7v-1.4h0.7V111.5z M128.1,109.4h-0.7v-1.4h0.7V109.4z M12.2,108.8h-0.7v-1.4
		h0.7V108.8z M128.1,106.7h-0.7v-1.4h0.7V106.7z M12.2,106h-0.7v-1.4h0.7V106z M128.1,104h-0.7v-1.4h0.7V104z M12.2,103.3h-0.7v-1.4
		h0.7V103.3z M128.1,101.2h-0.7v-1.4h0.7V101.2z M12.2,100.5h-0.7v-1.4h0.7V100.5z M128.1,98.5h-0.7v-1.4h0.7V98.5z M12.2,97.8h-0.7
		v-1.4h0.7V97.8z M128.1,95.7h-0.7v-1.4h0.7V95.7z M12.2,95h-0.7v-1.4h0.7V95z M128.1,93h-0.7v-1.4h0.7V93z M12.2,92.3h-0.7v-1.4
		h0.7V92.3z M128.1,90.2h-0.7v-1.4h0.7V90.2z M12.2,89.6h-0.7v-1.4h0.7V89.6z M128.1,87.5h-0.7v-1.4h0.7V87.5z M12.2,86.8h-0.7v-1.4
		h0.7V86.8z M128.1,84.8h-0.7v-1.4h0.7V84.8z M12.2,84.1h-0.7v-1.4h0.7V84.1z M128.1,82h-0.7v-1.4h0.7V82z M12.2,81.3h-0.7V80h0.7
		V81.3z M128.1,79.3h-0.7v-1.4h0.7V79.3z M12.2,78.6h-0.7v-1.4h0.7V78.6z M128.1,76.5h-0.7v-1.4h0.7V76.5z M12.2,75.8h-0.7v-1.4h0.7
		V75.8z M128.1,73.8h-0.7v-1.4h0.7V73.8z M12.2,73.1h-0.7v-1.4h0.7V73.1z M128.1,71h-0.7v-1.4h0.7V71z M12.2,70.4h-0.7V69h0.7V70.4z
		 M128.1,68.3h-0.7v-1.4h0.7V68.3z M12.2,67.6h-0.7v-1.4h0.7V67.6z M128.1,65.5h-0.7v-1.4h0.7V65.5z M12.2,64.9h-0.7v-1.4h0.7V64.9z
		 M128.1,62.8h-0.7v-1.4h0.7V62.8z M12.2,62.1h-0.7v-1.4h0.7V62.1z M128.1,60.1h-0.7v-1.4h0.7V60.1z M12.2,59.4h-0.7V58h0.7V59.4z
		 M128.1,57.3h-0.7v-1.4h0.7V57.3z M12.2,56.6h-0.7v-1.4h0.7V56.6z M127.1,55.6h-1.4v-0.7h1.4V55.6z M124.3,55.6h-1.4v-0.7h1.4V55.6
		z M121.6,55.6h-1.4v-0.7h1.4V55.6z M118.8,55.6h-1.4v-0.7h1.4V55.6z M116.1,55.6h-1.4v-0.7h1.4V55.6z M113.3,55.6H112v-0.7h1.4
		V55.6z M110.6,55.6h-1.4v-0.7h1.4V55.6z M107.8,55.6h-1.4v-0.7h1.4V55.6z M105.1,55.6h-1.4v-0.7h1.4V55.6z M102.4,55.6H101v-0.7
		h1.4V55.6z M99.6,55.6h-1.4v-0.7h1.4V55.6z M96.9,55.6h-1.4v-0.7h1.4V55.6z M94.1,55.6h-1.4v-0.7h1.4V55.6z M91.4,55.6H90v-0.7h1.4
		V55.6z M88.6,55.6h-1.4v-0.7h1.4V55.6z M85.9,55.6h-1.4v-0.7h1.4V55.6z M83.2,55.6h-1.4v-0.7h1.4V55.6z M80.4,55.6H79v-0.7h1.4
		V55.6z M77.7,55.6h-1.4v-0.7h1.4V55.6z M74.9,55.6h-1.4v-0.7h1.4V55.6z M72.2,55.6h-1.4v-0.7h1.4V55.6z M69.4,55.6h-1.4v-0.7h1.4
		V55.6z M66.7,55.6h-1.4v-0.7h1.4V55.6z M64,55.6h-1.4v-0.7H64V55.6z M61.2,55.6h-1.4v-0.7h1.4V55.6z M58.5,55.6h-1.4v-0.7h1.4V55.6
		z M55.7,55.6h-1.4v-0.7h1.4V55.6z M53,55.6h-1.4v-0.7H53V55.6z M50.2,55.6h-1.4v-0.7h1.4V55.6z M47.5,55.6h-1.4v-0.7h1.4V55.6z
		 M44.8,55.6h-1.4v-0.7h1.4V55.6z M42,55.6h-1.4v-0.7H42V55.6z M39.3,55.6h-1.4v-0.7h1.4V55.6z M36.5,55.6h-1.4v-0.7h1.4V55.6z
		 M33.8,55.6h-1.4v-0.7h1.4V55.6z M31,55.6h-1.4v-0.7H31V55.6z M28.3,55.6h-1.4v-0.7h1.4V55.6z M25.6,55.6h-1.4v-0.7h1.4V55.6z
		 M22.8,55.6h-1.4v-0.7h1.4V55.6z M20.1,55.6h-1.4v-0.7h1.4V55.6z M17.3,55.6H16v-0.7h1.4V55.6z M14.6,55.6h-1.4v-0.7h1.4V55.6z"/>
	<circle class="st10" cx="69.8" cy="113.2" r="4.5"/>
</g>
<rect x="69.4" y="22.3" class="st10" width="0.8" height="90.9"/>
<g class="st0">
	<g>
		<path class="st1" d="M222.7,164.8c-28.5,0-51.6-23.1-51.6-51.6s23.1-51.6,51.6-51.6s51.6,23.1,51.6,51.6S251.2,164.8,222.7,164.8z
			 M222.7,62.3c-28.1,0-50.9,22.8-50.9,50.9s22.8,50.9,50.9,50.9s50.9-22.8,50.9-50.9S250.8,62.3,222.7,62.3z"/>
		<path class="st1" d="M222.7,160.1c-25.9,0-46.9-21-46.9-46.9s21-46.9,46.9-46.9s46.9,21,46.9,46.9S248.6,160.1,222.7,160.1z
			 M222.7,67c-25.5,0-46.2,20.7-46.2,46.2s20.7,46.2,46.2,46.2s46.2-20.7,46.2-46.2S248.2,67,222.7,67z"/>
	</g>
	<g>
		<g>
			<g class="st2">
				<defs>
					<rect id="SVGID_95_" x="171.1" y="106.9" class="st2" width="103.2" height="12.6"/>
				</defs>
				<clipPath id="SVGID_35_">
					<use xlink:href="#SVGID_95_"  style="overflow:visible;"/>
				</clipPath>
				<g class="st22">
					<g>
						<g>
							<g>
								<path class="st4" d="M222.7,119.4c-28.1,0-50.9-2.8-50.9-6.2c0-3.4,22.8-6.2,50.9-6.2c28.1,0,50.9,2.8,50.9,6.2
									C273.6,116.6,250.8,119.4,222.7,119.4 M222.7,106.9c-28.5,0-51.6,2.8-51.6,6.3c0,3.5,23.1,6.3,51.6,6.3
									c28.4,0,51.6-2.8,51.6-6.3C274.3,109.7,251.2,106.9,222.7,106.9"/>
								<path class="st4" d="M222.7,118.8c-25.5,0-46.2-2.5-46.2-5.6s20.7-5.6,46.2-5.6c25.5,0,46.2,2.5,46.2,5.6
									S248.2,118.8,222.7,118.8 M222.7,107.5c-25.9,0-46.9,2.6-46.9,5.7s21,5.7,46.9,5.7c25.8,0,46.9-2.6,46.9-5.7
									S248.6,107.5,222.7,107.5"/>
							</g>
						</g>
					</g>
				</g>
			</g>
		</g>
	</g>
	<g>
		<g>
			<g class="st2">
				<defs>
					<rect id="SVGID_97_" x="193.9" y="61.6" class="st2" width="57.7" height="103.2"/>
				</defs>
				<clipPath id="SVGID_36_">
					<use xlink:href="#SVGID_97_"  style="overflow:visible;"/>
				</clipPath>
				<g class="st23">
					<g>
						<g>
							<g>
								<path class="st6" d="M222.7,164.1c-15.7,0-28.5-22.8-28.5-50.9c0-28.1,12.8-50.9,28.5-50.9c15.7,0,28.5,22.8,28.5,50.9
									C251.2,141.3,238.4,164.1,222.7,164.1 M222.7,61.6c-15.9,0-28.9,23.1-28.9,51.6c0,28.4,12.9,51.6,28.9,51.6
									c15.9,0,28.9-23.2,28.9-51.6C251.6,84.8,238.6,61.6,222.7,61.6"/>
								<path class="st6" d="M222.7,159.4c-14.2,0-25.8-20.7-25.8-46.2S208.5,67,222.7,67c14.2,0,25.8,20.7,25.8,46.2
									S237,159.4,222.7,159.4 M222.7,66.3c-14.5,0-26.2,21-26.2,46.9s11.8,46.9,26.2,46.9c14.5,0,26.2-21,26.2-46.9
									S237.2,66.3,222.7,66.3"/>
							</g>
						</g>
					</g>
				</g>
			</g>
		</g>
	</g>
	<g>
		<g>
			<g class="st2">
				<defs>
					<rect id="SVGID_99_" x="177.2" y="61.6" class="st2" width="91.1" height="103.2"/>
				</defs>
				<clipPath id="SVGID_37_">
					<use xlink:href="#SVGID_99_"  style="overflow:visible;"/>
				</clipPath>
				<g class="st24">
					<g>
						<g>
							<g>
								<path class="st8" d="M222.7,164.1c-24.8,0-45-22.8-45-50.9c0-28.1,20.2-50.9,45-50.9c24.8,0,45,22.8,45,50.9
									C267.7,141.3,247.5,164.1,222.7,164.1 M222.7,61.6c-25.1,0-45.6,23.1-45.6,51.6c0,28.4,20.4,51.6,45.6,51.6
									c25.1,0,45.6-23.2,45.6-51.6C268.3,84.8,247.9,61.6,222.7,61.6"/>
								<path class="st8" d="M222.7,159.4c-22.5,0-40.8-20.7-40.8-46.2S200.2,67,222.7,67c22.5,0,40.8,20.7,40.8,46.2
									S245.2,159.4,222.7,159.4 M222.7,66.3c-22.8,0-41.4,21-41.4,46.9s18.6,46.9,41.4,46.9c22.8,0,41.4-21,41.4-46.9
									S245.6,66.3,222.7,66.3"/>
							</g>
						</g>
					</g>
				</g>
			</g>
		</g>
	</g>
	<g>
		<g>
			<g class="st2">
				<defs>
					<rect id="SVGID_101_" x="186.2" y="61.6" class="st2" width="73" height="103.2"/>
				</defs>
				<clipPath id="SVGID_38_">
					<use xlink:href="#SVGID_101_"  style="overflow:visible;"/>
				</clipPath>
				<g style="clip-path:url(#SVGID_38_);">
					<g>
						<g>
							<g>
								<path class="st10" d="M222.7,164.1c-19.9,0-36-22.8-36-50.9c0-28.1,16.2-50.9,36-50.9c19.8,0,36,22.8,36,50.9
									C258.7,141.3,242.6,164.1,222.7,164.1 M222.7,61.6c-20.1,0-36.5,23.1-36.5,51.6c0,28.4,16.4,51.6,36.5,51.6
									c20.1,0,36.5-23.2,36.5-51.6C259.2,84.8,242.9,61.6,222.7,61.6"/>
								<path class="st10" d="M222.7,159.4c-18,0-32.7-20.7-32.7-46.2S204.7,67,222.7,67c18,0,32.7,20.7,32.7,46.2
									S240.7,159.4,222.7,159.4 M222.7,66.3c-18.3,0-33.2,21-33.2,46.9s14.9,46.9,33.2,46.9c18.3,0,33.2-21,33.2-46.9
									S241,66.3,222.7,66.3"/>
							</g>
						</g>
					</g>
				</g>
			</g>
		</g>
	</g>
	<g>
		<g>
			<g class="st2">
				<defs>
					<rect id="SVGID_103_" x="196.9" y="61.6" class="st2" width="51.6" height="103.2"/>
				</defs>
				<clipPath id="SVGID_39_">
					<use xlink:href="#SVGID_103_"  style="overflow:visible;"/>
				</clipPath>
				<g class="st26">
					<g>
						<g>
							<g>
								<path class="st1" d="M222.7,164.1c-14,0-25.5-22.8-25.5-50.9c0-28.1,11.4-50.9,25.5-50.9c14,0,25.5,22.8,25.5,50.9
									C248.2,141.3,236.8,164.1,222.7,164.1 M222.7,61.6c-14.2,0-25.8,23.1-25.8,51.6c0,28.4,11.6,51.6,25.8,51.6
									c14.2,0,25.8-23.2,25.8-51.6C248.5,84.8,237,61.6,222.7,61.6"/>
								<path class="st1" d="M222.7,159.4c-12.7,0-23.1-20.7-23.1-46.2S210,67,222.7,67c12.7,0,23.1,20.7,23.1,46.2
									S235.5,159.4,222.7,159.4 M222.7,66.3c-12.9,0-23.4,21-23.4,46.9s10.5,46.9,23.4,46.9c12.9,0,23.4-21,23.4-46.9
									S235.7,66.3,222.7,66.3"/>
							</g>
						</g>
					</g>
				</g>
			</g>
		</g>
	</g>
	<g>
		<g>
			<g class="st2">
				<defs>
					<rect id="SVGID_105_" x="171.1" y="76.7" class="st2" width="103.2" height="73"/>
				</defs>
				<clipPath id="SVGID_40_">
					<use xlink:href="#SVGID_105_"  style="overflow:visible;"/>
				</clipPath>
				<g style="clip-path:url(#SVGID_40_);">
					<g>
						<g>
							<g>
								<path class="st4" d="M222.7,149.2c-28.1,0-50.9-16.2-50.9-36c0-19.9,22.8-36,50.9-36c28.1,0,50.9,16.2,50.9,36
									C273.6,133.1,250.8,149.2,222.7,149.2 M222.7,76.7c-28.5,0-51.6,16.4-51.6,36.5c0,20.1,23.1,36.5,51.6,36.5
									c28.4,0,51.6-16.4,51.6-36.5C274.3,93.1,251.2,76.7,222.7,76.7"/>
								<path class="st4" d="M222.7,145.9c-25.5,0-46.2-14.7-46.2-32.7s20.7-32.7,46.2-32.7c25.5,0,46.2,14.7,46.2,32.7
									S248.2,145.9,222.7,145.9 M222.7,80.1c-25.9,0-46.9,14.9-46.9,33.2s21,33.2,46.9,33.2c25.8,0,46.9-14.9,46.9-33.2
									S248.6,80.1,222.7,80.1"/>
							</g>
						</g>
					</g>
				</g>
			</g>
		</g>
	</g>
	<g>
		<g>
			<g class="st2">
				<defs>
					<rect id="SVGID_107_" x="171.1" y="87.4" class="st2" width="103.2" height="51.6"/>
				</defs>
				<clipPath id="SVGID_41_">
					<use xlink:href="#SVGID_107_"  style="overflow:visible;"/>
				</clipPath>
				<g class="st29">
					<g>
						<g>
							<g>
								<path class="st6" d="M222.7,87.8c-28.1,0-50.9,11.4-50.9,25.5c0,14,22.8,25.5,50.9,25.5c28.1,0,50.9-11.4,50.9-25.5
									C273.6,99.2,250.8,87.8,222.7,87.8 M222.7,139c-28.5,0-51.6-11.6-51.6-25.8c0-14.2,23.1-25.8,51.6-25.8
									c28.4,0,51.6,11.6,51.6,25.8C274.3,127.4,251.2,139,222.7,139"/>
								<path class="st6" d="M222.7,90.1c-25.5,0-46.2,10.4-46.2,23.1s20.7,23.1,46.2,23.1c25.5,0,46.2-10.4,46.2-23.1
									S248.2,90.1,222.7,90.1 M222.7,136.7c-25.9,0-46.9-10.5-46.9-23.4s21-23.4,46.9-23.4c25.8,0,46.9,10.5,46.9,23.4
									S248.6,136.7,222.7,136.7"/>
							</g>
						</g>
					</g>
				</g>
			</g>
		</g>
	</g>
	<g>
		<g>
			<g class="st2">
				<defs>
					<rect id="SVGID_109_" x="171.1" y="80" class="st2" width="103.2" height="66.3"/>
				</defs>
				<clipPath id="SVGID_42_">
					<use xlink:href="#SVGID_109_"  style="overflow:visible;"/>
				</clipPath>
				<g style="clip-path:url(#SVGID_42_);">
					<g>
						<g>
							<g>
								<path class="st8" d="M222.7,145.9c-28.1,0-50.9-14.7-50.9-32.7c0-18,22.8-32.7,50.9-32.7c28.1,0,50.9,14.7,50.9,32.7
									C273.6,131.3,250.8,145.9,222.7,145.9 M222.7,80c-28.5,0-51.6,14.9-51.6,33.2c0,18.3,23.1,33.2,51.6,33.2
									c28.4,0,51.6-14.9,51.6-33.2C274.3,94.9,251.2,80,222.7,80"/>
								<path class="st8" d="M222.7,142.9c-25.5,0-46.2-13.3-46.2-29.7s20.7-29.7,46.2-29.7c25.5,0,46.2,13.3,46.2,29.7
									S248.2,142.9,222.7,142.9 M222.7,83.1c-25.9,0-46.9,13.5-46.9,30.1s21,30.1,46.9,30.1c25.8,0,46.9-13.5,46.9-30.1
									S248.6,83.1,222.7,83.1"/>
							</g>
						</g>
					</g>
				</g>
			</g>
		</g>
	</g>
	<g>
		<g>
			<g class="st2">
				<defs>
					<rect id="SVGID_111_" x="189.6" y="61.6" class="st2" width="66.3" height="103.2"/>
				</defs>
				<clipPath id="SVGID_43_">
					<use xlink:href="#SVGID_111_"  style="overflow:visible;"/>
				</clipPath>
				<g class="st31">
					<g>
						<g>
							<g>
								<path class="st10" d="M222.7,164.1c-18,0-32.7-22.8-32.7-50.9c0-28.1,14.7-50.9,32.7-50.9c18,0,32.7,22.8,32.7,50.9
									C255.5,141.3,240.8,164.1,222.7,164.1 M222.7,61.6c-18.3,0-33.2,23.1-33.2,51.6c0,28.4,14.9,51.6,33.2,51.6
									c18.3,0,33.2-23.2,33.2-51.6C255.9,84.8,241,61.6,222.7,61.6"/>
								<path class="st10" d="M222.7,159.4c-16.4,0-29.7-20.7-29.7-46.2S206.4,67,222.7,67c16.4,0,29.7,20.7,29.7,46.2
									S239.1,159.4,222.7,159.4 M222.7,66.3c-16.6,0-30.1,21-30.1,46.9s13.5,46.9,30.1,46.9c16.6,0,30.1-21,30.1-46.9
									S239.3,66.3,222.7,66.3"/>
							</g>
						</g>
					</g>
				</g>
			</g>
		</g>
	</g>
</g>
<path class="st19" d="M280.7,171.5h-1.4v-0.7h1.4V171.5z M277.9,171.5h-1.4v-0.7h1.4V171.5z M275.2,171.5h-1.4v-0.7h1.4V171.5z
	 M272.5,171.5h-1.4v-0.7h1.4V171.5z M269.7,171.5h-1.4v-0.7h1.4V171.5z M267,171.5h-1.4v-0.7h1.4V171.5z M264.2,171.5h-1.4v-0.7h1.4
	V171.5z M261.5,171.5h-1.4v-0.7h1.4V171.5z M258.7,171.5h-1.4v-0.7h1.4V171.5z M256,171.5h-1.4v-0.7h1.4V171.5z M253.2,171.5h-1.4
	v-0.7h1.4V171.5z M250.5,171.5h-1.4v-0.7h1.4V171.5z M247.8,171.5h-1.4v-0.7h1.4V171.5z M245,171.5h-1.4v-0.7h1.4V171.5z
	 M242.3,171.5h-1.4v-0.7h1.4V171.5z M239.5,171.5h-1.4v-0.7h1.4V171.5z M236.8,171.5h-1.4v-0.7h1.4V171.5z M234,171.5h-1.4v-0.7h1.4
	V171.5z M231.3,171.5h-1.4v-0.7h1.4V171.5z M228.6,171.5h-1.4v-0.7h1.4V171.5z M225.8,171.5h-1.4v-0.7h1.4V171.5z M223.1,171.5h-1.4
	v-0.7h1.4V171.5z M220.3,171.5H219v-0.7h1.4V171.5z M217.6,171.5h-1.4v-0.7h1.4V171.5z M214.8,171.5h-1.4v-0.7h1.4V171.5z
	 M212.1,171.5h-1.4v-0.7h1.4V171.5z M209.4,171.5H208v-0.7h1.4V171.5z M206.6,171.5h-1.4v-0.7h1.4V171.5z M203.9,171.5h-1.4v-0.7
	h1.4V171.5z M201.1,171.5h-1.4v-0.7h1.4V171.5z M198.4,171.5H197v-0.7h1.4V171.5z M195.6,171.5h-1.4v-0.7h1.4V171.5z M192.9,171.5
	h-1.4v-0.7h1.4V171.5z M190.2,171.5h-1.4v-0.7h1.4V171.5z M187.4,171.5H186v-0.7h1.4V171.5z M184.7,171.5h-1.4v-0.7h1.4V171.5z
	 M181.9,171.5h-1.4v-0.7h1.4V171.5z M179.2,171.5h-1.4v-0.7h1.4V171.5z M176.4,171.5h-1.4v-0.7h1.4V171.5z M173.7,171.5h-1.4v-0.7
	h1.4V171.5z M171,171.5h-1.4v-0.7h1.4V171.5z M168.2,171.5h-1.4v-0.7h1.4V171.5z M165.5,171.5h-1v-1h0.7v0.3h0.3V171.5z M281,169.8
	h-0.7v-1.4h0.7V169.8z M165.1,169.1h-0.7v-1.4h0.7V169.1z M281,167h-0.7v-1.4h0.7V167z M165.1,166.4h-0.7V165h0.7V166.4z M281,164.3
	h-0.7v-1.4h0.7V164.3z M165.1,163.6h-0.7v-1.4h0.7V163.6z M281,161.6h-0.7v-1.4h0.7V161.6z M165.1,160.9h-0.7v-1.4h0.7V160.9z
	 M281,158.8h-0.7v-1.4h0.7V158.8z M165.1,158.1h-0.7v-1.4h0.7V158.1z M281,156.1h-0.7v-1.4h0.7V156.1z M165.1,155.4h-0.7V154h0.7
	V155.4z M281,153.3h-0.7V152h0.7V153.3z M165.1,152.6h-0.7v-1.4h0.7V152.6z M281,150.6h-0.7v-1.4h0.7V150.6z M165.1,149.9h-0.7v-1.4
	h0.7V149.9z M281,147.8h-0.7v-1.4h0.7V147.8z M165.1,147.2h-0.7v-1.4h0.7V147.2z M281,145.1h-0.7v-1.4h0.7V145.1z M165.1,144.4h-0.7
	V143h0.7V144.4z M281,142.4h-0.7V141h0.7V142.4z M165.1,141.7h-0.7v-1.4h0.7V141.7z M281,139.6h-0.7v-1.4h0.7V139.6z M165.1,138.9
	h-0.7v-1.4h0.7V138.9z M281,136.9h-0.7v-1.4h0.7V136.9z M165.1,136.2h-0.7v-1.4h0.7V136.2z M281,134.1h-0.7v-1.4h0.7V134.1z
	 M165.1,133.4h-0.7v-1.4h0.7V133.4z M281,131.4h-0.7V130h0.7V131.4z M165.1,130.7h-0.7v-1.4h0.7V130.7z M281,128.6h-0.7v-1.4h0.7
	V128.6z M165.1,128h-0.7v-1.4h0.7V128z M281,125.9h-0.7v-1.4h0.7V125.9z M165.1,125.2h-0.7v-1.4h0.7V125.2z M281,123.2h-0.7v-1.4
	h0.7V123.2z M165.1,122.5h-0.7v-1.4h0.7V122.5z M281,120.4h-0.7V119h0.7V120.4z M165.1,119.7h-0.7v-1.4h0.7V119.7z M281,117.7h-0.7
	v-1.4h0.7V117.7z M165.1,117h-0.7v-1.4h0.7V117z M281,114.9h-0.7v-1.4h0.7V114.9z M165.1,114.2h-0.7v-1.4h0.7V114.2z M281,112.2
	h-0.7v-1.4h0.7V112.2z M165.1,111.5h-0.7v-1.4h0.7V111.5z M281,109.4h-0.7v-1.4h0.7V109.4z M165.1,108.8h-0.7v-1.4h0.7V108.8z
	 M281,106.7h-0.7v-1.4h0.7V106.7z M165.1,106h-0.7v-1.4h0.7V106z M281,104h-0.7v-1.4h0.7V104z M165.1,103.3h-0.7v-1.4h0.7V103.3z
	 M281,101.2h-0.7v-1.4h0.7V101.2z M165.1,100.5h-0.7v-1.4h0.7V100.5z M281,98.5h-0.7v-1.4h0.7V98.5z M165.1,97.8h-0.7v-1.4h0.7V97.8
	z M281,95.7h-0.7v-1.4h0.7V95.7z M165.1,95h-0.7v-1.4h0.7V95z M281,93h-0.7v-1.4h0.7V93z M165.1,92.3h-0.7v-1.4h0.7V92.3z M281,90.2
	h-0.7v-1.4h0.7V90.2z M165.1,89.6h-0.7v-1.4h0.7V89.6z M281,87.5h-0.7v-1.4h0.7V87.5z M165.1,86.8h-0.7v-1.4h0.7V86.8z M281,84.8
	h-0.7v-1.4h0.7V84.8z M165.1,84.1h-0.7v-1.4h0.7V84.1z M281,82h-0.7v-1.4h0.7V82z M165.1,81.3h-0.7V80h0.7V81.3z M281,79.3h-0.7
	v-1.4h0.7V79.3z M165.1,78.6h-0.7v-1.4h0.7V78.6z M281,76.5h-0.7v-1.4h0.7V76.5z M165.1,75.8h-0.7v-1.4h0.7V75.8z M281,73.8h-0.7
	v-1.4h0.7V73.8z M165.1,73.1h-0.7v-1.4h0.7V73.1z M281,71h-0.7v-1.4h0.7V71z M165.1,70.4h-0.7V69h0.7V70.4z M281,68.3h-0.7v-1.4h0.7
	V68.3z M165.1,67.6h-0.7v-1.4h0.7V67.6z M281,65.5h-0.7v-1.4h0.7V65.5z M165.1,64.9h-0.7v-1.4h0.7V64.9z M281,62.8h-0.7v-1.4h0.7
	V62.8z M165.1,62.1h-0.7v-1.4h0.7V62.1z M281,60.1h-0.7v-1.4h0.7V60.1z M165.1,59.4h-0.7V58h0.7V59.4z M281,57.3h-0.7v-1.4h0.7V57.3
	z M165.1,56.6h-0.7v-1.4h0.7V56.6z M280,55.6h-1.4v-0.7h1.4V55.6z M277.3,55.6h-1.4v-0.7h1.4V55.6z M274.5,55.6h-1.4v-0.7h1.4V55.6z
	 M271.8,55.6h-1.4v-0.7h1.4V55.6z M269,55.6h-1.4v-0.7h1.4V55.6z M266.3,55.6h-1.4v-0.7h1.4V55.6z M263.5,55.6h-1.4v-0.7h1.4V55.6z
	 M260.8,55.6h-1.4v-0.7h1.4V55.6z M258.1,55.6h-1.4v-0.7h1.4V55.6z M255.3,55.6h-1.4v-0.7h1.4V55.6z M252.6,55.6h-1.4v-0.7h1.4V55.6
	z M249.8,55.6h-1.4v-0.7h1.4V55.6z M247.1,55.6h-1.4v-0.7h1.4V55.6z M244.3,55.6H243v-0.7h1.4V55.6z M241.6,55.6h-1.4v-0.7h1.4V55.6
	z M238.8,55.6h-1.4v-0.7h1.4V55.6z M236.1,55.6h-1.4v-0.7h1.4V55.6z M233.4,55.6H232v-0.7h1.4V55.6z M230.6,55.6h-1.4v-0.7h1.4V55.6
	z M227.9,55.6h-1.4v-0.7h1.4V55.6z M225.1,55.6h-1.4v-0.7h1.4V55.6z M222.4,55.6H221v-0.7h1.4V55.6z M219.6,55.6h-1.4v-0.7h1.4V55.6
	z M216.9,55.6h-1.4v-0.7h1.4V55.6z M214.2,55.6h-1.4v-0.7h1.4V55.6z M211.4,55.6H210v-0.7h1.4V55.6z M208.7,55.6h-1.4v-0.7h1.4V55.6
	z M205.9,55.6h-1.4v-0.7h1.4V55.6z M203.2,55.6h-1.4v-0.7h1.4V55.6z M200.4,55.6h-1.4v-0.7h1.4V55.6z M197.7,55.6h-1.4v-0.7h1.4
	V55.6z M195,55.6h-1.4v-0.7h1.4V55.6z M192.2,55.6h-1.4v-0.7h1.4V55.6z M189.5,55.6h-1.4v-0.7h1.4V55.6z M186.7,55.6h-1.4v-0.7h1.4
	V55.6z M184,55.6h-1.4v-0.7h1.4V55.6z M181.2,55.6h-1.4v-0.7h1.4V55.6z M178.5,55.6h-1.4v-0.7h1.4V55.6z M175.8,55.6h-1.4v-0.7h1.4
	V55.6z M173,55.6h-1.4v-0.7h1.4V55.6z M170.3,55.6h-1.4v-0.7h1.4V55.6z M167.5,55.6h-1.4v-0.7h1.4V55.6z"/>
<circle class="st10" cx="280.5" cy="113.2" r="4.5"/>
<rect x="280.1" y="22.3" class="st10" width="0.8" height="90.9"/>
<rect x="51.9" y="11.1" class="st18" width="40.4" height="13.4"/>
<text transform="matrix(1 0 0 1 51.875 19.7407)" class="st19 st73 st74">middle</text>
<rect x="266.9" y="10" class="st18" width="29.1" height="13.4"/>
<text transform="matrix(1 0 0 1 266.8516 18.6709)" class="st19 st73 st74">right</text>
</svg>
