<?xml version="1.0" encoding="utf-8"?>
<!-- Generator: Adobe Illustrator 21.0.2, SVG Export Plug-In . SVG Version: 6.00 Build 0)  -->
<svg version="1.1" id="Layer_1" xmlns="http://www.w3.org/2000/svg" xmlns:xlink="http://www.w3.org/1999/xlink" x="0px" y="0px"
	 viewBox="0 0 300 80" style="enable-background:new 0 0 300 80;" xml:space="preserve">
<style type="text/css">
	.st0{opacity:0.4;}
	.st1{fill:#6622CC;}
	.st2{enable-background:new    ;}
	.st3{clip-path:url(#SVGID_2_);}
	.st4{fill:#16C4BF;}
	.st5{clip-path:url(#SVGID_6_);}
	.st6{fill:#C200FB;}
	.st7{clip-path:url(#SVGID_10_);}
	.st8{fill:#F7B32B;}
	.st9{clip-path:url(#SVGID_14_);}
	.st10{fill:#4056F4;}
	.st11{clip-path:url(#SVGID_18_);}
	.st12{clip-path:url(#SVGID_22_);}
	.st13{clip-path:url(#SVGID_26_);}
	.st14{clip-path:url(#SVGID_30_);}
	.st15{clip-path:url(#SVGID_33_);}
	.st16{fill:none;stroke:#16C4BF;stroke-miterlimit:10;}
	.st17{fill:none;stroke:#4056F4;stroke-width:0.9749;stroke-linecap:round;stroke-miterlimit:10;}
	.st18{fill:none;}
	.st19{fill:#8000FF;}
	.st20{fill:none;stroke:#16C4BF;stroke-width:0.908;stroke-miterlimit:10;}
	.st21{fill:none;stroke:#8000FF;stroke-miterlimit:10;}
	.st22{clip-path:url(#SVGID_35_);}
	.st23{clip-path:url(#SVGID_36_);}
	.st24{clip-path:url(#SVGID_37_);}
	.st25{clip-path:url(#SVGID_38_);fill:#8000FF;}
	.st26{clip-path:url(#SVGID_39_);}
	.st27{clip-path:url(#SVGID_40_);fill:#8000FF;}
	.st28{fill:none;stroke:#8000FF;stroke-miterlimit:10;stroke-dasharray:2,2;}
	.st29{clip-path:url(#SVGID_41_);}
	.st30{clip-path:url(#SVGID_42_);fill:#8000FF;}
	.st31{clip-path:url(#SVGID_43_);}
	.st32{clip-path:url(#SVGID_44_);fill:#8000FF;}
	.st33{fill:none;stroke:#4056F4;stroke-miterlimit:10;}
	.st34{fill:none;stroke:#4056F4;stroke-width:2;stroke-miterlimit:10;}
	.st35{clip-path:url(#SVGID_45_);}
	.st36{clip-path:url(#SVGID_46_);}
	.st37{clip-path:url(#SVGID_47_);fill:#8000FF;}
	.st38{clip-path:url(#SVGID_48_);}
	.st39{clip-path:url(#SVGID_49_);}
	.st40{clip-path:url(#SVGID_50_);fill:#8000FF;}
	.st41{clip-path:url(#SVGID_52_);}
	.st42{clip-path:url(#SVGID_54_);fill:#8000FF;}
	.st43{clip-path:url(#SVGID_56_);}
	.st44{clip-path:url(#SVGID_58_);fill:#8000FF;}
	.st45{fill:none;stroke:#6622CC;stroke-miterlimit:10;}
	.st46{clip-path:url(#SVGID_60_);}
	.st47{clip-path:url(#SVGID_62_);}
	.st48{clip-path:url(#SVGID_64_);}
	.st49{clip-path:url(#SVGID_66_);}
	.st50{clip-path:url(#SVGID_68_);}
	.st51{clip-path:url(#SVGID_70_);}
	.st52{clip-path:url(#SVGID_72_);}
	.st53{clip-path:url(#SVGID_74_);}
	.st54{clip-path:url(#SVGID_76_);}
	.st55{clip-path:url(#SVGID_78_);}
	.st56{clip-path:url(#SVGID_80_);}
	.st57{clip-path:url(#SVGID_82_);}
	.st58{clip-path:url(#SVGID_84_);}
	.st59{clip-path:url(#SVGID_86_);}
	.st60{clip-path:url(#SVGID_88_);}
	.st61{clip-path:url(#SVGID_90_);}
	.st62{clip-path:url(#SVGID_92_);}
	.st63{clip-path:url(#SVGID_94_);}
	.st64{clip-path:url(#SVGID_96_);}
	.st65{clip-path:url(#SVGID_98_);}
	.st66{clip-path:url(#SVGID_100_);}
	.st67{clip-path:url(#SVGID_102_);}
	.st68{clip-path:url(#SVGID_104_);}
	.st69{clip-path:url(#SVGID_106_);}
	.st70{clip-path:url(#SVGID_108_);}
	.st71{clip-path:url(#SVGID_110_);}
	.st72{clip-path:url(#SVGID_112_);}
	.st73{fill:none;stroke:#6666FF;stroke-width:1.138;stroke-miterlimit:10;}
	.st74{font-family:'ShortStack';}
	.st75{font-size:5.6901px;}
	.st76{fill:none;stroke:#16C4BF;stroke-width:1.8967;stroke-miterlimit:10;}
</style>
<g>
	<line class="st73" x1="7.5" y1="34.3" x2="290.9" y2="34.3"/>
</g>
<rect x="4.8" y="18.7" class="st18" width="35.1" height="8.6"/>
<text transform="matrix(1 0 0 1 4.8242 22.8647)" class="st10 st74 st75">0%, Start</text>
<rect x="127.1" y="18.7" class="st18" width="44.2" height="5.6"/>
<text transform="matrix(1 0 0 1 127.0791 22.8647)" class="st10 st74 st75">50%, Halfway</text>
<rect x="260.6" y="18.8" class="st18" width="35.4" height="4.1"/>
<text transform="matrix(1 0 0 1 260.6074 22.8687)" class="st10 st74 st75">100%, End</text>
<g>
	<path class="st4" d="M95.8,52.7c-0.6,0-1.4-0.1-2.3-0.3c-0.9-0.2-1.9-0.4-2.9-0.6c-1-0.2-2.1-0.4-3.2-0.6S85.3,51,84.2,51
		c-0.5,0-0.9,0.1-1.3,0.4c-0.4,0.3-0.8,0.6-1.1,1c-0.3,0.4-0.6,0.8-0.9,1.3c-0.3,0.5-0.5,0.9-0.8,1.4c0.1,0.2,0.2,0.5,0.2,0.8
		c0,0.4,0,0.7-0.2,1.1c-0.1,0.4-0.3,0.7-0.6,0.9c-0.3,0.3-0.6,0.4-1.1,0.4c-0.6,0-1.1-0.1-1.5-0.2c-0.4-0.1-0.7-0.3-1-0.5
		c-0.3-0.2-0.5-0.4-0.7-0.6c-0.2-0.2-0.3-0.4-0.5-0.5c-0.8-0.8-1.4-1.4-1.7-2.1c-0.4-0.6-0.8-1.1-1.1-1.6c-0.3-0.4-0.7-0.8-1.1-1
		c-0.4-0.2-1-0.3-1.7-0.3c-0.6,0-1.3,0.1-2,0.2c-0.8,0.1-1.5,0.3-2.3,0.4c-0.8,0.2-1.5,0.3-2.2,0.4c-0.7,0.1-1.3,0.2-1.9,0.2
		c-0.8,0-1.6-0.2-2.3-0.5c-0.7-0.3-1.3-0.8-1.9-1.4c-0.5-0.6-0.9-1.4-1.3-2.3s-0.5-2-0.5-3.2c0-0.4,0-0.8,0.1-1.2s0.2-0.7,0.3-1
		c0.2-0.3,0.3-0.5,0.6-0.7c0.2-0.2,0.5-0.3,0.9-0.3c0.6,0,1.1,0.1,1.4,0.4c0.3,0.3,0.6,0.6,0.7,1c0.2,0.4,0.3,0.9,0.3,1.4
		c0.1,0.5,0.2,1,0.3,1.4c0.1,0.5,0.3,0.8,0.6,0.9c0.3,0.1,0.6,0.2,0.8,0.2c0.3,0,0.7,0,1.2-0.1s1-0.1,1.6-0.2
		c0.6-0.1,1.3-0.2,1.9-0.3c0.7-0.1,1.4-0.2,2.1-0.3c0.7-0.1,1.4-0.2,2-0.2c0.6,0,1.2-0.1,1.7-0.1c0.7,0,1.3,0.2,1.9,0.7
		c0.6,0.5,1.1,1,1.6,1.7c0.5,0.7,0.9,1.4,1.3,2c0.4,0.7,0.8,1.3,1.2,1.7c0.5-0.8,1-1.6,1.4-2.4c0.4-0.8,0.9-1.5,1.4-2.1
		c0.5-0.6,1-1.1,1.6-1.5s1.4-0.6,2.2-0.6c0.8,0,1.6,0.1,2.4,0.2c0.9,0.2,1.7,0.3,2.6,0.5c0.9,0.2,1.7,0.3,2.4,0.5
		c0.8,0.2,1.4,0.2,2,0.2c0.6,0,1,0,1.3-0.1c0.3-0.1,0.6-0.2,0.7-0.4s0.3-0.4,0.3-0.7c0.1-0.3,0.2-0.7,0.2-1.2c0-0.5,0.1-0.9,0.2-1.2
		c0.1-0.4,0.2-0.7,0.3-0.9c0.2-0.3,0.4-0.5,0.6-0.6c0.3-0.2,0.6-0.2,1-0.2c0.4,0,0.7,0.1,1,0.3s0.5,0.4,0.7,0.7
		c0.2,0.3,0.3,0.6,0.4,0.9c0.1,0.3,0.2,0.7,0.2,1c0,1.4-0.1,2.6-0.3,3.6c-0.2,1-0.5,1.8-0.9,2.4c-0.4,0.6-0.9,1.1-1.5,1.4
		C97.4,52.5,96.6,52.7,95.8,52.7z"/>
</g>
<text transform="matrix(1 0 0 1 54.6289 67.2476)" class="st19 st74 st75">Transitional Time</text>
<g>
	<path class="st4" d="M242.6,53.1c-0.6,0-1.4-0.1-2.3-0.3c-0.9-0.2-1.9-0.4-2.9-0.6c-1-0.2-2.1-0.4-3.2-0.6s-2.2-0.3-3.2-0.3
		c-0.5,0-0.9,0.1-1.3,0.4c-0.4,0.3-0.8,0.6-1.1,1c-0.3,0.4-0.6,0.8-0.9,1.3c-0.3,0.5-0.5,0.9-0.8,1.4c0.1,0.2,0.2,0.5,0.2,0.8
		c0,0.4,0,0.7-0.2,1.1c-0.1,0.4-0.3,0.7-0.6,0.9c-0.3,0.3-0.6,0.4-1.1,0.4c-0.6,0-1.1-0.1-1.5-0.2c-0.4-0.1-0.7-0.3-1-0.5
		c-0.3-0.2-0.5-0.4-0.7-0.6s-0.3-0.4-0.5-0.5c-0.8-0.8-1.4-1.4-1.7-2.1c-0.4-0.6-0.8-1.1-1.1-1.6c-0.3-0.5-0.7-0.8-1.1-1
		c-0.4-0.2-1-0.3-1.7-0.3c-0.6,0-1.3,0.1-2,0.2c-0.8,0.1-1.5,0.3-2.3,0.4s-1.5,0.3-2.2,0.4c-0.7,0.1-1.3,0.2-1.9,0.2
		c-0.8,0-1.6-0.2-2.3-0.5c-0.7-0.3-1.3-0.8-1.9-1.4c-0.5-0.6-0.9-1.4-1.3-2.3s-0.5-2-0.5-3.2c0-0.4,0-0.8,0.1-1.2s0.2-0.7,0.3-1
		c0.2-0.3,0.3-0.5,0.6-0.7c0.2-0.2,0.5-0.3,0.9-0.3c0.6,0,1.1,0.1,1.4,0.4c0.3,0.3,0.6,0.6,0.7,1s0.3,0.9,0.3,1.4
		c0.1,0.5,0.2,1,0.3,1.4c0.1,0.5,0.3,0.8,0.6,0.9s0.6,0.2,0.8,0.2c0.3,0,0.7,0,1.2-0.1c0.5,0,1-0.1,1.6-0.2c0.6-0.1,1.3-0.2,1.9-0.3
		c0.7-0.1,1.4-0.2,2.1-0.3c0.7-0.1,1.4-0.2,2-0.2c0.6,0,1.2-0.1,1.7-0.1c0.7,0,1.3,0.2,1.9,0.7c0.6,0.5,1.1,1,1.6,1.7
		c0.5,0.7,0.9,1.4,1.3,2c0.4,0.7,0.8,1.3,1.2,1.7c0.5-0.8,1-1.6,1.4-2.4s0.9-1.5,1.4-2.1c0.5-0.6,1-1.1,1.6-1.5s1.4-0.6,2.2-0.6
		c0.8,0,1.6,0.1,2.4,0.2s1.7,0.3,2.6,0.5s1.7,0.3,2.4,0.5s1.4,0.2,2,0.2c0.6,0,1,0,1.3-0.1c0.3-0.1,0.6-0.2,0.7-0.4s0.3-0.4,0.3-0.7
		c0.1-0.3,0.2-0.7,0.2-1.2c0-0.5,0.1-0.9,0.2-1.2c0.1-0.4,0.2-0.7,0.3-0.9c0.2-0.3,0.4-0.5,0.6-0.6c0.3-0.2,0.6-0.2,1-0.2
		c0.4,0,0.7,0.1,1,0.3c0.3,0.2,0.5,0.4,0.7,0.7c0.2,0.3,0.3,0.6,0.4,0.9s0.2,0.7,0.2,1c0,1.4-0.1,2.6-0.3,3.6
		c-0.2,1-0.5,1.8-0.9,2.4c-0.4,0.6-0.9,1.1-1.5,1.4C244.2,53,243.4,53.1,242.6,53.1z"/>
</g>
<text transform="matrix(1 0 0 1 201.0527 66.6616)" class="st19 st74 st75">Transitional Time</text>
<line class="st76" x1="7.5" y1="26.7" x2="7.5" y2="41.8"/>
<line class="st76" x1="149.2" y1="26.7" x2="149.2" y2="41.8"/>
<line class="st76" x1="290.9" y1="26.7" x2="290.9" y2="41.8"/>
</svg>
